<svg xmlns="http://www.w3.org/2000/svg" xmlns:xlink="http://www.w3.org/1999/xlink" width="1920" zoomAndPan="magnify" viewBox="0 0 1440 809.999993" height="1080" preserveAspectRatio="xMidYMid meet" version="1.0"><defs><clipPath id="9cf8f5adce"><path d="M 724.226562 149.28125 L 772.503906 149.28125 L 772.503906 197.558594 L 724.226562 197.558594 Z M 724.226562 149.28125 " clip-rule="nonzero"/></clipPath><clipPath id="6529a31eeb"><path d="M 581.640625 196.808594 L 629.917969 196.808594 L 629.917969 245.089844 L 581.640625 245.089844 Z M 581.640625 196.808594 " clip-rule="nonzero"/></clipPath><clipPath id="93ae19e2e2"><path d="M 629.167969 196.808594 L 677.445312 196.808594 L 677.445312 245.089844 L 629.167969 245.089844 Z M 629.167969 196.808594 " clip-rule="nonzero"/></clipPath><clipPath id="1de73bbb64"><path d="M 537.390625 244.617188 L 585.667969 244.617188 L 585.667969 292.894531 L 537.390625 292.894531 Z M 537.390625 244.617188 " clip-rule="nonzero"/></clipPath><clipPath id="d943b6a8f1"><path d="M 676.695312 196.808594 L 724.976562 196.808594 L 724.976562 245.089844 L 676.695312 245.089844 Z M 676.695312 196.808594 " clip-rule="nonzero"/></clipPath><clipPath id="c04a4b0815"><path d="M 771.753906 149.28125 L 820.03125 149.28125 L 820.03125 197.558594 L 771.753906 197.558594 Z M 771.753906 149.28125 " clip-rule="nonzero"/></clipPath><clipPath id="3ceb8aedf8"><path d="M 581.640625 244.617188 L 629.917969 244.617188 L 629.917969 292.894531 L 581.640625 292.894531 Z M 581.640625 244.617188 " clip-rule="nonzero"/></clipPath><clipPath id="2683ab7e03"><path d="M 724.226562 290.667969 L 772.503906 290.667969 L 772.503906 338.945312 L 724.226562 338.945312 Z M 724.226562 290.667969 " clip-rule="nonzero"/></clipPath><clipPath id="998fd32249"><path d="M 676.695312 338.195312 L 724.976562 338.195312 L 724.976562 386.476562 L 676.695312 386.476562 Z M 676.695312 338.195312 " clip-rule="nonzero"/></clipPath><clipPath id="2f64bf758a"><path d="M 676.695312 290.667969 L 724.976562 290.667969 L 724.976562 338.945312 L 676.695312 338.945312 Z M 676.695312 290.667969 " clip-rule="nonzero"/></clipPath><clipPath id="8fa5183e59"><path d="M 819.003906 149.28125 L 867.28125 149.28125 L 867.28125 197.558594 L 819.003906 197.558594 Z M 819.003906 149.28125 " clip-rule="nonzero"/></clipPath><clipPath id="dd0838a2e7"><path d="M 819.003906 244.617188 L 867.28125 244.617188 L 867.28125 292.894531 L 819.003906 292.894531 Z M 819.003906 244.617188 " clip-rule="nonzero"/></clipPath><clipPath id="537f567896"><path d="M 771.753906 290.667969 L 820.03125 290.667969 L 820.03125 338.945312 L 771.753906 338.945312 Z M 771.753906 290.667969 " clip-rule="nonzero"/></clipPath><clipPath id="0a5f5557ca"><path d="M 819.003906 290.667969 L 867.28125 290.667969 L 867.28125 338.945312 L 819.003906 338.945312 Z M 819.003906 290.667969 " clip-rule="nonzero"/></clipPath><clipPath id="369ed7adc3"><path d="M 724.226562 196.808594 L 772.503906 196.808594 L 772.503906 245.089844 L 724.226562 245.089844 Z M 724.226562 196.808594 " clip-rule="nonzero"/></clipPath><clipPath id="a5dd2d9978"><path d="M 819.003906 196.808594 L 867.28125 196.808594 L 867.28125 245.089844 L 819.003906 245.089844 Z M 819.003906 196.808594 " clip-rule="nonzero"/></clipPath><clipPath id="cfe3724a9f"><path d="M 676.695312 384.308594 L 724.976562 384.308594 L 724.976562 432.589844 L 676.695312 432.589844 Z M 676.695312 384.308594 " clip-rule="nonzero"/></clipPath><clipPath id="2c64c701a7"><path d="M 581.640625 338.195312 L 629.917969 338.195312 L 629.917969 386.476562 L 581.640625 386.476562 Z M 581.640625 338.195312 " clip-rule="nonzero"/></clipPath><clipPath id="ddcc90b934"><path d="M 581.640625 384.308594 L 629.917969 384.308594 L 629.917969 432.589844 L 581.640625 432.589844 Z M 581.640625 384.308594 " clip-rule="nonzero"/></clipPath><clipPath id="a4b330c624"><path d="M 581.640625 431.839844 L 629.917969 431.839844 L 629.917969 480.117188 L 581.640625 480.117188 Z M 581.640625 431.839844 " clip-rule="nonzero"/></clipPath><clipPath id="2bdb63301a"><path d="M 676.695312 431.839844 L 724.976562 431.839844 L 724.976562 480.117188 L 676.695312 480.117188 Z M 676.695312 431.839844 " clip-rule="nonzero"/></clipPath><clipPath id="05c5bc6934"><path d="M 676.695312 479.367188 L 724.976562 479.367188 L 724.976562 527.644531 L 676.695312 527.644531 Z M 676.695312 479.367188 " clip-rule="nonzero"/></clipPath><clipPath id="5e41ec6f52"><path d="M 581.640625 479.367188 L 629.917969 479.367188 L 629.917969 527.644531 L 581.640625 527.644531 Z M 581.640625 479.367188 " clip-rule="nonzero"/></clipPath><clipPath id="f2256d760d"><path d="M 581.640625 526.894531 L 629.917969 526.894531 L 629.917969 575.175781 L 581.640625 575.175781 Z M 581.640625 526.894531 " clip-rule="nonzero"/></clipPath><clipPath id="7bdcb77b84"><path d="M 629.167969 574.339844 L 677.445312 574.339844 L 677.445312 622.617188 L 629.167969 622.617188 Z M 629.167969 574.339844 " clip-rule="nonzero"/></clipPath><clipPath id="4a701129f7"><path d="M 581.640625 574.339844 L 629.917969 574.339844 L 629.917969 622.617188 L 581.640625 622.617188 Z M 581.640625 574.339844 " clip-rule="nonzero"/></clipPath><clipPath id="bcb39ece6c"><path d="M 676.695312 574.339844 L 724.976562 574.339844 L 724.976562 622.617188 L 676.695312 622.617188 Z M 676.695312 574.339844 " clip-rule="nonzero"/></clipPath><clipPath id="eff078d84e"><path d="M 724.226562 574.339844 L 772.503906 574.339844 L 772.503906 622.617188 L 724.226562 622.617188 Z M 724.226562 574.339844 " clip-rule="nonzero"/></clipPath><clipPath id="f5455928dc"><path d="M 724.226562 479.367188 L 772.503906 479.367188 L 772.503906 527.644531 L 724.226562 527.644531 Z M 724.226562 479.367188 " clip-rule="nonzero"/></clipPath><clipPath id="3bdeddf87e"><path d="M 771.753906 431.839844 L 820.03125 431.839844 L 820.03125 480.117188 L 771.753906 480.117188 Z M 771.753906 431.839844 " clip-rule="nonzero"/></clipPath><clipPath id="cdc48b4170"><path d="M 771.753906 384.308594 L 820.03125 384.308594 L 820.03125 432.589844 L 771.753906 432.589844 Z M 771.753906 384.308594 " clip-rule="nonzero"/></clipPath><clipPath id="ed179d34fb"><path d="M 771.753906 479.367188 L 820.03125 479.367188 L 820.03125 527.644531 L 771.753906 527.644531 Z M 771.753906 479.367188 " clip-rule="nonzero"/></clipPath><clipPath id="1195192204"><path d="M 819.003906 384.308594 L 867.28125 384.308594 L 867.28125 432.589844 L 819.003906 432.589844 Z M 819.003906 384.308594 " clip-rule="nonzero"/></clipPath><clipPath id="cb15044cca"><path d="M 866.53125 384.308594 L 914.808594 384.308594 L 914.808594 432.589844 L 866.53125 432.589844 Z M 866.53125 384.308594 " clip-rule="nonzero"/></clipPath><clipPath id="5707267a82"><path d="M 914.53125 338.195312 L 962.808594 338.195312 L 962.808594 386.476562 L 914.53125 386.476562 Z M 914.53125 338.195312 " clip-rule="nonzero"/></clipPath><clipPath id="cb4ee2dc36"><path d="M 914.53125 290.667969 L 962.808594 290.667969 L 962.808594 338.945312 L 914.53125 338.945312 Z M 914.53125 290.667969 " clip-rule="nonzero"/></clipPath><clipPath id="5a319de316"><path d="M 962.339844 290.667969 L 1010.617188 290.667969 L 1010.617188 338.945312 L 962.339844 338.945312 Z M 962.339844 290.667969 " clip-rule="nonzero"/></clipPath><clipPath id="2cf8739e7b"><path d="M 914.53125 384.308594 L 962.808594 384.308594 L 962.808594 432.589844 L 914.53125 432.589844 Z M 914.53125 384.308594 " clip-rule="nonzero"/></clipPath><clipPath id="54cf086cca"><path d="M 771.753906 574.339844 L 820.03125 574.339844 L 820.03125 622.617188 L 771.753906 622.617188 Z M 771.753906 574.339844 " clip-rule="nonzero"/></clipPath><clipPath id="43400aca32"><path d="M 819.003906 574.339844 L 867.28125 574.339844 L 867.28125 622.617188 L 819.003906 622.617188 Z M 819.003906 574.339844 " clip-rule="nonzero"/></clipPath><clipPath id="4da097b2c2"><path d="M 1009.867188 290.667969 L 1058.144531 290.667969 L 1058.144531 338.945312 L 1009.867188 338.945312 Z M 1009.867188 290.667969 " clip-rule="nonzero"/></clipPath><clipPath id="143951ccee"><path d="M 1009.867188 338.195312 L 1058.144531 338.195312 L 1058.144531 386.476562 L 1009.867188 386.476562 Z M 1009.867188 338.195312 " clip-rule="nonzero"/></clipPath><clipPath id="bcd4709263"><path d="M 1009.867188 384.308594 L 1058.144531 384.308594 L 1058.144531 432.589844 L 1009.867188 432.589844 Z M 1009.867188 384.308594 " clip-rule="nonzero"/></clipPath><clipPath id="cb8ec5c070"><path d="M 866.53125 479.367188 L 914.808594 479.367188 L 914.808594 527.644531 L 866.53125 527.644531 Z M 866.53125 479.367188 " clip-rule="nonzero"/></clipPath><clipPath id="e08aca3799"><path d="M 866.53125 526.894531 L 914.808594 526.894531 L 914.808594 575.175781 L 866.53125 575.175781 Z M 866.53125 526.894531 " clip-rule="nonzero"/></clipPath><clipPath id="b97d5bb831"><path d="M 866.53125 574.339844 L 914.808594 574.339844 L 914.808594 622.617188 L 866.53125 622.617188 Z M 866.53125 574.339844 " clip-rule="nonzero"/></clipPath><clipPath id="640ba0464b"><path d="M 962.339844 479.367188 L 1010.617188 479.367188 L 1010.617188 527.644531 L 962.339844 527.644531 Z M 962.339844 479.367188 " clip-rule="nonzero"/></clipPath><clipPath id="f52ee2e1c6"><path d="M 1009.867188 479.367188 L 1058.144531 479.367188 L 1058.144531 527.644531 L 1009.867188 527.644531 Z M 1009.867188 479.367188 " clip-rule="nonzero"/></clipPath><clipPath id="652a3609c2"><path d="M 1009.867188 526.894531 L 1058.144531 526.894531 L 1058.144531 575.175781 L 1009.867188 575.175781 Z M 1009.867188 526.894531 " clip-rule="nonzero"/></clipPath><clipPath id="2a388e74a9"><path d="M 1057.867188 384.308594 L 1106.144531 384.308594 L 1106.144531 432.589844 L 1057.867188 432.589844 Z M 1057.867188 384.308594 " clip-rule="nonzero"/></clipPath><clipPath id="d75ba25802"><path d="M 1106.144531 384.308594 L 1154.425781 384.308594 L 1154.425781 432.589844 L 1106.144531 432.589844 Z M 1106.144531 384.308594 " clip-rule="nonzero"/></clipPath><clipPath id="9cf198a4fa"><path d="M 1106.144531 431.839844 L 1154.425781 431.839844 L 1154.425781 480.117188 L 1106.144531 480.117188 Z M 1106.144531 431.839844 " clip-rule="nonzero"/></clipPath><clipPath id="819dc3e0c4"><path d="M 1106.144531 479.367188 L 1154.425781 479.367188 L 1154.425781 527.644531 L 1106.144531 527.644531 Z M 1106.144531 479.367188 " clip-rule="nonzero"/></clipPath><clipPath id="81e6ab5301"><path d="M 1106.144531 526.894531 L 1154.425781 526.894531 L 1154.425781 575.175781 L 1106.144531 575.175781 Z M 1106.144531 526.894531 " clip-rule="nonzero"/></clipPath><clipPath id="0ec0038f80"><path d="M 1009.867188 574.339844 L 1058.144531 574.339844 L 1058.144531 622.617188 L 1009.867188 622.617188 Z M 1009.867188 574.339844 " clip-rule="nonzero"/></clipPath><clipPath id="abe672774a"><path d="M 1009.867188 621.867188 L 1058.144531 621.867188 L 1058.144531 670.144531 L 1009.867188 670.144531 Z M 1009.867188 621.867188 " clip-rule="nonzero"/></clipPath><clipPath id="debaa86ed2"><path d="M 1009.867188 670.058594 L 1058.144531 670.058594 L 1058.144531 718.339844 L 1009.867188 718.339844 Z M 1009.867188 670.058594 " clip-rule="nonzero"/></clipPath><clipPath id="2ae42be592"><path d="M 1057.867188 717.503906 L 1106.144531 717.503906 L 1106.144531 765.78125 L 1057.867188 765.78125 Z M 1057.867188 717.503906 " clip-rule="nonzero"/></clipPath><clipPath id="7229cc208c"><path d="M 1009.867188 717.503906 L 1058.144531 717.503906 L 1058.144531 765.78125 L 1009.867188 765.78125 Z M 1009.867188 717.503906 " clip-rule="nonzero"/></clipPath><clipPath id="06f3fac202"><path d="M 1106.144531 717.503906 L 1154.425781 717.503906 L 1154.425781 765.78125 L 1106.144531 765.78125 Z M 1106.144531 717.503906 " clip-rule="nonzero"/></clipPath><clipPath id="4890f8bafd"><path d="M 1106.144531 670.058594 L 1154.425781 670.058594 L 1154.425781 718.339844 L 1106.144531 718.339844 Z M 1106.144531 670.058594 " clip-rule="nonzero"/></clipPath><clipPath id="eecd5909cb"><path d="M 1106.144531 621.867188 L 1154.425781 621.867188 L 1154.425781 670.144531 L 1106.144531 670.144531 Z M 1106.144531 621.867188 " clip-rule="nonzero"/></clipPath><clipPath id="40f357160b"><path d="M 1152.925781 621.867188 L 1201.203125 621.867188 L 1201.203125 670.144531 L 1152.925781 670.144531 Z M 1152.925781 621.867188 " clip-rule="nonzero"/></clipPath><clipPath id="7e95e838b4"><path d="M 1200.644531 670.058594 L 1248.925781 670.058594 L 1248.925781 718.339844 L 1200.644531 718.339844 Z M 1200.644531 670.058594 " clip-rule="nonzero"/></clipPath><clipPath id="36af6238d2"><path d="M 1200.644531 621.867188 L 1248.925781 621.867188 L 1248.925781 670.144531 L 1200.644531 670.144531 Z M 1200.644531 621.867188 " clip-rule="nonzero"/></clipPath><clipPath id="ef646e26ad"><path d="M 1200.644531 717.503906 L 1248.925781 717.503906 L 1248.925781 765.78125 L 1200.644531 765.78125 Z M 1200.644531 717.503906 " clip-rule="nonzero"/></clipPath><clipPath id="aca22ee6b1"><path d="M 1248.453125 717.503906 L 1296.730469 717.503906 L 1296.730469 765.78125 L 1248.453125 765.78125 Z M 1248.453125 717.503906 " clip-rule="nonzero"/></clipPath><clipPath id="22f38595a2"><path d="M 1296.175781 717.503906 L 1344.453125 717.503906 L 1344.453125 765.78125 L 1296.175781 765.78125 Z M 1296.175781 717.503906 " clip-rule="nonzero"/></clipPath><clipPath id="87d7c050a2"><path d="M 1344.453125 717.503906 L 1392.730469 717.503906 L 1392.730469 765.78125 L 1344.453125 765.78125 Z M 1344.453125 717.503906 " clip-rule="nonzero"/></clipPath><clipPath id="5d77ab3204"><path d="M 1344.453125 670.058594 L 1392.730469 670.058594 L 1392.730469 718.339844 L 1344.453125 718.339844 Z M 1344.453125 670.058594 " clip-rule="nonzero"/></clipPath><clipPath id="1374c57c89"><path d="M 1344.453125 621.867188 L 1392.730469 621.867188 L 1392.730469 670.144531 L 1344.453125 670.144531 Z M 1344.453125 621.867188 " clip-rule="nonzero"/></clipPath><clipPath id="949d7726c7"><path d="M 1296.175781 526.894531 L 1344.453125 526.894531 L 1344.453125 575.175781 L 1296.175781 575.175781 Z M 1296.175781 526.894531 " clip-rule="nonzero"/></clipPath><clipPath id="55d0e43be6"><path d="M 1296.175781 621.867188 L 1344.453125 621.867188 L 1344.453125 670.144531 L 1296.175781 670.144531 Z M 1296.175781 621.867188 " clip-rule="nonzero"/></clipPath><clipPath id="d05579b905"><path d="M 1296.175781 574.339844 L 1344.453125 574.339844 L 1344.453125 622.617188 L 1296.175781 622.617188 Z M 1296.175781 574.339844 " clip-rule="nonzero"/></clipPath><clipPath id="669dfb3bba"><path d="M 1344.453125 479.367188 L 1392.730469 479.367188 L 1392.730469 527.644531 L 1344.453125 527.644531 Z M 1344.453125 479.367188 " clip-rule="nonzero"/></clipPath><clipPath id="ff9e9f9bdb"><path d="M 1152.925781 526.894531 L 1201.203125 526.894531 L 1201.203125 575.175781 L 1152.925781 575.175781 Z M 1152.925781 526.894531 " clip-rule="nonzero"/></clipPath><clipPath id="d09b4079b6"><path d="M 1200.644531 526.894531 L 1248.925781 526.894531 L 1248.925781 575.175781 L 1200.644531 575.175781 Z M 1200.644531 526.894531 " clip-rule="nonzero"/></clipPath><clipPath id="056e83085a"><path d="M 1200.644531 479.367188 L 1248.925781 479.367188 L 1248.925781 527.644531 L 1200.644531 527.644531 Z M 1200.644531 479.367188 " clip-rule="nonzero"/></clipPath><clipPath id="7d158a449d"><path d="M 1200.644531 431.839844 L 1248.925781 431.839844 L 1248.925781 480.117188 L 1200.644531 480.117188 Z M 1200.644531 431.839844 " clip-rule="nonzero"/></clipPath><clipPath id="cadb8237c7"><path d="M 1248.453125 431.839844 L 1296.730469 431.839844 L 1296.730469 480.117188 L 1248.453125 480.117188 Z M 1248.453125 431.839844 " clip-rule="nonzero"/></clipPath><clipPath id="4797c6935e"><path d="M 1344.453125 431.839844 L 1392.730469 431.839844 L 1392.730469 480.117188 L 1344.453125 480.117188 Z M 1344.453125 431.839844 " clip-rule="nonzero"/></clipPath><clipPath id="29005713a1"><path d="M 1344.453125 526.894531 L 1392.730469 526.894531 L 1392.730469 575.175781 L 1344.453125 575.175781 Z M 1344.453125 526.894531 " clip-rule="nonzero"/></clipPath><clipPath id="4934941796"><path d="M 1344.453125 384.308594 L 1392.730469 384.308594 L 1392.730469 432.589844 L 1344.453125 432.589844 Z M 1344.453125 384.308594 " clip-rule="nonzero"/></clipPath><clipPath id="79dfe03413"><path d="M 1344.453125 338.195312 L 1392.730469 338.195312 L 1392.730469 386.476562 L 1344.453125 386.476562 Z M 1344.453125 338.195312 " clip-rule="nonzero"/></clipPath><clipPath id="d816474bb0"><path d="M 1344.453125 290.667969 L 1392.730469 290.667969 L 1392.730469 338.945312 L 1344.453125 338.945312 Z M 1344.453125 290.667969 " clip-rule="nonzero"/></clipPath><clipPath id="71173ca2e8"><path d="M 1296.175781 290.667969 L 1344.453125 290.667969 L 1344.453125 338.945312 L 1296.175781 338.945312 Z M 1296.175781 290.667969 " clip-rule="nonzero"/></clipPath><clipPath id="813eba0945"><path d="M 1248.453125 290.667969 L 1296.730469 290.667969 L 1296.730469 338.945312 L 1248.453125 338.945312 Z M 1248.453125 290.667969 " clip-rule="nonzero"/></clipPath><clipPath id="21775eeca6"><path d="M 1200.644531 290.667969 L 1248.925781 290.667969 L 1248.925781 338.945312 L 1200.644531 338.945312 Z M 1200.644531 290.667969 " clip-rule="nonzero"/></clipPath><clipPath id="9845397663"><path d="M 1152.925781 290.667969 L 1201.203125 290.667969 L 1201.203125 338.945312 L 1152.925781 338.945312 Z M 1152.925781 290.667969 " clip-rule="nonzero"/></clipPath><clipPath id="f6cd561955"><path d="M 1106.144531 290.667969 L 1154.425781 290.667969 L 1154.425781 338.945312 L 1106.144531 338.945312 Z M 1106.144531 290.667969 " clip-rule="nonzero"/></clipPath><clipPath id="be237f438b"><path d="M 1200.644531 384.308594 L 1248.925781 384.308594 L 1248.925781 432.589844 L 1200.644531 432.589844 Z M 1200.644531 384.308594 " clip-rule="nonzero"/></clipPath><clipPath id="b027fd4ba5"><path d="M 1106.144531 244.617188 L 1154.425781 244.617188 L 1154.425781 292.894531 L 1106.144531 292.894531 Z M 1106.144531 244.617188 " clip-rule="nonzero"/></clipPath><clipPath id="fd033e13c0"><path d="M 1106.144531 196.808594 L 1154.425781 196.808594 L 1154.425781 245.089844 L 1106.144531 245.089844 Z M 1106.144531 196.808594 " clip-rule="nonzero"/></clipPath><clipPath id="3b4771f7ae"><path d="M 1057.867188 196.808594 L 1106.144531 196.808594 L 1106.144531 245.089844 L 1057.867188 245.089844 Z M 1057.867188 196.808594 " clip-rule="nonzero"/></clipPath><clipPath id="7c47b01e45"><path d="M 962.339844 196.808594 L 1010.617188 196.808594 L 1010.617188 245.089844 L 962.339844 245.089844 Z M 962.339844 196.808594 " clip-rule="nonzero"/></clipPath><clipPath id="5a1d224bc9"><path d="M 914.53125 196.808594 L 962.808594 196.808594 L 962.808594 245.089844 L 914.53125 245.089844 Z M 914.53125 196.808594 " clip-rule="nonzero"/></clipPath><clipPath id="66f151bddb"><path d="M 1009.867188 196.808594 L 1058.144531 196.808594 L 1058.144531 245.089844 L 1009.867188 245.089844 Z M 1009.867188 196.808594 " clip-rule="nonzero"/></clipPath><clipPath id="2863602a89"><path d="M 914.53125 101.753906 L 962.808594 101.753906 L 962.808594 150.03125 L 914.53125 150.03125 Z M 914.53125 101.753906 " clip-rule="nonzero"/></clipPath><clipPath id="3561324d1e"><path d="M 914.53125 149.28125 L 962.808594 149.28125 L 962.808594 197.558594 L 914.53125 197.558594 Z M 914.53125 149.28125 " clip-rule="nonzero"/></clipPath><clipPath id="3b5283fdc9"><path d="M 962.339844 101.753906 L 1010.617188 101.753906 L 1010.617188 150.03125 L 962.339844 150.03125 Z M 962.339844 101.753906 " clip-rule="nonzero"/></clipPath><clipPath id="bcdd10e0fb"><path d="M 1009.867188 101.753906 L 1058.144531 101.753906 L 1058.144531 150.03125 L 1009.867188 150.03125 Z M 1009.867188 101.753906 " clip-rule="nonzero"/></clipPath><clipPath id="dc2fe589c3"><path d="M 1057.867188 101.753906 L 1106.144531 101.753906 L 1106.144531 150.03125 L 1057.867188 150.03125 Z M 1057.867188 101.753906 " clip-rule="nonzero"/></clipPath><clipPath id="b81e8fbbbd"><path d="M 1106.144531 101.753906 L 1154.425781 101.753906 L 1154.425781 150.03125 L 1106.144531 150.03125 Z M 1106.144531 101.753906 " clip-rule="nonzero"/></clipPath><clipPath id="9ed0d59a24"><path d="M 1152.925781 101.753906 L 1201.203125 101.753906 L 1201.203125 150.03125 L 1152.925781 150.03125 Z M 1152.925781 101.753906 " clip-rule="nonzero"/></clipPath><clipPath id="78f5455e0a"><path d="M 1200.644531 101.753906 L 1248.925781 101.753906 L 1248.925781 150.03125 L 1200.644531 150.03125 Z M 1200.644531 101.753906 " clip-rule="nonzero"/></clipPath><clipPath id="2182240f19"><path d="M 1200.644531 149.28125 L 1248.925781 149.28125 L 1248.925781 197.558594 L 1200.644531 197.558594 Z M 1200.644531 149.28125 " clip-rule="nonzero"/></clipPath><clipPath id="c79ffe13e4"><path d="M 1200.644531 196.808594 L 1248.925781 196.808594 L 1248.925781 245.089844 L 1200.644531 245.089844 Z M 1200.644531 196.808594 " clip-rule="nonzero"/></clipPath><clipPath id="192e4ff04c"><path d="M 1248.453125 196.808594 L 1296.730469 196.808594 L 1296.730469 245.089844 L 1248.453125 245.089844 Z M 1248.453125 196.808594 " clip-rule="nonzero"/></clipPath><clipPath id="19ff04f269"><path d="M 1296.175781 196.808594 L 1344.453125 196.808594 L 1344.453125 245.089844 L 1296.175781 245.089844 Z M 1296.175781 196.808594 " clip-rule="nonzero"/></clipPath><clipPath id="324beba889"><path d="M 1344.453125 196.808594 L 1392.730469 196.808594 L 1392.730469 245.089844 L 1344.453125 245.089844 Z M 1344.453125 196.808594 " clip-rule="nonzero"/></clipPath><clipPath id="9b2bcbde00"><path d="M 1344.453125 149.28125 L 1392.730469 149.28125 L 1392.730469 197.558594 L 1344.453125 197.558594 Z M 1344.453125 149.28125 " clip-rule="nonzero"/></clipPath><clipPath id="61c84dfda3"><path d="M 1344.453125 101.753906 L 1392.730469 101.753906 L 1392.730469 150.03125 L 1344.453125 150.03125 Z M 1344.453125 101.753906 " clip-rule="nonzero"/></clipPath><clipPath id="72f633768f"><path d="M 1296.175781 101.753906 L 1344.453125 101.753906 L 1344.453125 150.03125 L 1296.175781 150.03125 Z M 1296.175781 101.753906 " clip-rule="nonzero"/></clipPath><clipPath id="3e64f81a9b"><path d="M 1296.175781 54.226562 L 1344.453125 54.226562 L 1344.453125 102.503906 L 1296.175781 102.503906 Z M 1296.175781 54.226562 " clip-rule="nonzero"/></clipPath><clipPath id="ab21988b16"><path d="M 1296.175781 6.976562 L 1344.453125 6.976562 L 1344.453125 55.253906 L 1296.175781 55.253906 Z M 1296.175781 6.976562 " clip-rule="nonzero"/></clipPath><clipPath id="cbdddc7eef"><path d="M 1248.453125 6.976562 L 1296.730469 6.976562 L 1296.730469 55.253906 L 1248.453125 55.253906 Z M 1248.453125 6.976562 " clip-rule="nonzero"/></clipPath><clipPath id="dc4cafb74e"><path d="M 1200.644531 6.976562 L 1248.925781 6.976562 L 1248.925781 55.253906 L 1200.644531 55.253906 Z M 1200.644531 6.976562 " clip-rule="nonzero"/></clipPath><clipPath id="69ca8efd7b"><path d="M 1152.925781 6.976562 L 1201.203125 6.976562 L 1201.203125 55.253906 L 1152.925781 55.253906 Z M 1152.925781 6.976562 " clip-rule="nonzero"/></clipPath><clipPath id="b56b346b09"><path d="M 1106.144531 6.976562 L 1154.425781 6.976562 L 1154.425781 55.253906 L 1106.144531 55.253906 Z M 1106.144531 6.976562 " clip-rule="nonzero"/></clipPath><clipPath id="db118a20c9"><path d="M 1057.867188 6.976562 L 1106.144531 6.976562 L 1106.144531 55.253906 L 1057.867188 55.253906 Z M 1057.867188 6.976562 " clip-rule="nonzero"/></clipPath><clipPath id="c3ddfbe180"><path d="M 1009.867188 6.976562 L 1058.144531 6.976562 L 1058.144531 55.253906 L 1009.867188 55.253906 Z M 1009.867188 6.976562 " clip-rule="nonzero"/></clipPath><clipPath id="99d1df5f04"><path d="M 962.339844 6.976562 L 1010.617188 6.976562 L 1010.617188 55.253906 L 962.339844 55.253906 Z M 962.339844 6.976562 " clip-rule="nonzero"/></clipPath><clipPath id="ec04faa4d7"><path d="M 914.53125 6.976562 L 962.808594 6.976562 L 962.808594 55.253906 L 914.53125 55.253906 Z M 914.53125 6.976562 " clip-rule="nonzero"/></clipPath><clipPath id="68e94b7066"><path d="M 866.53125 6.976562 L 914.808594 6.976562 L 914.808594 55.253906 L 866.53125 55.253906 Z M 866.53125 6.976562 " clip-rule="nonzero"/></clipPath><clipPath id="c1769da457"><path d="M 819.003906 6.976562 L 867.28125 6.976562 L 867.28125 55.253906 L 819.003906 55.253906 Z M 819.003906 6.976562 " clip-rule="nonzero"/></clipPath><clipPath id="05f3f12d2d"><path d="M 819.003906 54.226562 L 867.28125 54.226562 L 867.28125 102.503906 L 819.003906 102.503906 Z M 819.003906 54.226562 " clip-rule="nonzero"/></clipPath><clipPath id="b8a091e8b7"><path d="M 771.753906 54.226562 L 820.03125 54.226562 L 820.03125 102.503906 L 771.753906 102.503906 Z M 771.753906 54.226562 " clip-rule="nonzero"/></clipPath><clipPath id="0e22c78211"><path d="M 724.226562 54.226562 L 772.503906 54.226562 L 772.503906 102.503906 L 724.226562 102.503906 Z M 724.226562 54.226562 " clip-rule="nonzero"/></clipPath><clipPath id="b5f5ed37f8"><path d="M 676.695312 54.226562 L 724.976562 54.226562 L 724.976562 102.503906 L 676.695312 102.503906 Z M 676.695312 54.226562 " clip-rule="nonzero"/></clipPath><clipPath id="0dfaa66fba"><path d="M 629.167969 54.226562 L 677.445312 54.226562 L 677.445312 102.503906 L 629.167969 102.503906 Z M 629.167969 54.226562 " clip-rule="nonzero"/></clipPath><clipPath id="9d4102fc71"><path d="M 629.167969 101.753906 L 677.445312 101.753906 L 677.445312 150.03125 L 629.167969 150.03125 Z M 629.167969 101.753906 " clip-rule="nonzero"/></clipPath><clipPath id="9add4b42d1"><path d="M 581.640625 101.753906 L 629.917969 101.753906 L 629.917969 150.03125 L 581.640625 150.03125 Z M 581.640625 101.753906 " clip-rule="nonzero"/></clipPath><clipPath id="5e620018fb"><path d="M 537.390625 101.753906 L 585.667969 101.753906 L 585.667969 150.03125 L 537.390625 150.03125 Z M 537.390625 101.753906 " clip-rule="nonzero"/></clipPath><clipPath id="39014a44e4"><path d="M 537.390625 54.226562 L 585.667969 54.226562 L 585.667969 102.503906 L 537.390625 102.503906 Z M 537.390625 54.226562 " clip-rule="nonzero"/></clipPath><clipPath id="455d5f7f14"><path d="M 537.390625 6.976562 L 585.667969 6.976562 L 585.667969 55.253906 L 537.390625 55.253906 Z M 537.390625 6.976562 " clip-rule="nonzero"/></clipPath><clipPath id="969a0e07a3"><path d="M 489.859375 6.976562 L 538.140625 6.976562 L 538.140625 55.253906 L 489.859375 55.253906 Z M 489.859375 6.976562 " clip-rule="nonzero"/></clipPath><clipPath id="b010e4766c"><path d="M 442.609375 6.976562 L 490.890625 6.976562 L 490.890625 55.253906 L 442.609375 55.253906 Z M 442.609375 6.976562 " clip-rule="nonzero"/></clipPath><clipPath id="24f8de5d64"><path d="M 395.082031 6.976562 L 443.359375 6.976562 L 443.359375 55.253906 L 395.082031 55.253906 Z M 395.082031 6.976562 " clip-rule="nonzero"/></clipPath><clipPath id="32ab75015e"><path d="M 346.804688 6.976562 L 395.082031 6.976562 L 395.082031 55.253906 L 346.804688 55.253906 Z M 346.804688 6.976562 " clip-rule="nonzero"/></clipPath><clipPath id="6d3373ef0b"><path d="M 346.804688 54.226562 L 395.082031 54.226562 L 395.082031 102.503906 L 346.804688 102.503906 Z M 346.804688 54.226562 " clip-rule="nonzero"/></clipPath><clipPath id="153bc27e72"><path d="M 346.804688 101.753906 L 395.082031 101.753906 L 395.082031 150.03125 L 346.804688 150.03125 Z M 346.804688 101.753906 " clip-rule="nonzero"/></clipPath><clipPath id="ba6aacedc9"><path d="M 395.082031 101.753906 L 443.359375 101.753906 L 443.359375 150.03125 L 395.082031 150.03125 Z M 395.082031 101.753906 " clip-rule="nonzero"/></clipPath><clipPath id="0dacd80737"><path d="M 442.609375 101.753906 L 490.890625 101.753906 L 490.890625 150.03125 L 442.609375 150.03125 Z M 442.609375 101.753906 " clip-rule="nonzero"/></clipPath><clipPath id="bb972cdb5c"><path d="M 442.609375 149.28125 L 490.890625 149.28125 L 490.890625 197.558594 L 442.609375 197.558594 Z M 442.609375 149.28125 " clip-rule="nonzero"/></clipPath><clipPath id="17478b0aa2"><path d="M 442.609375 196.808594 L 490.890625 196.808594 L 490.890625 245.089844 L 442.609375 245.089844 Z M 442.609375 196.808594 " clip-rule="nonzero"/></clipPath><clipPath id="e8a5144379"><path d="M 395.082031 196.808594 L 443.359375 196.808594 L 443.359375 245.089844 L 395.082031 245.089844 Z M 395.082031 196.808594 " clip-rule="nonzero"/></clipPath><clipPath id="bd34e96d49"><path d="M 346.804688 196.808594 L 395.082031 196.808594 L 395.082031 245.089844 L 346.804688 245.089844 Z M 346.804688 196.808594 " clip-rule="nonzero"/></clipPath><clipPath id="795a6d41fb"><path d="M 298.527344 196.808594 L 346.804688 196.808594 L 346.804688 245.089844 L 298.527344 245.089844 Z M 298.527344 196.808594 " clip-rule="nonzero"/></clipPath><clipPath id="3a82ecce79"><path d="M 250.996094 196.808594 L 299.277344 196.808594 L 299.277344 245.089844 L 250.996094 245.089844 Z M 250.996094 196.808594 " clip-rule="nonzero"/></clipPath><clipPath id="d9527ab481"><path d="M 250.996094 149.28125 L 299.277344 149.28125 L 299.277344 197.558594 L 250.996094 197.558594 Z M 250.996094 149.28125 " clip-rule="nonzero"/></clipPath><clipPath id="bbd3542cc7"><path d="M 250.996094 101.753906 L 299.277344 101.753906 L 299.277344 150.03125 L 250.996094 150.03125 Z M 250.996094 101.753906 " clip-rule="nonzero"/></clipPath><clipPath id="0025573bd3"><path d="M 250.996094 54.226562 L 299.277344 54.226562 L 299.277344 102.503906 L 250.996094 102.503906 Z M 250.996094 54.226562 " clip-rule="nonzero"/></clipPath><clipPath id="df39985fd0"><path d="M 202.71875 54.226562 L 250.996094 54.226562 L 250.996094 102.503906 L 202.71875 102.503906 Z M 202.71875 54.226562 " clip-rule="nonzero"/></clipPath><clipPath id="1f10e056dc"><path d="M 154.71875 54.226562 L 202.996094 54.226562 L 202.996094 102.503906 L 154.71875 102.503906 Z M 154.71875 54.226562 " clip-rule="nonzero"/></clipPath><clipPath id="a702364e8a"><path d="M 112.910156 54.226562 L 161.191406 54.226562 L 161.191406 102.503906 L 112.910156 102.503906 Z M 112.910156 54.226562 " clip-rule="nonzero"/></clipPath><clipPath id="026e544027"><path d="M 17.855469 54.226562 L 66.132812 54.226562 L 66.132812 102.503906 L 17.855469 102.503906 Z M 17.855469 54.226562 " clip-rule="nonzero"/></clipPath><clipPath id="85546d09a9"><path d="M 17.855469 101.753906 L 66.132812 101.753906 L 66.132812 150.03125 L 17.855469 150.03125 Z M 17.855469 101.753906 " clip-rule="nonzero"/></clipPath><clipPath id="af21fe2651"><path d="M 17.855469 149.28125 L 66.132812 149.28125 L 66.132812 197.558594 L 17.855469 197.558594 Z M 17.855469 149.28125 " clip-rule="nonzero"/></clipPath><clipPath id="608b4b970d"><path d="M 17.855469 196.808594 L 66.132812 196.808594 L 66.132812 245.089844 L 17.855469 245.089844 Z M 17.855469 196.808594 " clip-rule="nonzero"/></clipPath><clipPath id="1e31210008"><path d="M 65.382812 196.808594 L 113.660156 196.808594 L 113.660156 245.089844 L 65.382812 245.089844 Z M 65.382812 196.808594 " clip-rule="nonzero"/></clipPath><clipPath id="6f14bfb0e6"><path d="M 112.910156 196.808594 L 161.191406 196.808594 L 161.191406 245.089844 L 112.910156 245.089844 Z M 112.910156 196.808594 " clip-rule="nonzero"/></clipPath><clipPath id="2530bf4b57"><path d="M 112.910156 149.28125 L 161.191406 149.28125 L 161.191406 197.558594 L 112.910156 197.558594 Z M 112.910156 149.28125 " clip-rule="nonzero"/></clipPath><clipPath id="c333e698de"><path d="M 112.910156 244.617188 L 161.191406 244.617188 L 161.191406 292.894531 L 112.910156 292.894531 Z M 112.910156 244.617188 " clip-rule="nonzero"/></clipPath><clipPath id="d091e7d90a"><path d="M 154.71875 149.28125 L 202.996094 149.28125 L 202.996094 197.558594 L 154.71875 197.558594 Z M 154.71875 149.28125 " clip-rule="nonzero"/></clipPath><clipPath id="2fef167cbd"><path d="M 250.996094 290.667969 L 299.277344 290.667969 L 299.277344 338.945312 L 250.996094 338.945312 Z M 250.996094 290.667969 " clip-rule="nonzero"/></clipPath><clipPath id="9f5e113d7e"><path d="M 202.71875 290.667969 L 250.996094 290.667969 L 250.996094 338.945312 L 202.71875 338.945312 Z M 202.71875 290.667969 " clip-rule="nonzero"/></clipPath><clipPath id="c70427376d"><path d="M 298.527344 290.667969 L 346.804688 290.667969 L 346.804688 338.945312 L 298.527344 338.945312 Z M 298.527344 290.667969 " clip-rule="nonzero"/></clipPath><clipPath id="b22057e7fb"><path d="M 346.804688 290.667969 L 395.082031 290.667969 L 395.082031 338.945312 L 346.804688 338.945312 Z M 346.804688 290.667969 " clip-rule="nonzero"/></clipPath><clipPath id="90e7986fa7"><path d="M 395.082031 290.667969 L 443.359375 290.667969 L 443.359375 338.945312 L 395.082031 338.945312 Z M 395.082031 290.667969 " clip-rule="nonzero"/></clipPath><clipPath id="2c2a862858"><path d="M 442.609375 290.667969 L 490.890625 290.667969 L 490.890625 338.945312 L 442.609375 338.945312 Z M 442.609375 290.667969 " clip-rule="nonzero"/></clipPath><clipPath id="ad6624d556"><path d="M 442.609375 338.195312 L 490.890625 338.195312 L 490.890625 386.476562 L 442.609375 386.476562 Z M 442.609375 338.195312 " clip-rule="nonzero"/></clipPath><clipPath id="b8ecad77da"><path d="M 489.859375 338.195312 L 538.140625 338.195312 L 538.140625 386.476562 L 489.859375 386.476562 Z M 489.859375 338.195312 " clip-rule="nonzero"/></clipPath><clipPath id="2e7fcd3c59"><path d="M 489.859375 384.308594 L 538.140625 384.308594 L 538.140625 432.589844 L 489.859375 432.589844 Z M 489.859375 384.308594 " clip-rule="nonzero"/></clipPath><clipPath id="430fdfade0"><path d="M 489.859375 431.839844 L 538.140625 431.839844 L 538.140625 480.117188 L 489.859375 480.117188 Z M 489.859375 431.839844 " clip-rule="nonzero"/></clipPath><clipPath id="aec3158c59"><path d="M 489.859375 479.367188 L 538.140625 479.367188 L 538.140625 527.644531 L 489.859375 527.644531 Z M 489.859375 479.367188 " clip-rule="nonzero"/></clipPath><clipPath id="f2a3b05436"><path d="M 489.859375 526.894531 L 538.140625 526.894531 L 538.140625 575.175781 L 489.859375 575.175781 Z M 489.859375 526.894531 " clip-rule="nonzero"/></clipPath><clipPath id="b656e06446"><path d="M 489.859375 574.339844 L 538.140625 574.339844 L 538.140625 622.617188 L 489.859375 622.617188 Z M 489.859375 574.339844 " clip-rule="nonzero"/></clipPath><clipPath id="e5ddf41535"><path d="M 489.859375 621.867188 L 538.140625 621.867188 L 538.140625 670.144531 L 489.859375 670.144531 Z M 489.859375 621.867188 " clip-rule="nonzero"/></clipPath><clipPath id="b5e233b119"><path d="M 489.859375 670.058594 L 538.140625 670.058594 L 538.140625 718.339844 L 489.859375 718.339844 Z M 489.859375 670.058594 " clip-rule="nonzero"/></clipPath><clipPath id="6cb07f2c6d"><path d="M 537.390625 670.058594 L 585.667969 670.058594 L 585.667969 718.339844 L 537.390625 718.339844 Z M 537.390625 670.058594 " clip-rule="nonzero"/></clipPath><clipPath id="decaa22da0"><path d="M 581.640625 670.058594 L 629.917969 670.058594 L 629.917969 718.339844 L 581.640625 718.339844 Z M 581.640625 670.058594 " clip-rule="nonzero"/></clipPath><clipPath id="f6ee369ad3"><path d="M 629.167969 670.058594 L 677.445312 670.058594 L 677.445312 718.339844 L 629.167969 718.339844 Z M 629.167969 670.058594 " clip-rule="nonzero"/></clipPath><clipPath id="4cc3803f44"><path d="M 676.695312 670.058594 L 724.976562 670.058594 L 724.976562 718.339844 L 676.695312 718.339844 Z M 676.695312 670.058594 " clip-rule="nonzero"/></clipPath><clipPath id="6373bd0e22"><path d="M 724.226562 670.058594 L 772.503906 670.058594 L 772.503906 718.339844 L 724.226562 718.339844 Z M 724.226562 670.058594 " clip-rule="nonzero"/></clipPath><clipPath id="54e68101a4"><path d="M 771.753906 670.058594 L 820.03125 670.058594 L 820.03125 718.339844 L 771.753906 718.339844 Z M 771.753906 670.058594 " clip-rule="nonzero"/></clipPath><clipPath id="0f50b845de"><path d="M 819.003906 670.058594 L 867.28125 670.058594 L 867.28125 718.339844 L 819.003906 718.339844 Z M 819.003906 670.058594 " clip-rule="nonzero"/></clipPath><clipPath id="d9d0faa124"><path d="M 866.53125 670.058594 L 914.808594 670.058594 L 914.808594 718.339844 L 866.53125 718.339844 Z M 866.53125 670.058594 " clip-rule="nonzero"/></clipPath><clipPath id="df0ccd59d7"><path d="M 866.53125 717.503906 L 914.808594 717.503906 L 914.808594 765.78125 L 866.53125 765.78125 Z M 866.53125 717.503906 " clip-rule="nonzero"/></clipPath><clipPath id="f0b66670e1"><path d="M 866.53125 765.03125 L 914.808594 765.03125 L 914.808594 810 L 866.53125 810 Z M 866.53125 765.03125 " clip-rule="nonzero"/></clipPath><clipPath id="3a781849ca"><path d="M 112.910156 290.667969 L 161.191406 290.667969 L 161.191406 338.945312 L 112.910156 338.945312 Z M 112.910156 290.667969 " clip-rule="nonzero"/></clipPath><clipPath id="c081109f8e"><path d="M 112.910156 338.195312 L 161.191406 338.195312 L 161.191406 386.476562 L 112.910156 386.476562 Z M 112.910156 338.195312 " clip-rule="nonzero"/></clipPath><clipPath id="b057665750"><path d="M 65.382812 338.195312 L 113.660156 338.195312 L 113.660156 386.476562 L 65.382812 386.476562 Z M 65.382812 338.195312 " clip-rule="nonzero"/></clipPath><clipPath id="f4babcc61e"><path d="M 17.855469 338.195312 L 66.132812 338.195312 L 66.132812 386.476562 L 17.855469 386.476562 Z M 17.855469 338.195312 " clip-rule="nonzero"/></clipPath><clipPath id="20e209c00c"><path d="M 17.855469 384.308594 L 66.132812 384.308594 L 66.132812 432.589844 L 17.855469 432.589844 Z M 17.855469 384.308594 " clip-rule="nonzero"/></clipPath><clipPath id="ff27b93340"><path d="M 17.855469 431.839844 L 66.132812 431.839844 L 66.132812 480.117188 L 17.855469 480.117188 Z M 17.855469 431.839844 " clip-rule="nonzero"/></clipPath><clipPath id="ef8e692cb7"><path d="M 17.855469 479.367188 L 66.132812 479.367188 L 66.132812 527.644531 L 17.855469 527.644531 Z M 17.855469 479.367188 " clip-rule="nonzero"/></clipPath><clipPath id="5a3d3f9e35"><path d="M 65.382812 479.367188 L 113.660156 479.367188 L 113.660156 527.644531 L 65.382812 527.644531 Z M 65.382812 479.367188 " clip-rule="nonzero"/></clipPath><clipPath id="25ecc4a2a5"><path d="M 112.910156 479.367188 L 161.191406 479.367188 L 161.191406 527.644531 L 112.910156 527.644531 Z M 112.910156 479.367188 " clip-rule="nonzero"/></clipPath><clipPath id="0d854814e4"><path d="M 112.910156 431.839844 L 161.191406 431.839844 L 161.191406 480.117188 L 112.910156 480.117188 Z M 112.910156 431.839844 " clip-rule="nonzero"/></clipPath><clipPath id="80d84736e7"><path d="M 154.71875 431.839844 L 202.996094 431.839844 L 202.996094 480.117188 L 154.71875 480.117188 Z M 154.71875 431.839844 " clip-rule="nonzero"/></clipPath><clipPath id="887e0790b6"><path d="M 202.71875 431.839844 L 250.996094 431.839844 L 250.996094 480.117188 L 202.71875 480.117188 Z M 202.71875 431.839844 " clip-rule="nonzero"/></clipPath><clipPath id="d688a0dca0"><path d="M 202.71875 384.308594 L 250.996094 384.308594 L 250.996094 432.589844 L 202.71875 432.589844 Z M 202.71875 384.308594 " clip-rule="nonzero"/></clipPath><clipPath id="711aaf7080"><path d="M 250.996094 384.308594 L 299.277344 384.308594 L 299.277344 432.589844 L 250.996094 432.589844 Z M 250.996094 384.308594 " clip-rule="nonzero"/></clipPath><clipPath id="725db27ea7"><path d="M 298.527344 384.308594 L 346.804688 384.308594 L 346.804688 432.589844 L 298.527344 432.589844 Z M 298.527344 384.308594 " clip-rule="nonzero"/></clipPath><clipPath id="688b384dd9"><path d="M 346.804688 384.308594 L 395.082031 384.308594 L 395.082031 432.589844 L 346.804688 432.589844 Z M 346.804688 384.308594 " clip-rule="nonzero"/></clipPath><clipPath id="8740ce4889"><path d="M 346.804688 431.839844 L 395.082031 431.839844 L 395.082031 480.117188 L 346.804688 480.117188 Z M 346.804688 431.839844 " clip-rule="nonzero"/></clipPath><clipPath id="95b5afe2d8"><path d="M 298.527344 479.367188 L 346.804688 479.367188 L 346.804688 527.644531 L 298.527344 527.644531 Z M 298.527344 479.367188 " clip-rule="nonzero"/></clipPath><clipPath id="a6e9dfc833"><path d="M 346.804688 479.367188 L 395.082031 479.367188 L 395.082031 527.644531 L 346.804688 527.644531 Z M 346.804688 479.367188 " clip-rule="nonzero"/></clipPath><clipPath id="fc579ed6a3"><path d="M 298.527344 526.894531 L 346.804688 526.894531 L 346.804688 575.175781 L 298.527344 575.175781 Z M 298.527344 526.894531 " clip-rule="nonzero"/></clipPath><clipPath id="e3f512858f"><path d="M 298.527344 574.339844 L 346.804688 574.339844 L 346.804688 622.617188 L 298.527344 622.617188 Z M 298.527344 574.339844 " clip-rule="nonzero"/></clipPath><clipPath id="2131129176"><path d="M 346.804688 574.339844 L 395.082031 574.339844 L 395.082031 622.617188 L 346.804688 622.617188 Z M 346.804688 574.339844 " clip-rule="nonzero"/></clipPath><clipPath id="7e45566574"><path d="M 395.082031 574.339844 L 443.359375 574.339844 L 443.359375 622.617188 L 395.082031 622.617188 Z M 395.082031 574.339844 " clip-rule="nonzero"/></clipPath><clipPath id="ec6bb602a6"><path d="M 395.082031 431.839844 L 443.359375 431.839844 L 443.359375 480.117188 L 395.082031 480.117188 Z M 395.082031 431.839844 " clip-rule="nonzero"/></clipPath><clipPath id="800927c0b4"><path d="M 395.082031 479.367188 L 443.359375 479.367188 L 443.359375 527.644531 L 395.082031 527.644531 Z M 395.082031 479.367188 " clip-rule="nonzero"/></clipPath><clipPath id="5bdcf86c61"><path d="M 489.859375 717.503906 L 538.140625 717.503906 L 538.140625 765.78125 L 489.859375 765.78125 Z M 489.859375 717.503906 " clip-rule="nonzero"/></clipPath><clipPath id="cafd56111f"><path d="M 442.609375 574.339844 L 490.890625 574.339844 L 490.890625 622.617188 L 442.609375 622.617188 Z M 442.609375 574.339844 " clip-rule="nonzero"/></clipPath><clipPath id="17cfdad72d"><path d="M 17.855469 6.976562 L 66.132812 6.976562 L 66.132812 55.253906 L 17.855469 55.253906 Z M 17.855469 6.976562 " clip-rule="nonzero"/></clipPath><clipPath id="5a908ab971"><path d="M 17.855469 0 L 66.132812 0 L 66.132812 7.746094 L 17.855469 7.746094 Z M 17.855469 0 " clip-rule="nonzero"/></clipPath><clipPath id="88fdfb98ec"><path d="M 65.382812 526.894531 L 113.660156 526.894531 L 113.660156 575.175781 L 65.382812 575.175781 Z M 65.382812 526.894531 " clip-rule="nonzero"/></clipPath><clipPath id="07c339c004"><path d="M 65.382812 574.339844 L 113.660156 574.339844 L 113.660156 622.617188 L 65.382812 622.617188 Z M 65.382812 574.339844 " clip-rule="nonzero"/></clipPath><clipPath id="2d56deef31"><path d="M 65.382812 621.867188 L 113.660156 621.867188 L 113.660156 670.144531 L 65.382812 670.144531 Z M 65.382812 621.867188 " clip-rule="nonzero"/></clipPath><clipPath id="3d32d52b3d"><path d="M 65.382812 670.058594 L 113.660156 670.058594 L 113.660156 718.339844 L 65.382812 718.339844 Z M 65.382812 670.058594 " clip-rule="nonzero"/></clipPath><clipPath id="6cda88c676"><path d="M 65.382812 717.503906 L 113.660156 717.503906 L 113.660156 765.78125 L 65.382812 765.78125 Z M 65.382812 717.503906 " clip-rule="nonzero"/></clipPath><clipPath id="552f0f0634"><path d="M 65.382812 765.03125 L 113.660156 765.03125 L 113.660156 810 L 65.382812 810 Z M 65.382812 765.03125 " clip-rule="nonzero"/></clipPath><clipPath id="238054cee2"><path d="M 112.910156 717.503906 L 161.191406 717.503906 L 161.191406 765.78125 L 112.910156 765.78125 Z M 112.910156 717.503906 " clip-rule="nonzero"/></clipPath><clipPath id="41e552cfd1"><path d="M 154.71875 717.503906 L 202.996094 717.503906 L 202.996094 765.78125 L 154.71875 765.78125 Z M 154.71875 717.503906 " clip-rule="nonzero"/></clipPath><clipPath id="5fcc0fcf76"><path d="M 202.71875 717.503906 L 250.996094 717.503906 L 250.996094 765.78125 L 202.71875 765.78125 Z M 202.71875 717.503906 " clip-rule="nonzero"/></clipPath><clipPath id="ebcd3d1455"><path d="M 250.996094 717.503906 L 299.277344 717.503906 L 299.277344 765.78125 L 250.996094 765.78125 Z M 250.996094 717.503906 " clip-rule="nonzero"/></clipPath><clipPath id="24a4ba9ce6"><path d="M 298.527344 717.503906 L 346.804688 717.503906 L 346.804688 765.78125 L 298.527344 765.78125 Z M 298.527344 717.503906 " clip-rule="nonzero"/></clipPath><clipPath id="a12f5c9c0c"><path d="M 298.527344 621.867188 L 346.804688 621.867188 L 346.804688 670.144531 L 298.527344 670.144531 Z M 298.527344 621.867188 " clip-rule="nonzero"/></clipPath><clipPath id="607d861c51"><path d="M 250.996094 621.867188 L 299.277344 621.867188 L 299.277344 670.144531 L 250.996094 670.144531 Z M 250.996094 621.867188 " clip-rule="nonzero"/></clipPath><clipPath id="7f470beb74"><path d="M 202.71875 621.867188 L 250.996094 621.867188 L 250.996094 670.144531 L 202.71875 670.144531 Z M 202.71875 621.867188 " clip-rule="nonzero"/></clipPath><clipPath id="2180fbd2f4"><path d="M 154.71875 621.867188 L 202.996094 621.867188 L 202.996094 670.144531 L 154.71875 670.144531 Z M 154.71875 621.867188 " clip-rule="nonzero"/></clipPath><clipPath id="bb376c1bd4"><path d="M 154.71875 574.339844 L 202.996094 574.339844 L 202.996094 622.617188 L 154.71875 622.617188 Z M 154.71875 574.339844 " clip-rule="nonzero"/></clipPath><clipPath id="06ac5020eb"><path d="M 202.71875 526.894531 L 250.996094 526.894531 L 250.996094 575.175781 L 202.71875 575.175781 Z M 202.71875 526.894531 " clip-rule="nonzero"/></clipPath><clipPath id="011283623f"><path d="M 202.71875 574.339844 L 250.996094 574.339844 L 250.996094 622.617188 L 202.71875 622.617188 Z M 202.71875 574.339844 " clip-rule="nonzero"/></clipPath><clipPath id="a737d1ed14"><path d="M 395.082031 621.867188 L 443.359375 621.867188 L 443.359375 670.144531 L 395.082031 670.144531 Z M 395.082031 621.867188 " clip-rule="nonzero"/></clipPath><clipPath id="992d7c9326"><path d="M 395.082031 670.058594 L 443.359375 670.058594 L 443.359375 718.339844 L 395.082031 718.339844 Z M 395.082031 670.058594 " clip-rule="nonzero"/></clipPath><clipPath id="537f1ba269"><path d="M 395.082031 717.503906 L 443.359375 717.503906 L 443.359375 765.78125 L 395.082031 765.78125 Z M 395.082031 717.503906 " clip-rule="nonzero"/></clipPath></defs><rect x="-144" width="1728" fill="#ffffff" y="-80.999999" height="971.999992" fill-opacity="1"/><rect x="-144" width="1728" fill="#ffffff" y="-80.999999" height="971.999992" fill-opacity="1"/><path fill="#401111" d="M 0 -40.5 L 1438.539062 -40.5 L 1438.539062 810 L 0 810 Z M 0 -40.5 " fill-opacity="1" fill-rule="nonzero"/><g clip-path="url(#9cf8f5adce)"><path fill="#000000" d="M 724.226562 149.28125 L 772.503906 149.28125 L 772.503906 197.558594 L 724.226562 197.558594 Z M 724.226562 149.28125 " fill-opacity="1" fill-rule="nonzero"/></g><g clip-path="url(#6529a31eeb)"><path fill="#000000" d="M 581.640625 196.808594 L 629.917969 196.808594 L 629.917969 245.089844 L 581.640625 245.089844 Z M 581.640625 196.808594 " fill-opacity="1" fill-rule="nonzero"/></g><g clip-path="url(#93ae19e2e2)"><path fill="#000000" d="M 629.167969 196.808594 L 677.445312 196.808594 L 677.445312 245.089844 L 629.167969 245.089844 Z M 629.167969 196.808594 " fill-opacity="1" fill-rule="nonzero"/></g><g clip-path="url(#1de73bbb64)"><path fill="#000000" d="M 537.390625 244.617188 L 585.667969 244.617188 L 585.667969 292.894531 L 537.390625 292.894531 Z M 537.390625 244.617188 " fill-opacity="1" fill-rule="nonzero"/></g><g clip-path="url(#d943b6a8f1)"><path fill="#000000" d="M 676.695312 196.808594 L 724.976562 196.808594 L 724.976562 245.089844 L 676.695312 245.089844 Z M 676.695312 196.808594 " fill-opacity="1" fill-rule="nonzero"/></g><g clip-path="url(#c04a4b0815)"><path fill="#000000" d="M 771.753906 149.28125 L 820.03125 149.28125 L 820.03125 197.558594 L 771.753906 197.558594 Z M 771.753906 149.28125 " fill-opacity="1" fill-rule="nonzero"/></g><g clip-path="url(#3ceb8aedf8)"><path fill="#000000" d="M 581.640625 244.617188 L 629.917969 244.617188 L 629.917969 292.894531 L 581.640625 292.894531 Z M 581.640625 244.617188 " fill-opacity="1" fill-rule="nonzero"/></g><g clip-path="url(#2683ab7e03)"><path fill="#000000" d="M 724.226562 290.667969 L 772.503906 290.667969 L 772.503906 338.945312 L 724.226562 338.945312 Z M 724.226562 290.667969 " fill-opacity="1" fill-rule="nonzero"/></g><g clip-path="url(#998fd32249)"><path fill="#000000" d="M 676.695312 338.195312 L 724.976562 338.195312 L 724.976562 386.476562 L 676.695312 386.476562 Z M 676.695312 338.195312 " fill-opacity="1" fill-rule="nonzero"/></g><g clip-path="url(#2f64bf758a)"><path fill="#000000" d="M 676.695312 290.667969 L 724.976562 290.667969 L 724.976562 338.945312 L 676.695312 338.945312 Z M 676.695312 290.667969 " fill-opacity="1" fill-rule="nonzero"/></g><g clip-path="url(#8fa5183e59)"><path fill="#000000" d="M 819.003906 149.28125 L 867.28125 149.28125 L 867.28125 197.558594 L 819.003906 197.558594 Z M 819.003906 149.28125 " fill-opacity="1" fill-rule="nonzero"/></g><g clip-path="url(#dd0838a2e7)"><path fill="#000000" d="M 819.003906 244.617188 L 867.28125 244.617188 L 867.28125 292.894531 L 819.003906 292.894531 Z M 819.003906 244.617188 " fill-opacity="1" fill-rule="nonzero"/></g><g clip-path="url(#537f567896)"><path fill="#000000" d="M 771.753906 290.667969 L 820.03125 290.667969 L 820.03125 338.945312 L 771.753906 338.945312 Z M 771.753906 290.667969 " fill-opacity="1" fill-rule="nonzero"/></g><g clip-path="url(#0a5f5557ca)"><path fill="#000000" d="M 819.003906 290.667969 L 867.28125 290.667969 L 867.28125 338.945312 L 819.003906 338.945312 Z M 819.003906 290.667969 " fill-opacity="1" fill-rule="nonzero"/></g><g clip-path="url(#369ed7adc3)"><path fill="#000000" d="M 724.226562 196.808594 L 772.503906 196.808594 L 772.503906 245.089844 L 724.226562 245.089844 Z M 724.226562 196.808594 " fill-opacity="1" fill-rule="nonzero"/></g><g clip-path="url(#a5dd2d9978)"><path fill="#000000" d="M 819.003906 196.808594 L 867.28125 196.808594 L 867.28125 245.089844 L 819.003906 245.089844 Z M 819.003906 196.808594 " fill-opacity="1" fill-rule="nonzero"/></g><g clip-path="url(#cfe3724a9f)"><path fill="#000000" d="M 676.695312 384.308594 L 724.976562 384.308594 L 724.976562 432.589844 L 676.695312 432.589844 Z M 676.695312 384.308594 " fill-opacity="1" fill-rule="nonzero"/></g><g clip-path="url(#2c64c701a7)"><path fill="#000000" d="M 581.640625 338.195312 L 629.917969 338.195312 L 629.917969 386.476562 L 581.640625 386.476562 Z M 581.640625 338.195312 " fill-opacity="1" fill-rule="nonzero"/></g><g clip-path="url(#ddcc90b934)"><path fill="#000000" d="M 581.640625 384.308594 L 629.917969 384.308594 L 629.917969 432.589844 L 581.640625 432.589844 Z M 581.640625 384.308594 " fill-opacity="1" fill-rule="nonzero"/></g><g clip-path="url(#a4b330c624)"><path fill="#000000" d="M 581.640625 431.839844 L 629.917969 431.839844 L 629.917969 480.117188 L 581.640625 480.117188 Z M 581.640625 431.839844 " fill-opacity="1" fill-rule="nonzero"/></g><g clip-path="url(#2bdb63301a)"><path fill="#000000" d="M 676.695312 431.839844 L 724.976562 431.839844 L 724.976562 480.117188 L 676.695312 480.117188 Z M 676.695312 431.839844 " fill-opacity="1" fill-rule="nonzero"/></g><g clip-path="url(#05c5bc6934)"><path fill="#000000" d="M 676.695312 479.367188 L 724.976562 479.367188 L 724.976562 527.644531 L 676.695312 527.644531 Z M 676.695312 479.367188 " fill-opacity="1" fill-rule="nonzero"/></g><g clip-path="url(#5e41ec6f52)"><path fill="#000000" d="M 581.640625 479.367188 L 629.917969 479.367188 L 629.917969 527.644531 L 581.640625 527.644531 Z M 581.640625 479.367188 " fill-opacity="1" fill-rule="nonzero"/></g><g clip-path="url(#f2256d760d)"><path fill="#000000" d="M 581.640625 526.894531 L 629.917969 526.894531 L 629.917969 575.175781 L 581.640625 575.175781 Z M 581.640625 526.894531 " fill-opacity="1" fill-rule="nonzero"/></g><g clip-path="url(#7bdcb77b84)"><path fill="#000000" d="M 629.167969 574.339844 L 677.445312 574.339844 L 677.445312 622.617188 L 629.167969 622.617188 Z M 629.167969 574.339844 " fill-opacity="1" fill-rule="nonzero"/></g><g clip-path="url(#4a701129f7)"><path fill="#000000" d="M 581.640625 574.339844 L 629.917969 574.339844 L 629.917969 622.617188 L 581.640625 622.617188 Z M 581.640625 574.339844 " fill-opacity="1" fill-rule="nonzero"/></g><g clip-path="url(#bcb39ece6c)"><path fill="#000000" d="M 676.695312 574.339844 L 724.976562 574.339844 L 724.976562 622.617188 L 676.695312 622.617188 Z M 676.695312 574.339844 " fill-opacity="1" fill-rule="nonzero"/></g><g clip-path="url(#eff078d84e)"><path fill="#000000" d="M 724.226562 574.339844 L 772.503906 574.339844 L 772.503906 622.617188 L 724.226562 622.617188 Z M 724.226562 574.339844 " fill-opacity="1" fill-rule="nonzero"/></g><g clip-path="url(#f5455928dc)"><path fill="#000000" d="M 724.226562 479.367188 L 772.503906 479.367188 L 772.503906 527.644531 L 724.226562 527.644531 Z M 724.226562 479.367188 " fill-opacity="1" fill-rule="nonzero"/></g><g clip-path="url(#3bdeddf87e)"><path fill="#000000" d="M 771.753906 431.839844 L 820.03125 431.839844 L 820.03125 480.117188 L 771.753906 480.117188 Z M 771.753906 431.839844 " fill-opacity="1" fill-rule="nonzero"/></g><g clip-path="url(#cdc48b4170)"><path fill="#000000" d="M 771.753906 384.308594 L 820.03125 384.308594 L 820.03125 432.589844 L 771.753906 432.589844 Z M 771.753906 384.308594 " fill-opacity="1" fill-rule="nonzero"/></g><g clip-path="url(#ed179d34fb)"><path fill="#000000" d="M 771.753906 479.367188 L 820.03125 479.367188 L 820.03125 527.644531 L 771.753906 527.644531 Z M 771.753906 479.367188 " fill-opacity="1" fill-rule="nonzero"/></g><g clip-path="url(#1195192204)"><path fill="#000000" d="M 819.003906 384.308594 L 867.28125 384.308594 L 867.28125 432.589844 L 819.003906 432.589844 Z M 819.003906 384.308594 " fill-opacity="1" fill-rule="nonzero"/></g><g clip-path="url(#cb15044cca)"><path fill="#000000" d="M 866.53125 384.308594 L 914.808594 384.308594 L 914.808594 432.589844 L 866.53125 432.589844 Z M 866.53125 384.308594 " fill-opacity="1" fill-rule="nonzero"/></g><g clip-path="url(#5707267a82)"><path fill="#000000" d="M 914.53125 338.195312 L 962.808594 338.195312 L 962.808594 386.476562 L 914.53125 386.476562 Z M 914.53125 338.195312 " fill-opacity="1" fill-rule="nonzero"/></g><g clip-path="url(#cb4ee2dc36)"><path fill="#000000" d="M 914.53125 290.667969 L 962.808594 290.667969 L 962.808594 338.945312 L 914.53125 338.945312 Z M 914.53125 290.667969 " fill-opacity="1" fill-rule="nonzero"/></g><g clip-path="url(#5a319de316)"><path fill="#000000" d="M 962.339844 290.667969 L 1010.617188 290.667969 L 1010.617188 338.945312 L 962.339844 338.945312 Z M 962.339844 290.667969 " fill-opacity="1" fill-rule="nonzero"/></g><g clip-path="url(#2cf8739e7b)"><path fill="#000000" d="M 914.53125 384.308594 L 962.808594 384.308594 L 962.808594 432.589844 L 914.53125 432.589844 Z M 914.53125 384.308594 " fill-opacity="1" fill-rule="nonzero"/></g><g clip-path="url(#54cf086cca)"><path fill="#000000" d="M 771.753906 574.339844 L 820.03125 574.339844 L 820.03125 622.617188 L 771.753906 622.617188 Z M 771.753906 574.339844 " fill-opacity="1" fill-rule="nonzero"/></g><g clip-path="url(#43400aca32)"><path fill="#000000" d="M 819.003906 574.339844 L 867.28125 574.339844 L 867.28125 622.617188 L 819.003906 622.617188 Z M 819.003906 574.339844 " fill-opacity="1" fill-rule="nonzero"/></g><g clip-path="url(#4da097b2c2)"><path fill="#000000" d="M 1009.867188 290.667969 L 1058.144531 290.667969 L 1058.144531 338.945312 L 1009.867188 338.945312 Z M 1009.867188 290.667969 " fill-opacity="1" fill-rule="nonzero"/></g><g clip-path="url(#143951ccee)"><path fill="#000000" d="M 1009.867188 338.195312 L 1058.144531 338.195312 L 1058.144531 386.476562 L 1009.867188 386.476562 Z M 1009.867188 338.195312 " fill-opacity="1" fill-rule="nonzero"/></g><g clip-path="url(#bcd4709263)"><path fill="#000000" d="M 1009.867188 384.308594 L 1058.144531 384.308594 L 1058.144531 432.589844 L 1009.867188 432.589844 Z M 1009.867188 384.308594 " fill-opacity="1" fill-rule="nonzero"/></g><g clip-path="url(#cb8ec5c070)"><path fill="#000000" d="M 866.53125 479.367188 L 914.808594 479.367188 L 914.808594 527.644531 L 866.53125 527.644531 Z M 866.53125 479.367188 " fill-opacity="1" fill-rule="nonzero"/></g><g clip-path="url(#e08aca3799)"><path fill="#000000" d="M 866.53125 526.894531 L 914.808594 526.894531 L 914.808594 575.175781 L 866.53125 575.175781 Z M 866.53125 526.894531 " fill-opacity="1" fill-rule="nonzero"/></g><g clip-path="url(#b97d5bb831)"><path fill="#000000" d="M 866.53125 574.339844 L 914.808594 574.339844 L 914.808594 622.617188 L 866.53125 622.617188 Z M 866.53125 574.339844 " fill-opacity="1" fill-rule="nonzero"/></g><g clip-path="url(#640ba0464b)"><path fill="#000000" d="M 962.339844 479.367188 L 1010.617188 479.367188 L 1010.617188 527.644531 L 962.339844 527.644531 Z M 962.339844 479.367188 " fill-opacity="1" fill-rule="nonzero"/></g><g clip-path="url(#f52ee2e1c6)"><path fill="#000000" d="M 1009.867188 479.367188 L 1058.144531 479.367188 L 1058.144531 527.644531 L 1009.867188 527.644531 Z M 1009.867188 479.367188 " fill-opacity="1" fill-rule="nonzero"/></g><g clip-path="url(#652a3609c2)"><path fill="#000000" d="M 1009.867188 526.894531 L 1058.144531 526.894531 L 1058.144531 575.175781 L 1009.867188 575.175781 Z M 1009.867188 526.894531 " fill-opacity="1" fill-rule="nonzero"/></g><g clip-path="url(#2a388e74a9)"><path fill="#000000" d="M 1057.867188 384.308594 L 1106.144531 384.308594 L 1106.144531 432.589844 L 1057.867188 432.589844 Z M 1057.867188 384.308594 " fill-opacity="1" fill-rule="nonzero"/></g><g clip-path="url(#d75ba25802)"><path fill="#000000" d="M 1106.144531 384.308594 L 1154.425781 384.308594 L 1154.425781 432.589844 L 1106.144531 432.589844 Z M 1106.144531 384.308594 " fill-opacity="1" fill-rule="nonzero"/></g><g clip-path="url(#9cf198a4fa)"><path fill="#000000" d="M 1106.144531 431.839844 L 1154.425781 431.839844 L 1154.425781 480.117188 L 1106.144531 480.117188 Z M 1106.144531 431.839844 " fill-opacity="1" fill-rule="nonzero"/></g><g clip-path="url(#819dc3e0c4)"><path fill="#000000" d="M 1106.144531 479.367188 L 1154.425781 479.367188 L 1154.425781 527.644531 L 1106.144531 527.644531 Z M 1106.144531 479.367188 " fill-opacity="1" fill-rule="nonzero"/></g><g clip-path="url(#81e6ab5301)"><path fill="#000000" d="M 1106.144531 526.894531 L 1154.425781 526.894531 L 1154.425781 575.175781 L 1106.144531 575.175781 Z M 1106.144531 526.894531 " fill-opacity="1" fill-rule="nonzero"/></g><g clip-path="url(#0ec0038f80)"><path fill="#000000" d="M 1009.867188 574.339844 L 1058.144531 574.339844 L 1058.144531 622.617188 L 1009.867188 622.617188 Z M 1009.867188 574.339844 " fill-opacity="1" fill-rule="nonzero"/></g><g clip-path="url(#abe672774a)"><path fill="#000000" d="M 1009.867188 621.867188 L 1058.144531 621.867188 L 1058.144531 670.144531 L 1009.867188 670.144531 Z M 1009.867188 621.867188 " fill-opacity="1" fill-rule="nonzero"/></g><g clip-path="url(#debaa86ed2)"><path fill="#000000" d="M 1009.867188 670.058594 L 1058.144531 670.058594 L 1058.144531 718.339844 L 1009.867188 718.339844 Z M 1009.867188 670.058594 " fill-opacity="1" fill-rule="nonzero"/></g><g clip-path="url(#2ae42be592)"><path fill="#000000" d="M 1057.867188 717.503906 L 1106.144531 717.503906 L 1106.144531 765.78125 L 1057.867188 765.78125 Z M 1057.867188 717.503906 " fill-opacity="1" fill-rule="nonzero"/></g><g clip-path="url(#7229cc208c)"><path fill="#000000" d="M 1009.867188 717.503906 L 1058.144531 717.503906 L 1058.144531 765.78125 L 1009.867188 765.78125 Z M 1009.867188 717.503906 " fill-opacity="1" fill-rule="nonzero"/></g><g clip-path="url(#06f3fac202)"><path fill="#000000" d="M 1106.144531 717.503906 L 1154.425781 717.503906 L 1154.425781 765.78125 L 1106.144531 765.78125 Z M 1106.144531 717.503906 " fill-opacity="1" fill-rule="nonzero"/></g><g clip-path="url(#4890f8bafd)"><path fill="#000000" d="M 1106.144531 670.058594 L 1154.425781 670.058594 L 1154.425781 718.339844 L 1106.144531 718.339844 Z M 1106.144531 670.058594 " fill-opacity="1" fill-rule="nonzero"/></g><g clip-path="url(#eecd5909cb)"><path fill="#000000" d="M 1106.144531 621.867188 L 1154.425781 621.867188 L 1154.425781 670.144531 L 1106.144531 670.144531 Z M 1106.144531 621.867188 " fill-opacity="1" fill-rule="nonzero"/></g><g clip-path="url(#40f357160b)"><path fill="#000000" d="M 1152.925781 621.867188 L 1201.203125 621.867188 L 1201.203125 670.144531 L 1152.925781 670.144531 Z M 1152.925781 621.867188 " fill-opacity="1" fill-rule="nonzero"/></g><g clip-path="url(#7e95e838b4)"><path fill="#000000" d="M 1200.644531 670.058594 L 1248.925781 670.058594 L 1248.925781 718.339844 L 1200.644531 718.339844 Z M 1200.644531 670.058594 " fill-opacity="1" fill-rule="nonzero"/></g><g clip-path="url(#36af6238d2)"><path fill="#000000" d="M 1200.644531 621.867188 L 1248.925781 621.867188 L 1248.925781 670.144531 L 1200.644531 670.144531 Z M 1200.644531 621.867188 " fill-opacity="1" fill-rule="nonzero"/></g><g clip-path="url(#ef646e26ad)"><path fill="#000000" d="M 1200.644531 717.503906 L 1248.925781 717.503906 L 1248.925781 765.78125 L 1200.644531 765.78125 Z M 1200.644531 717.503906 " fill-opacity="1" fill-rule="nonzero"/></g><g clip-path="url(#aca22ee6b1)"><path fill="#000000" d="M 1248.453125 717.503906 L 1296.730469 717.503906 L 1296.730469 765.78125 L 1248.453125 765.78125 Z M 1248.453125 717.503906 " fill-opacity="1" fill-rule="nonzero"/></g><g clip-path="url(#22f38595a2)"><path fill="#000000" d="M 1296.175781 717.503906 L 1344.453125 717.503906 L 1344.453125 765.78125 L 1296.175781 765.78125 Z M 1296.175781 717.503906 " fill-opacity="1" fill-rule="nonzero"/></g><g clip-path="url(#87d7c050a2)"><path fill="#000000" d="M 1344.453125 717.503906 L 1392.730469 717.503906 L 1392.730469 765.78125 L 1344.453125 765.78125 Z M 1344.453125 717.503906 " fill-opacity="1" fill-rule="nonzero"/></g><g clip-path="url(#5d77ab3204)"><path fill="#000000" d="M 1344.453125 670.058594 L 1392.730469 670.058594 L 1392.730469 718.339844 L 1344.453125 718.339844 Z M 1344.453125 670.058594 " fill-opacity="1" fill-rule="nonzero"/></g><g clip-path="url(#1374c57c89)"><path fill="#000000" d="M 1344.453125 621.867188 L 1392.730469 621.867188 L 1392.730469 670.144531 L 1344.453125 670.144531 Z M 1344.453125 621.867188 " fill-opacity="1" fill-rule="nonzero"/></g><g clip-path="url(#949d7726c7)"><path fill="#000000" d="M 1296.175781 526.894531 L 1344.453125 526.894531 L 1344.453125 575.175781 L 1296.175781 575.175781 Z M 1296.175781 526.894531 " fill-opacity="1" fill-rule="nonzero"/></g><g clip-path="url(#55d0e43be6)"><path fill="#000000" d="M 1296.175781 621.867188 L 1344.453125 621.867188 L 1344.453125 670.144531 L 1296.175781 670.144531 Z M 1296.175781 621.867188 " fill-opacity="1" fill-rule="nonzero"/></g><g clip-path="url(#d05579b905)"><path fill="#000000" d="M 1296.175781 574.339844 L 1344.453125 574.339844 L 1344.453125 622.617188 L 1296.175781 622.617188 Z M 1296.175781 574.339844 " fill-opacity="1" fill-rule="nonzero"/></g><g clip-path="url(#669dfb3bba)"><path fill="#000000" d="M 1344.453125 479.367188 L 1392.730469 479.367188 L 1392.730469 527.644531 L 1344.453125 527.644531 Z M 1344.453125 479.367188 " fill-opacity="1" fill-rule="nonzero"/></g><g clip-path="url(#ff9e9f9bdb)"><path fill="#000000" d="M 1152.925781 526.894531 L 1201.203125 526.894531 L 1201.203125 575.175781 L 1152.925781 575.175781 Z M 1152.925781 526.894531 " fill-opacity="1" fill-rule="nonzero"/></g><g clip-path="url(#d09b4079b6)"><path fill="#000000" d="M 1200.644531 526.894531 L 1248.925781 526.894531 L 1248.925781 575.175781 L 1200.644531 575.175781 Z M 1200.644531 526.894531 " fill-opacity="1" fill-rule="nonzero"/></g><g clip-path="url(#056e83085a)"><path fill="#000000" d="M 1200.644531 479.367188 L 1248.925781 479.367188 L 1248.925781 527.644531 L 1200.644531 527.644531 Z M 1200.644531 479.367188 " fill-opacity="1" fill-rule="nonzero"/></g><g clip-path="url(#7d158a449d)"><path fill="#000000" d="M 1200.644531 431.839844 L 1248.925781 431.839844 L 1248.925781 480.117188 L 1200.644531 480.117188 Z M 1200.644531 431.839844 " fill-opacity="1" fill-rule="nonzero"/></g><g clip-path="url(#cadb8237c7)"><path fill="#000000" d="M 1248.453125 431.839844 L 1296.730469 431.839844 L 1296.730469 480.117188 L 1248.453125 480.117188 Z M 1248.453125 431.839844 " fill-opacity="1" fill-rule="nonzero"/></g><g clip-path="url(#4797c6935e)"><path fill="#000000" d="M 1344.453125 431.839844 L 1392.730469 431.839844 L 1392.730469 480.117188 L 1344.453125 480.117188 Z M 1344.453125 431.839844 " fill-opacity="1" fill-rule="nonzero"/></g><g clip-path="url(#29005713a1)"><path fill="#000000" d="M 1344.453125 526.894531 L 1392.730469 526.894531 L 1392.730469 575.175781 L 1344.453125 575.175781 Z M 1344.453125 526.894531 " fill-opacity="1" fill-rule="nonzero"/></g><g clip-path="url(#4934941796)"><path fill="#000000" d="M 1344.453125 384.308594 L 1392.730469 384.308594 L 1392.730469 432.589844 L 1344.453125 432.589844 Z M 1344.453125 384.308594 " fill-opacity="1" fill-rule="nonzero"/></g><g clip-path="url(#79dfe03413)"><path fill="#000000" d="M 1344.453125 338.195312 L 1392.730469 338.195312 L 1392.730469 386.476562 L 1344.453125 386.476562 Z M 1344.453125 338.195312 " fill-opacity="1" fill-rule="nonzero"/></g><g clip-path="url(#d816474bb0)"><path fill="#000000" d="M 1344.453125 290.667969 L 1392.730469 290.667969 L 1392.730469 338.945312 L 1344.453125 338.945312 Z M 1344.453125 290.667969 " fill-opacity="1" fill-rule="nonzero"/></g><g clip-path="url(#71173ca2e8)"><path fill="#000000" d="M 1296.175781 290.667969 L 1344.453125 290.667969 L 1344.453125 338.945312 L 1296.175781 338.945312 Z M 1296.175781 290.667969 " fill-opacity="1" fill-rule="nonzero"/></g><g clip-path="url(#813eba0945)"><path fill="#000000" d="M 1248.453125 290.667969 L 1296.730469 290.667969 L 1296.730469 338.945312 L 1248.453125 338.945312 Z M 1248.453125 290.667969 " fill-opacity="1" fill-rule="nonzero"/></g><g clip-path="url(#21775eeca6)"><path fill="#000000" d="M 1200.644531 290.667969 L 1248.925781 290.667969 L 1248.925781 338.945312 L 1200.644531 338.945312 Z M 1200.644531 290.667969 " fill-opacity="1" fill-rule="nonzero"/></g><g clip-path="url(#9845397663)"><path fill="#000000" d="M 1152.925781 290.667969 L 1201.203125 290.667969 L 1201.203125 338.945312 L 1152.925781 338.945312 Z M 1152.925781 290.667969 " fill-opacity="1" fill-rule="nonzero"/></g><g clip-path="url(#f6cd561955)"><path fill="#000000" d="M 1106.144531 290.667969 L 1154.425781 290.667969 L 1154.425781 338.945312 L 1106.144531 338.945312 Z M 1106.144531 290.667969 " fill-opacity="1" fill-rule="nonzero"/></g><g clip-path="url(#be237f438b)"><path fill="#000000" d="M 1200.644531 384.308594 L 1248.925781 384.308594 L 1248.925781 432.589844 L 1200.644531 432.589844 Z M 1200.644531 384.308594 " fill-opacity="1" fill-rule="nonzero"/></g><g clip-path="url(#b027fd4ba5)"><path fill="#000000" d="M 1106.144531 244.617188 L 1154.425781 244.617188 L 1154.425781 292.894531 L 1106.144531 292.894531 Z M 1106.144531 244.617188 " fill-opacity="1" fill-rule="nonzero"/></g><g clip-path="url(#fd033e13c0)"><path fill="#000000" d="M 1106.144531 196.808594 L 1154.425781 196.808594 L 1154.425781 245.089844 L 1106.144531 245.089844 Z M 1106.144531 196.808594 " fill-opacity="1" fill-rule="nonzero"/></g><g clip-path="url(#3b4771f7ae)"><path fill="#000000" d="M 1057.867188 196.808594 L 1106.144531 196.808594 L 1106.144531 245.089844 L 1057.867188 245.089844 Z M 1057.867188 196.808594 " fill-opacity="1" fill-rule="nonzero"/></g><g clip-path="url(#7c47b01e45)"><path fill="#000000" d="M 962.339844 196.808594 L 1010.617188 196.808594 L 1010.617188 245.089844 L 962.339844 245.089844 Z M 962.339844 196.808594 " fill-opacity="1" fill-rule="nonzero"/></g><g clip-path="url(#5a1d224bc9)"><path fill="#000000" d="M 914.53125 196.808594 L 962.808594 196.808594 L 962.808594 245.089844 L 914.53125 245.089844 Z M 914.53125 196.808594 " fill-opacity="1" fill-rule="nonzero"/></g><g clip-path="url(#66f151bddb)"><path fill="#000000" d="M 1009.867188 196.808594 L 1058.144531 196.808594 L 1058.144531 245.089844 L 1009.867188 245.089844 Z M 1009.867188 196.808594 " fill-opacity="1" fill-rule="nonzero"/></g><g clip-path="url(#2863602a89)"><path fill="#000000" d="M 914.53125 101.753906 L 962.808594 101.753906 L 962.808594 150.03125 L 914.53125 150.03125 Z M 914.53125 101.753906 " fill-opacity="1" fill-rule="nonzero"/></g><g clip-path="url(#3561324d1e)"><path fill="#000000" d="M 914.53125 149.28125 L 962.808594 149.28125 L 962.808594 197.558594 L 914.53125 197.558594 Z M 914.53125 149.28125 " fill-opacity="1" fill-rule="nonzero"/></g><g clip-path="url(#3b5283fdc9)"><path fill="#000000" d="M 962.339844 101.753906 L 1010.617188 101.753906 L 1010.617188 150.03125 L 962.339844 150.03125 Z M 962.339844 101.753906 " fill-opacity="1" fill-rule="nonzero"/></g><g clip-path="url(#bcdd10e0fb)"><path fill="#000000" d="M 1009.867188 101.753906 L 1058.144531 101.753906 L 1058.144531 150.03125 L 1009.867188 150.03125 Z M 1009.867188 101.753906 " fill-opacity="1" fill-rule="nonzero"/></g><g clip-path="url(#dc2fe589c3)"><path fill="#000000" d="M 1057.867188 101.753906 L 1106.144531 101.753906 L 1106.144531 150.03125 L 1057.867188 150.03125 Z M 1057.867188 101.753906 " fill-opacity="1" fill-rule="nonzero"/></g><g clip-path="url(#b81e8fbbbd)"><path fill="#000000" d="M 1106.144531 101.753906 L 1154.425781 101.753906 L 1154.425781 150.03125 L 1106.144531 150.03125 Z M 1106.144531 101.753906 " fill-opacity="1" fill-rule="nonzero"/></g><g clip-path="url(#9ed0d59a24)"><path fill="#000000" d="M 1152.925781 101.753906 L 1201.203125 101.753906 L 1201.203125 150.03125 L 1152.925781 150.03125 Z M 1152.925781 101.753906 " fill-opacity="1" fill-rule="nonzero"/></g><g clip-path="url(#78f5455e0a)"><path fill="#000000" d="M 1200.644531 101.753906 L 1248.925781 101.753906 L 1248.925781 150.03125 L 1200.644531 150.03125 Z M 1200.644531 101.753906 " fill-opacity="1" fill-rule="nonzero"/></g><g clip-path="url(#2182240f19)"><path fill="#000000" d="M 1200.644531 149.28125 L 1248.925781 149.28125 L 1248.925781 197.558594 L 1200.644531 197.558594 Z M 1200.644531 149.28125 " fill-opacity="1" fill-rule="nonzero"/></g><g clip-path="url(#c79ffe13e4)"><path fill="#000000" d="M 1200.644531 196.808594 L 1248.925781 196.808594 L 1248.925781 245.089844 L 1200.644531 245.089844 Z M 1200.644531 196.808594 " fill-opacity="1" fill-rule="nonzero"/></g><g clip-path="url(#192e4ff04c)"><path fill="#000000" d="M 1248.453125 196.808594 L 1296.730469 196.808594 L 1296.730469 245.089844 L 1248.453125 245.089844 Z M 1248.453125 196.808594 " fill-opacity="1" fill-rule="nonzero"/></g><g clip-path="url(#19ff04f269)"><path fill="#000000" d="M 1296.175781 196.808594 L 1344.453125 196.808594 L 1344.453125 245.089844 L 1296.175781 245.089844 Z M 1296.175781 196.808594 " fill-opacity="1" fill-rule="nonzero"/></g><g clip-path="url(#324beba889)"><path fill="#000000" d="M 1344.453125 196.808594 L 1392.730469 196.808594 L 1392.730469 245.089844 L 1344.453125 245.089844 Z M 1344.453125 196.808594 " fill-opacity="1" fill-rule="nonzero"/></g><g clip-path="url(#9b2bcbde00)"><path fill="#000000" d="M 1344.453125 149.28125 L 1392.730469 149.28125 L 1392.730469 197.558594 L 1344.453125 197.558594 Z M 1344.453125 149.28125 " fill-opacity="1" fill-rule="nonzero"/></g><g clip-path="url(#61c84dfda3)"><path fill="#000000" d="M 1344.453125 101.753906 L 1392.730469 101.753906 L 1392.730469 150.03125 L 1344.453125 150.03125 Z M 1344.453125 101.753906 " fill-opacity="1" fill-rule="nonzero"/></g><g clip-path="url(#72f633768f)"><path fill="#000000" d="M 1296.175781 101.753906 L 1344.453125 101.753906 L 1344.453125 150.03125 L 1296.175781 150.03125 Z M 1296.175781 101.753906 " fill-opacity="1" fill-rule="nonzero"/></g><g clip-path="url(#3e64f81a9b)"><path fill="#000000" d="M 1296.175781 54.226562 L 1344.453125 54.226562 L 1344.453125 102.503906 L 1296.175781 102.503906 Z M 1296.175781 54.226562 " fill-opacity="1" fill-rule="nonzero"/></g><g clip-path="url(#ab21988b16)"><path fill="#000000" d="M 1296.175781 6.976562 L 1344.453125 6.976562 L 1344.453125 55.253906 L 1296.175781 55.253906 Z M 1296.175781 6.976562 " fill-opacity="1" fill-rule="nonzero"/></g><g clip-path="url(#cbdddc7eef)"><path fill="#000000" d="M 1248.453125 6.976562 L 1296.730469 6.976562 L 1296.730469 55.253906 L 1248.453125 55.253906 Z M 1248.453125 6.976562 " fill-opacity="1" fill-rule="nonzero"/></g><g clip-path="url(#dc4cafb74e)"><path fill="#000000" d="M 1200.644531 6.976562 L 1248.925781 6.976562 L 1248.925781 55.253906 L 1200.644531 55.253906 Z M 1200.644531 6.976562 " fill-opacity="1" fill-rule="nonzero"/></g><g clip-path="url(#69ca8efd7b)"><path fill="#000000" d="M 1152.925781 6.976562 L 1201.203125 6.976562 L 1201.203125 55.253906 L 1152.925781 55.253906 Z M 1152.925781 6.976562 " fill-opacity="1" fill-rule="nonzero"/></g><g clip-path="url(#b56b346b09)"><path fill="#000000" d="M 1106.144531 6.976562 L 1154.425781 6.976562 L 1154.425781 55.253906 L 1106.144531 55.253906 Z M 1106.144531 6.976562 " fill-opacity="1" fill-rule="nonzero"/></g><g clip-path="url(#db118a20c9)"><path fill="#000000" d="M 1057.867188 6.976562 L 1106.144531 6.976562 L 1106.144531 55.253906 L 1057.867188 55.253906 Z M 1057.867188 6.976562 " fill-opacity="1" fill-rule="nonzero"/></g><g clip-path="url(#c3ddfbe180)"><path fill="#000000" d="M 1009.867188 6.976562 L 1058.144531 6.976562 L 1058.144531 55.253906 L 1009.867188 55.253906 Z M 1009.867188 6.976562 " fill-opacity="1" fill-rule="nonzero"/></g><g clip-path="url(#99d1df5f04)"><path fill="#000000" d="M 962.339844 6.976562 L 1010.617188 6.976562 L 1010.617188 55.253906 L 962.339844 55.253906 Z M 962.339844 6.976562 " fill-opacity="1" fill-rule="nonzero"/></g><g clip-path="url(#ec04faa4d7)"><path fill="#000000" d="M 914.53125 6.976562 L 962.808594 6.976562 L 962.808594 55.253906 L 914.53125 55.253906 Z M 914.53125 6.976562 " fill-opacity="1" fill-rule="nonzero"/></g><g clip-path="url(#68e94b7066)"><path fill="#000000" d="M 866.53125 6.976562 L 914.808594 6.976562 L 914.808594 55.253906 L 866.53125 55.253906 Z M 866.53125 6.976562 " fill-opacity="1" fill-rule="nonzero"/></g><g clip-path="url(#c1769da457)"><path fill="#000000" d="M 819.003906 6.976562 L 867.28125 6.976562 L 867.28125 55.253906 L 819.003906 55.253906 Z M 819.003906 6.976562 " fill-opacity="1" fill-rule="nonzero"/></g><g clip-path="url(#05f3f12d2d)"><path fill="#000000" d="M 819.003906 54.226562 L 867.28125 54.226562 L 867.28125 102.503906 L 819.003906 102.503906 Z M 819.003906 54.226562 " fill-opacity="1" fill-rule="nonzero"/></g><g clip-path="url(#b8a091e8b7)"><path fill="#000000" d="M 771.753906 54.226562 L 820.03125 54.226562 L 820.03125 102.503906 L 771.753906 102.503906 Z M 771.753906 54.226562 " fill-opacity="1" fill-rule="nonzero"/></g><g clip-path="url(#0e22c78211)"><path fill="#000000" d="M 724.226562 54.226562 L 772.503906 54.226562 L 772.503906 102.503906 L 724.226562 102.503906 Z M 724.226562 54.226562 " fill-opacity="1" fill-rule="nonzero"/></g><g clip-path="url(#b5f5ed37f8)"><path fill="#000000" d="M 676.695312 54.226562 L 724.976562 54.226562 L 724.976562 102.503906 L 676.695312 102.503906 Z M 676.695312 54.226562 " fill-opacity="1" fill-rule="nonzero"/></g><g clip-path="url(#0dfaa66fba)"><path fill="#000000" d="M 629.167969 54.226562 L 677.445312 54.226562 L 677.445312 102.503906 L 629.167969 102.503906 Z M 629.167969 54.226562 " fill-opacity="1" fill-rule="nonzero"/></g><g clip-path="url(#9d4102fc71)"><path fill="#000000" d="M 629.167969 101.753906 L 677.445312 101.753906 L 677.445312 150.03125 L 629.167969 150.03125 Z M 629.167969 101.753906 " fill-opacity="1" fill-rule="nonzero"/></g><g clip-path="url(#9add4b42d1)"><path fill="#000000" d="M 581.640625 101.753906 L 629.917969 101.753906 L 629.917969 150.03125 L 581.640625 150.03125 Z M 581.640625 101.753906 " fill-opacity="1" fill-rule="nonzero"/></g><g clip-path="url(#5e620018fb)"><path fill="#000000" d="M 537.390625 101.753906 L 585.667969 101.753906 L 585.667969 150.03125 L 537.390625 150.03125 Z M 537.390625 101.753906 " fill-opacity="1" fill-rule="nonzero"/></g><g clip-path="url(#39014a44e4)"><path fill="#000000" d="M 537.390625 54.226562 L 585.667969 54.226562 L 585.667969 102.503906 L 537.390625 102.503906 Z M 537.390625 54.226562 " fill-opacity="1" fill-rule="nonzero"/></g><g clip-path="url(#455d5f7f14)"><path fill="#000000" d="M 537.390625 6.976562 L 585.667969 6.976562 L 585.667969 55.253906 L 537.390625 55.253906 Z M 537.390625 6.976562 " fill-opacity="1" fill-rule="nonzero"/></g><g clip-path="url(#969a0e07a3)"><path fill="#000000" d="M 489.859375 6.976562 L 538.140625 6.976562 L 538.140625 55.253906 L 489.859375 55.253906 Z M 489.859375 6.976562 " fill-opacity="1" fill-rule="nonzero"/></g><g clip-path="url(#b010e4766c)"><path fill="#000000" d="M 442.609375 6.976562 L 490.890625 6.976562 L 490.890625 55.253906 L 442.609375 55.253906 Z M 442.609375 6.976562 " fill-opacity="1" fill-rule="nonzero"/></g><g clip-path="url(#24f8de5d64)"><path fill="#000000" d="M 395.082031 6.976562 L 443.359375 6.976562 L 443.359375 55.253906 L 395.082031 55.253906 Z M 395.082031 6.976562 " fill-opacity="1" fill-rule="nonzero"/></g><g clip-path="url(#32ab75015e)"><path fill="#000000" d="M 346.804688 6.976562 L 395.082031 6.976562 L 395.082031 55.253906 L 346.804688 55.253906 Z M 346.804688 6.976562 " fill-opacity="1" fill-rule="nonzero"/></g><g clip-path="url(#6d3373ef0b)"><path fill="#000000" d="M 346.804688 54.226562 L 395.082031 54.226562 L 395.082031 102.503906 L 346.804688 102.503906 Z M 346.804688 54.226562 " fill-opacity="1" fill-rule="nonzero"/></g><g clip-path="url(#153bc27e72)"><path fill="#000000" d="M 346.804688 101.753906 L 395.082031 101.753906 L 395.082031 150.03125 L 346.804688 150.03125 Z M 346.804688 101.753906 " fill-opacity="1" fill-rule="nonzero"/></g><g clip-path="url(#ba6aacedc9)"><path fill="#000000" d="M 395.082031 101.753906 L 443.359375 101.753906 L 443.359375 150.03125 L 395.082031 150.03125 Z M 395.082031 101.753906 " fill-opacity="1" fill-rule="nonzero"/></g><g clip-path="url(#0dacd80737)"><path fill="#000000" d="M 442.609375 101.753906 L 490.890625 101.753906 L 490.890625 150.03125 L 442.609375 150.03125 Z M 442.609375 101.753906 " fill-opacity="1" fill-rule="nonzero"/></g><g clip-path="url(#bb972cdb5c)"><path fill="#000000" d="M 442.609375 149.28125 L 490.890625 149.28125 L 490.890625 197.558594 L 442.609375 197.558594 Z M 442.609375 149.28125 " fill-opacity="1" fill-rule="nonzero"/></g><g clip-path="url(#17478b0aa2)"><path fill="#000000" d="M 442.609375 196.808594 L 490.890625 196.808594 L 490.890625 245.089844 L 442.609375 245.089844 Z M 442.609375 196.808594 " fill-opacity="1" fill-rule="nonzero"/></g><g clip-path="url(#e8a5144379)"><path fill="#000000" d="M 395.082031 196.808594 L 443.359375 196.808594 L 443.359375 245.089844 L 395.082031 245.089844 Z M 395.082031 196.808594 " fill-opacity="1" fill-rule="nonzero"/></g><g clip-path="url(#bd34e96d49)"><path fill="#000000" d="M 346.804688 196.808594 L 395.082031 196.808594 L 395.082031 245.089844 L 346.804688 245.089844 Z M 346.804688 196.808594 " fill-opacity="1" fill-rule="nonzero"/></g><g clip-path="url(#795a6d41fb)"><path fill="#000000" d="M 298.527344 196.808594 L 346.804688 196.808594 L 346.804688 245.089844 L 298.527344 245.089844 Z M 298.527344 196.808594 " fill-opacity="1" fill-rule="nonzero"/></g><g clip-path="url(#3a82ecce79)"><path fill="#000000" d="M 250.996094 196.808594 L 299.277344 196.808594 L 299.277344 245.089844 L 250.996094 245.089844 Z M 250.996094 196.808594 " fill-opacity="1" fill-rule="nonzero"/></g><g clip-path="url(#d9527ab481)"><path fill="#000000" d="M 250.996094 149.28125 L 299.277344 149.28125 L 299.277344 197.558594 L 250.996094 197.558594 Z M 250.996094 149.28125 " fill-opacity="1" fill-rule="nonzero"/></g><g clip-path="url(#bbd3542cc7)"><path fill="#000000" d="M 250.996094 101.753906 L 299.277344 101.753906 L 299.277344 150.03125 L 250.996094 150.03125 Z M 250.996094 101.753906 " fill-opacity="1" fill-rule="nonzero"/></g><g clip-path="url(#0025573bd3)"><path fill="#000000" d="M 250.996094 54.226562 L 299.277344 54.226562 L 299.277344 102.503906 L 250.996094 102.503906 Z M 250.996094 54.226562 " fill-opacity="1" fill-rule="nonzero"/></g><g clip-path="url(#df39985fd0)"><path fill="#000000" d="M 202.71875 54.226562 L 250.996094 54.226562 L 250.996094 102.503906 L 202.71875 102.503906 Z M 202.71875 54.226562 " fill-opacity="1" fill-rule="nonzero"/></g><g clip-path="url(#1f10e056dc)"><path fill="#000000" d="M 154.71875 54.226562 L 202.996094 54.226562 L 202.996094 102.503906 L 154.71875 102.503906 Z M 154.71875 54.226562 " fill-opacity="1" fill-rule="nonzero"/></g><g clip-path="url(#a702364e8a)"><path fill="#000000" d="M 112.910156 54.226562 L 161.191406 54.226562 L 161.191406 102.503906 L 112.910156 102.503906 Z M 112.910156 54.226562 " fill-opacity="1" fill-rule="nonzero"/></g><g clip-path="url(#026e544027)"><path fill="#000000" d="M 17.855469 54.226562 L 66.132812 54.226562 L 66.132812 102.503906 L 17.855469 102.503906 Z M 17.855469 54.226562 " fill-opacity="1" fill-rule="nonzero"/></g><g clip-path="url(#85546d09a9)"><path fill="#000000" d="M 17.855469 101.753906 L 66.132812 101.753906 L 66.132812 150.03125 L 17.855469 150.03125 Z M 17.855469 101.753906 " fill-opacity="1" fill-rule="nonzero"/></g><g clip-path="url(#af21fe2651)"><path fill="#000000" d="M 17.855469 149.28125 L 66.132812 149.28125 L 66.132812 197.558594 L 17.855469 197.558594 Z M 17.855469 149.28125 " fill-opacity="1" fill-rule="nonzero"/></g><g clip-path="url(#608b4b970d)"><path fill="#000000" d="M 17.855469 196.808594 L 66.132812 196.808594 L 66.132812 245.089844 L 17.855469 245.089844 Z M 17.855469 196.808594 " fill-opacity="1" fill-rule="nonzero"/></g><g clip-path="url(#1e31210008)"><path fill="#000000" d="M 65.382812 196.808594 L 113.660156 196.808594 L 113.660156 245.089844 L 65.382812 245.089844 Z M 65.382812 196.808594 " fill-opacity="1" fill-rule="nonzero"/></g><g clip-path="url(#6f14bfb0e6)"><path fill="#000000" d="M 112.910156 196.808594 L 161.191406 196.808594 L 161.191406 245.089844 L 112.910156 245.089844 Z M 112.910156 196.808594 " fill-opacity="1" fill-rule="nonzero"/></g><g clip-path="url(#2530bf4b57)"><path fill="#000000" d="M 112.910156 149.28125 L 161.191406 149.28125 L 161.191406 197.558594 L 112.910156 197.558594 Z M 112.910156 149.28125 " fill-opacity="1" fill-rule="nonzero"/></g><g clip-path="url(#c333e698de)"><path fill="#000000" d="M 112.910156 244.617188 L 161.191406 244.617188 L 161.191406 292.894531 L 112.910156 292.894531 Z M 112.910156 244.617188 " fill-opacity="1" fill-rule="nonzero"/></g><g clip-path="url(#d091e7d90a)"><path fill="#000000" d="M 154.71875 149.28125 L 202.996094 149.28125 L 202.996094 197.558594 L 154.71875 197.558594 Z M 154.71875 149.28125 " fill-opacity="1" fill-rule="nonzero"/></g><g clip-path="url(#2fef167cbd)"><path fill="#000000" d="M 250.996094 290.667969 L 299.277344 290.667969 L 299.277344 338.945312 L 250.996094 338.945312 Z M 250.996094 290.667969 " fill-opacity="1" fill-rule="nonzero"/></g><g clip-path="url(#9f5e113d7e)"><path fill="#000000" d="M 202.71875 290.667969 L 250.996094 290.667969 L 250.996094 338.945312 L 202.71875 338.945312 Z M 202.71875 290.667969 " fill-opacity="1" fill-rule="nonzero"/></g><g clip-path="url(#c70427376d)"><path fill="#000000" d="M 298.527344 290.667969 L 346.804688 290.667969 L 346.804688 338.945312 L 298.527344 338.945312 Z M 298.527344 290.667969 " fill-opacity="1" fill-rule="nonzero"/></g><g clip-path="url(#b22057e7fb)"><path fill="#000000" d="M 346.804688 290.667969 L 395.082031 290.667969 L 395.082031 338.945312 L 346.804688 338.945312 Z M 346.804688 290.667969 " fill-opacity="1" fill-rule="nonzero"/></g><g clip-path="url(#90e7986fa7)"><path fill="#000000" d="M 395.082031 290.667969 L 443.359375 290.667969 L 443.359375 338.945312 L 395.082031 338.945312 Z M 395.082031 290.667969 " fill-opacity="1" fill-rule="nonzero"/></g><g clip-path="url(#2c2a862858)"><path fill="#000000" d="M 442.609375 290.667969 L 490.890625 290.667969 L 490.890625 338.945312 L 442.609375 338.945312 Z M 442.609375 290.667969 " fill-opacity="1" fill-rule="nonzero"/></g><g clip-path="url(#ad6624d556)"><path fill="#000000" d="M 442.609375 338.195312 L 490.890625 338.195312 L 490.890625 386.476562 L 442.609375 386.476562 Z M 442.609375 338.195312 " fill-opacity="1" fill-rule="nonzero"/></g><g clip-path="url(#b8ecad77da)"><path fill="#000000" d="M 489.859375 338.195312 L 538.140625 338.195312 L 538.140625 386.476562 L 489.859375 386.476562 Z M 489.859375 338.195312 " fill-opacity="1" fill-rule="nonzero"/></g><g clip-path="url(#2e7fcd3c59)"><path fill="#000000" d="M 489.859375 384.308594 L 538.140625 384.308594 L 538.140625 432.589844 L 489.859375 432.589844 Z M 489.859375 384.308594 " fill-opacity="1" fill-rule="nonzero"/></g><g clip-path="url(#430fdfade0)"><path fill="#000000" d="M 489.859375 431.839844 L 538.140625 431.839844 L 538.140625 480.117188 L 489.859375 480.117188 Z M 489.859375 431.839844 " fill-opacity="1" fill-rule="nonzero"/></g><g clip-path="url(#aec3158c59)"><path fill="#000000" d="M 489.859375 479.367188 L 538.140625 479.367188 L 538.140625 527.644531 L 489.859375 527.644531 Z M 489.859375 479.367188 " fill-opacity="1" fill-rule="nonzero"/></g><g clip-path="url(#f2a3b05436)"><path fill="#000000" d="M 489.859375 526.894531 L 538.140625 526.894531 L 538.140625 575.175781 L 489.859375 575.175781 Z M 489.859375 526.894531 " fill-opacity="1" fill-rule="nonzero"/></g><g clip-path="url(#b656e06446)"><path fill="#000000" d="M 489.859375 574.339844 L 538.140625 574.339844 L 538.140625 622.617188 L 489.859375 622.617188 Z M 489.859375 574.339844 " fill-opacity="1" fill-rule="nonzero"/></g><g clip-path="url(#e5ddf41535)"><path fill="#000000" d="M 489.859375 621.867188 L 538.140625 621.867188 L 538.140625 670.144531 L 489.859375 670.144531 Z M 489.859375 621.867188 " fill-opacity="1" fill-rule="nonzero"/></g><g clip-path="url(#b5e233b119)"><path fill="#000000" d="M 489.859375 670.058594 L 538.140625 670.058594 L 538.140625 718.339844 L 489.859375 718.339844 Z M 489.859375 670.058594 " fill-opacity="1" fill-rule="nonzero"/></g><g clip-path="url(#6cb07f2c6d)"><path fill="#000000" d="M 537.390625 670.058594 L 585.667969 670.058594 L 585.667969 718.339844 L 537.390625 718.339844 Z M 537.390625 670.058594 " fill-opacity="1" fill-rule="nonzero"/></g><g clip-path="url(#decaa22da0)"><path fill="#000000" d="M 581.640625 670.058594 L 629.917969 670.058594 L 629.917969 718.339844 L 581.640625 718.339844 Z M 581.640625 670.058594 " fill-opacity="1" fill-rule="nonzero"/></g><g clip-path="url(#f6ee369ad3)"><path fill="#000000" d="M 629.167969 670.058594 L 677.445312 670.058594 L 677.445312 718.339844 L 629.167969 718.339844 Z M 629.167969 670.058594 " fill-opacity="1" fill-rule="nonzero"/></g><g clip-path="url(#4cc3803f44)"><path fill="#000000" d="M 676.695312 670.058594 L 724.976562 670.058594 L 724.976562 718.339844 L 676.695312 718.339844 Z M 676.695312 670.058594 " fill-opacity="1" fill-rule="nonzero"/></g><g clip-path="url(#6373bd0e22)"><path fill="#000000" d="M 724.226562 670.058594 L 772.503906 670.058594 L 772.503906 718.339844 L 724.226562 718.339844 Z M 724.226562 670.058594 " fill-opacity="1" fill-rule="nonzero"/></g><g clip-path="url(#54e68101a4)"><path fill="#000000" d="M 771.753906 670.058594 L 820.03125 670.058594 L 820.03125 718.339844 L 771.753906 718.339844 Z M 771.753906 670.058594 " fill-opacity="1" fill-rule="nonzero"/></g><g clip-path="url(#0f50b845de)"><path fill="#000000" d="M 819.003906 670.058594 L 867.28125 670.058594 L 867.28125 718.339844 L 819.003906 718.339844 Z M 819.003906 670.058594 " fill-opacity="1" fill-rule="nonzero"/></g><g clip-path="url(#d9d0faa124)"><path fill="#000000" d="M 866.53125 670.058594 L 914.808594 670.058594 L 914.808594 718.339844 L 866.53125 718.339844 Z M 866.53125 670.058594 " fill-opacity="1" fill-rule="nonzero"/></g><g clip-path="url(#df0ccd59d7)"><path fill="#000000" d="M 866.53125 717.503906 L 914.808594 717.503906 L 914.808594 765.78125 L 866.53125 765.78125 Z M 866.53125 717.503906 " fill-opacity="1" fill-rule="nonzero"/></g><g clip-path="url(#f0b66670e1)"><path fill="#000000" d="M 866.53125 765.03125 L 914.808594 765.03125 L 914.808594 813.308594 L 866.53125 813.308594 Z M 866.53125 765.03125 " fill-opacity="1" fill-rule="nonzero"/></g><g clip-path="url(#3a781849ca)"><path fill="#000000" d="M 112.910156 290.667969 L 161.191406 290.667969 L 161.191406 338.945312 L 112.910156 338.945312 Z M 112.910156 290.667969 " fill-opacity="1" fill-rule="nonzero"/></g><g clip-path="url(#c081109f8e)"><path fill="#000000" d="M 112.910156 338.195312 L 161.191406 338.195312 L 161.191406 386.476562 L 112.910156 386.476562 Z M 112.910156 338.195312 " fill-opacity="1" fill-rule="nonzero"/></g><g clip-path="url(#b057665750)"><path fill="#000000" d="M 65.382812 338.195312 L 113.660156 338.195312 L 113.660156 386.476562 L 65.382812 386.476562 Z M 65.382812 338.195312 " fill-opacity="1" fill-rule="nonzero"/></g><g clip-path="url(#f4babcc61e)"><path fill="#000000" d="M 17.855469 338.195312 L 66.132812 338.195312 L 66.132812 386.476562 L 17.855469 386.476562 Z M 17.855469 338.195312 " fill-opacity="1" fill-rule="nonzero"/></g><g clip-path="url(#20e209c00c)"><path fill="#000000" d="M 17.855469 384.308594 L 66.132812 384.308594 L 66.132812 432.589844 L 17.855469 432.589844 Z M 17.855469 384.308594 " fill-opacity="1" fill-rule="nonzero"/></g><g clip-path="url(#ff27b93340)"><path fill="#000000" d="M 17.855469 431.839844 L 66.132812 431.839844 L 66.132812 480.117188 L 17.855469 480.117188 Z M 17.855469 431.839844 " fill-opacity="1" fill-rule="nonzero"/></g><g clip-path="url(#ef8e692cb7)"><path fill="#000000" d="M 17.855469 479.367188 L 66.132812 479.367188 L 66.132812 527.644531 L 17.855469 527.644531 Z M 17.855469 479.367188 " fill-opacity="1" fill-rule="nonzero"/></g><g clip-path="url(#5a3d3f9e35)"><path fill="#000000" d="M 65.382812 479.367188 L 113.660156 479.367188 L 113.660156 527.644531 L 65.382812 527.644531 Z M 65.382812 479.367188 " fill-opacity="1" fill-rule="nonzero"/></g><g clip-path="url(#25ecc4a2a5)"><path fill="#000000" d="M 112.910156 479.367188 L 161.191406 479.367188 L 161.191406 527.644531 L 112.910156 527.644531 Z M 112.910156 479.367188 " fill-opacity="1" fill-rule="nonzero"/></g><g clip-path="url(#0d854814e4)"><path fill="#000000" d="M 112.910156 431.839844 L 161.191406 431.839844 L 161.191406 480.117188 L 112.910156 480.117188 Z M 112.910156 431.839844 " fill-opacity="1" fill-rule="nonzero"/></g><g clip-path="url(#80d84736e7)"><path fill="#000000" d="M 154.71875 431.839844 L 202.996094 431.839844 L 202.996094 480.117188 L 154.71875 480.117188 Z M 154.71875 431.839844 " fill-opacity="1" fill-rule="nonzero"/></g><g clip-path="url(#887e0790b6)"><path fill="#000000" d="M 202.71875 431.839844 L 250.996094 431.839844 L 250.996094 480.117188 L 202.71875 480.117188 Z M 202.71875 431.839844 " fill-opacity="1" fill-rule="nonzero"/></g><g clip-path="url(#d688a0dca0)"><path fill="#000000" d="M 202.71875 384.308594 L 250.996094 384.308594 L 250.996094 432.589844 L 202.71875 432.589844 Z M 202.71875 384.308594 " fill-opacity="1" fill-rule="nonzero"/></g><g clip-path="url(#711aaf7080)"><path fill="#000000" d="M 250.996094 384.308594 L 299.277344 384.308594 L 299.277344 432.589844 L 250.996094 432.589844 Z M 250.996094 384.308594 " fill-opacity="1" fill-rule="nonzero"/></g><g clip-path="url(#725db27ea7)"><path fill="#000000" d="M 298.527344 384.308594 L 346.804688 384.308594 L 346.804688 432.589844 L 298.527344 432.589844 Z M 298.527344 384.308594 " fill-opacity="1" fill-rule="nonzero"/></g><g clip-path="url(#688b384dd9)"><path fill="#000000" d="M 346.804688 384.308594 L 395.082031 384.308594 L 395.082031 432.589844 L 346.804688 432.589844 Z M 346.804688 384.308594 " fill-opacity="1" fill-rule="nonzero"/></g><g clip-path="url(#8740ce4889)"><path fill="#000000" d="M 346.804688 431.839844 L 395.082031 431.839844 L 395.082031 480.117188 L 346.804688 480.117188 Z M 346.804688 431.839844 " fill-opacity="1" fill-rule="nonzero"/></g><g clip-path="url(#95b5afe2d8)"><path fill="#000000" d="M 298.527344 479.367188 L 346.804688 479.367188 L 346.804688 527.644531 L 298.527344 527.644531 Z M 298.527344 479.367188 " fill-opacity="1" fill-rule="nonzero"/></g><g clip-path="url(#a6e9dfc833)"><path fill="#000000" d="M 346.804688 479.367188 L 395.082031 479.367188 L 395.082031 527.644531 L 346.804688 527.644531 Z M 346.804688 479.367188 " fill-opacity="1" fill-rule="nonzero"/></g><g clip-path="url(#fc579ed6a3)"><path fill="#000000" d="M 298.527344 526.894531 L 346.804688 526.894531 L 346.804688 575.175781 L 298.527344 575.175781 Z M 298.527344 526.894531 " fill-opacity="1" fill-rule="nonzero"/></g><g clip-path="url(#e3f512858f)"><path fill="#000000" d="M 298.527344 574.339844 L 346.804688 574.339844 L 346.804688 622.617188 L 298.527344 622.617188 Z M 298.527344 574.339844 " fill-opacity="1" fill-rule="nonzero"/></g><g clip-path="url(#2131129176)"><path fill="#000000" d="M 346.804688 574.339844 L 395.082031 574.339844 L 395.082031 622.617188 L 346.804688 622.617188 Z M 346.804688 574.339844 " fill-opacity="1" fill-rule="nonzero"/></g><g clip-path="url(#7e45566574)"><path fill="#000000" d="M 395.082031 574.339844 L 443.359375 574.339844 L 443.359375 622.617188 L 395.082031 622.617188 Z M 395.082031 574.339844 " fill-opacity="1" fill-rule="nonzero"/></g><g clip-path="url(#ec6bb602a6)"><path fill="#000000" d="M 395.082031 431.839844 L 443.359375 431.839844 L 443.359375 480.117188 L 395.082031 480.117188 Z M 395.082031 431.839844 " fill-opacity="1" fill-rule="nonzero"/></g><g clip-path="url(#800927c0b4)"><path fill="#000000" d="M 395.082031 479.367188 L 443.359375 479.367188 L 443.359375 527.644531 L 395.082031 527.644531 Z M 395.082031 479.367188 " fill-opacity="1" fill-rule="nonzero"/></g><g clip-path="url(#5bdcf86c61)"><path fill="#000000" d="M 489.859375 717.503906 L 538.140625 717.503906 L 538.140625 765.78125 L 489.859375 765.78125 Z M 489.859375 717.503906 " fill-opacity="1" fill-rule="nonzero"/></g><g clip-path="url(#cafd56111f)"><path fill="#000000" d="M 442.609375 574.339844 L 490.890625 574.339844 L 490.890625 622.617188 L 442.609375 622.617188 Z M 442.609375 574.339844 " fill-opacity="1" fill-rule="nonzero"/></g><g clip-path="url(#17cfdad72d)"><path fill="#000000" d="M 17.855469 6.976562 L 66.132812 6.976562 L 66.132812 55.253906 L 17.855469 55.253906 Z M 17.855469 6.976562 " fill-opacity="1" fill-rule="nonzero"/></g><g clip-path="url(#5a908ab971)"><path fill="#000000" d="M 17.855469 -40.53125 L 66.132812 -40.53125 L 66.132812 7.746094 L 17.855469 7.746094 Z M 17.855469 -40.53125 " fill-opacity="1" fill-rule="nonzero"/></g><g clip-path="url(#88fdfb98ec)"><path fill="#000000" d="M 65.382812 526.894531 L 113.660156 526.894531 L 113.660156 575.175781 L 65.382812 575.175781 Z M 65.382812 526.894531 " fill-opacity="1" fill-rule="nonzero"/></g><g clip-path="url(#07c339c004)"><path fill="#000000" d="M 65.382812 574.339844 L 113.660156 574.339844 L 113.660156 622.617188 L 65.382812 622.617188 Z M 65.382812 574.339844 " fill-opacity="1" fill-rule="nonzero"/></g><g clip-path="url(#2d56deef31)"><path fill="#000000" d="M 65.382812 621.867188 L 113.660156 621.867188 L 113.660156 670.144531 L 65.382812 670.144531 Z M 65.382812 621.867188 " fill-opacity="1" fill-rule="nonzero"/></g><g clip-path="url(#3d32d52b3d)"><path fill="#000000" d="M 65.382812 670.058594 L 113.660156 670.058594 L 113.660156 718.339844 L 65.382812 718.339844 Z M 65.382812 670.058594 " fill-opacity="1" fill-rule="nonzero"/></g><g clip-path="url(#6cda88c676)"><path fill="#000000" d="M 65.382812 717.503906 L 113.660156 717.503906 L 113.660156 765.78125 L 65.382812 765.78125 Z M 65.382812 717.503906 " fill-opacity="1" fill-rule="nonzero"/></g><g clip-path="url(#552f0f0634)"><path fill="#000000" d="M 65.382812 765.03125 L 113.660156 765.03125 L 113.660156 813.308594 L 65.382812 813.308594 Z M 65.382812 765.03125 " fill-opacity="1" fill-rule="nonzero"/></g><g clip-path="url(#238054cee2)"><path fill="#000000" d="M 112.910156 717.503906 L 161.191406 717.503906 L 161.191406 765.78125 L 112.910156 765.78125 Z M 112.910156 717.503906 " fill-opacity="1" fill-rule="nonzero"/></g><g clip-path="url(#41e552cfd1)"><path fill="#000000" d="M 154.71875 717.503906 L 202.996094 717.503906 L 202.996094 765.78125 L 154.71875 765.78125 Z M 154.71875 717.503906 " fill-opacity="1" fill-rule="nonzero"/></g><g clip-path="url(#5fcc0fcf76)"><path fill="#000000" d="M 202.71875 717.503906 L 250.996094 717.503906 L 250.996094 765.78125 L 202.71875 765.78125 Z M 202.71875 717.503906 " fill-opacity="1" fill-rule="nonzero"/></g><g clip-path="url(#ebcd3d1455)"><path fill="#000000" d="M 250.996094 717.503906 L 299.277344 717.503906 L 299.277344 765.78125 L 250.996094 765.78125 Z M 250.996094 717.503906 " fill-opacity="1" fill-rule="nonzero"/></g><g clip-path="url(#24a4ba9ce6)"><path fill="#000000" d="M 298.527344 717.503906 L 346.804688 717.503906 L 346.804688 765.78125 L 298.527344 765.78125 Z M 298.527344 717.503906 " fill-opacity="1" fill-rule="nonzero"/></g><g clip-path="url(#a12f5c9c0c)"><path fill="#000000" d="M 298.527344 621.867188 L 346.804688 621.867188 L 346.804688 670.144531 L 298.527344 670.144531 Z M 298.527344 621.867188 " fill-opacity="1" fill-rule="nonzero"/></g><g clip-path="url(#607d861c51)"><path fill="#000000" d="M 250.996094 621.867188 L 299.277344 621.867188 L 299.277344 670.144531 L 250.996094 670.144531 Z M 250.996094 621.867188 " fill-opacity="1" fill-rule="nonzero"/></g><g clip-path="url(#7f470beb74)"><path fill="#000000" d="M 202.71875 621.867188 L 250.996094 621.867188 L 250.996094 670.144531 L 202.71875 670.144531 Z M 202.71875 621.867188 " fill-opacity="1" fill-rule="nonzero"/></g><g clip-path="url(#2180fbd2f4)"><path fill="#000000" d="M 154.71875 621.867188 L 202.996094 621.867188 L 202.996094 670.144531 L 154.71875 670.144531 Z M 154.71875 621.867188 " fill-opacity="1" fill-rule="nonzero"/></g><g clip-path="url(#bb376c1bd4)"><path fill="#000000" d="M 154.71875 574.339844 L 202.996094 574.339844 L 202.996094 622.617188 L 154.71875 622.617188 Z M 154.71875 574.339844 " fill-opacity="1" fill-rule="nonzero"/></g><g clip-path="url(#06ac5020eb)"><path fill="#000000" d="M 202.71875 526.894531 L 250.996094 526.894531 L 250.996094 575.175781 L 202.71875 575.175781 Z M 202.71875 526.894531 " fill-opacity="1" fill-rule="nonzero"/></g><g clip-path="url(#011283623f)"><path fill="#000000" d="M 202.71875 574.339844 L 250.996094 574.339844 L 250.996094 622.617188 L 202.71875 622.617188 Z M 202.71875 574.339844 " fill-opacity="1" fill-rule="nonzero"/></g><g clip-path="url(#a737d1ed14)"><path fill="#000000" d="M 395.082031 621.867188 L 443.359375 621.867188 L 443.359375 670.144531 L 395.082031 670.144531 Z M 395.082031 621.867188 " fill-opacity="1" fill-rule="nonzero"/></g><g clip-path="url(#992d7c9326)"><path fill="#000000" d="M 395.082031 670.058594 L 443.359375 670.058594 L 443.359375 718.339844 L 395.082031 718.339844 Z M 395.082031 670.058594 " fill-opacity="1" fill-rule="nonzero"/></g><g clip-path="url(#537f1ba269)"><path fill="#000000" d="M 395.082031 717.503906 L 443.359375 717.503906 L 443.359375 765.78125 L 395.082031 765.78125 Z M 395.082031 717.503906 " fill-opacity="1" fill-rule="nonzero"/></g></svg>