<svg xmlns="http://www.w3.org/2000/svg" xmlns:xlink="http://www.w3.org/1999/xlink" width="1920" zoomAndPan="magnify" viewBox="0 0 1440 809.999993" height="1080" preserveAspectRatio="xMidYMid meet" version="1.0"><defs><clipPath id="8ae6f76c94"><path d="M 451.546875 485.332031 L 499.824219 485.332031 L 499.824219 533.609375 L 451.546875 533.609375 Z M 451.546875 485.332031 " clip-rule="nonzero"/></clipPath><clipPath id="67a2af265f"><path d="M 499.824219 437.050781 L 548.101562 437.050781 L 548.101562 485.332031 L 499.824219 485.332031 Z M 499.824219 437.050781 " clip-rule="nonzero"/></clipPath><clipPath id="16ada6cb34"><path d="M 548.101562 437.050781 L 596.378906 437.050781 L 596.378906 485.332031 L 548.101562 485.332031 Z M 548.101562 437.050781 " clip-rule="nonzero"/></clipPath><clipPath id="600fee9f46"><path d="M 596.378906 485.332031 L 644.660156 485.332031 L 644.660156 533.609375 L 596.378906 533.609375 Z M 596.378906 485.332031 " clip-rule="nonzero"/></clipPath><clipPath id="ee416131d8"><path d="M 548.101562 533.609375 L 596.378906 533.609375 L 596.378906 581.886719 L 548.101562 581.886719 Z M 548.101562 533.609375 " clip-rule="nonzero"/></clipPath><clipPath id="741abaf1f4"><path d="M 523.964844 581.886719 L 572.242188 581.886719 L 572.242188 630.164062 L 523.964844 630.164062 Z M 523.964844 581.886719 " clip-rule="nonzero"/></clipPath><clipPath id="df22530de8"><path d="M 523.964844 678.164062 L 572.242188 678.164062 L 572.242188 726.445312 L 523.964844 726.445312 Z M 523.964844 678.164062 " clip-rule="nonzero"/></clipPath><clipPath id="a3014f3d29"><path d="M 795.339844 487.886719 L 843.621094 487.886719 L 843.621094 536.164062 L 795.339844 536.164062 Z M 795.339844 487.886719 " clip-rule="nonzero"/></clipPath><clipPath id="86e3de94c6"><path d="M 843.621094 439.609375 L 891.898438 439.609375 L 891.898438 487.886719 L 843.621094 487.886719 Z M 843.621094 439.609375 " clip-rule="nonzero"/></clipPath><clipPath id="b09a849186"><path d="M 891.898438 439.609375 L 940.175781 439.609375 L 940.175781 487.886719 L 891.898438 487.886719 Z M 891.898438 439.609375 " clip-rule="nonzero"/></clipPath><clipPath id="a74051fa08"><path d="M 940.175781 487.886719 L 988.453125 487.886719 L 988.453125 536.164062 L 940.175781 536.164062 Z M 940.175781 487.886719 " clip-rule="nonzero"/></clipPath><clipPath id="f0b8fcece9"><path d="M 891.898438 536.164062 L 940.175781 536.164062 L 940.175781 584.441406 L 891.898438 584.441406 Z M 891.898438 536.164062 " clip-rule="nonzero"/></clipPath><clipPath id="5157ef1a22"><path d="M 867.757812 584.441406 L 916.035156 584.441406 L 916.035156 632.722656 L 867.757812 632.722656 Z M 867.757812 584.441406 " clip-rule="nonzero"/></clipPath><clipPath id="6a7ba85e8a"><path d="M 867.757812 680.722656 L 916.035156 680.722656 L 916.035156 729 L 867.757812 729 Z M 867.757812 680.722656 " clip-rule="nonzero"/></clipPath><clipPath id="45f0940386"><path d="M 107.75 487.886719 L 156.027344 487.886719 L 156.027344 536.164062 L 107.75 536.164062 Z M 107.75 487.886719 " clip-rule="nonzero"/></clipPath><clipPath id="7d24aa17f0"><path d="M 156.027344 439.609375 L 204.304688 439.609375 L 204.304688 487.886719 L 156.027344 487.886719 Z M 156.027344 439.609375 " clip-rule="nonzero"/></clipPath><clipPath id="d6cc2177e8"><path d="M 204.308594 439.609375 L 252.585938 439.609375 L 252.585938 487.886719 L 204.308594 487.886719 Z M 204.308594 439.609375 " clip-rule="nonzero"/></clipPath><clipPath id="3dfe1a9483"><path d="M 252.585938 487.886719 L 300.863281 487.886719 L 300.863281 536.164062 L 252.585938 536.164062 Z M 252.585938 487.886719 " clip-rule="nonzero"/></clipPath><clipPath id="3c5528f908"><path d="M 204.308594 536.164062 L 252.585938 536.164062 L 252.585938 584.441406 L 204.308594 584.441406 Z M 204.308594 536.164062 " clip-rule="nonzero"/></clipPath><clipPath id="6d8ea43a2e"><path d="M 180.167969 584.441406 L 228.445312 584.441406 L 228.445312 632.722656 L 180.167969 632.722656 Z M 180.167969 584.441406 " clip-rule="nonzero"/></clipPath><clipPath id="e0c254f070"><path d="M 180.167969 680.722656 L 228.445312 680.722656 L 228.445312 729 L 180.167969 729 Z M 180.167969 680.722656 " clip-rule="nonzero"/></clipPath><clipPath id="2f0b186dbc"><path d="M 1139.136719 487.886719 L 1187.414062 487.886719 L 1187.414062 536.164062 L 1139.136719 536.164062 Z M 1139.136719 487.886719 " clip-rule="nonzero"/></clipPath><clipPath id="b124082c9c"><path d="M 1187.414062 439.609375 L 1235.691406 439.609375 L 1235.691406 487.886719 L 1187.414062 487.886719 Z M 1187.414062 439.609375 " clip-rule="nonzero"/></clipPath><clipPath id="9b0423af24"><path d="M 1235.691406 439.609375 L 1283.972656 439.609375 L 1283.972656 487.886719 L 1235.691406 487.886719 Z M 1235.691406 439.609375 " clip-rule="nonzero"/></clipPath><clipPath id="d134cc99bd"><path d="M 1283.972656 487.886719 L 1332.25 487.886719 L 1332.25 536.164062 L 1283.972656 536.164062 Z M 1283.972656 487.886719 " clip-rule="nonzero"/></clipPath><clipPath id="90e6835c4b"><path d="M 1235.691406 536.164062 L 1283.972656 536.164062 L 1283.972656 584.441406 L 1235.691406 584.441406 Z M 1235.691406 536.164062 " clip-rule="nonzero"/></clipPath><clipPath id="f3690f5192"><path d="M 1211.554688 584.441406 L 1259.832031 584.441406 L 1259.832031 632.722656 L 1211.554688 632.722656 Z M 1211.554688 584.441406 " clip-rule="nonzero"/></clipPath><clipPath id="040f7f7b9e"><path d="M 1211.554688 680.722656 L 1259.832031 680.722656 L 1259.832031 729 L 1211.554688 729 Z M 1211.554688 680.722656 " clip-rule="nonzero"/></clipPath><clipPath id="20cc1ab9fa"><path d="M 258.429688 129.277344 L 306.710938 129.277344 L 306.710938 177.558594 L 258.429688 177.558594 Z M 258.429688 129.277344 " clip-rule="nonzero"/></clipPath><clipPath id="a89982e595"><path d="M 306.710938 81 L 354.988281 81 L 354.988281 129.277344 L 306.710938 129.277344 Z M 306.710938 81 " clip-rule="nonzero"/></clipPath><clipPath id="b3ac684bd1"><path d="M 354.988281 81 L 403.265625 81 L 403.265625 129.277344 L 354.988281 129.277344 Z M 354.988281 81 " clip-rule="nonzero"/></clipPath><clipPath id="ddd4ba2b35"><path d="M 403.265625 129.277344 L 451.546875 129.277344 L 451.546875 177.558594 L 403.265625 177.558594 Z M 403.265625 129.277344 " clip-rule="nonzero"/></clipPath><clipPath id="b6d5f202bc"><path d="M 354.988281 177.558594 L 403.265625 177.558594 L 403.265625 225.835938 L 354.988281 225.835938 Z M 354.988281 177.558594 " clip-rule="nonzero"/></clipPath><clipPath id="580de5fa2f"><path d="M 330.847656 225.835938 L 379.128906 225.835938 L 379.128906 274.113281 L 330.847656 274.113281 Z M 330.847656 225.835938 " clip-rule="nonzero"/></clipPath><clipPath id="a9c736e19a"><path d="M 330.847656 322.113281 L 379.128906 322.113281 L 379.128906 370.390625 L 330.847656 370.390625 Z M 330.847656 322.113281 " clip-rule="nonzero"/></clipPath><clipPath id="baa9d7d16b"><path d="M 602.226562 131.835938 L 650.503906 131.835938 L 650.503906 180.113281 L 602.226562 180.113281 Z M 602.226562 131.835938 " clip-rule="nonzero"/></clipPath><clipPath id="fd6375704c"><path d="M 650.503906 83.554688 L 698.785156 83.554688 L 698.785156 131.835938 L 650.503906 131.835938 Z M 650.503906 83.554688 " clip-rule="nonzero"/></clipPath><clipPath id="9903a24bcb"><path d="M 698.785156 83.554688 L 747.0625 83.554688 L 747.0625 131.835938 L 698.785156 131.835938 Z M 698.785156 83.554688 " clip-rule="nonzero"/></clipPath><clipPath id="57211936d1"><path d="M 747.0625 131.835938 L 795.339844 131.835938 L 795.339844 180.113281 L 747.0625 180.113281 Z M 747.0625 131.835938 " clip-rule="nonzero"/></clipPath><clipPath id="0a5763268d"><path d="M 698.785156 180.113281 L 747.0625 180.113281 L 747.0625 228.390625 L 698.785156 228.390625 Z M 698.785156 180.113281 " clip-rule="nonzero"/></clipPath><clipPath id="8ca969f094"><path d="M 674.644531 228.390625 L 722.921875 228.390625 L 722.921875 276.667969 L 674.644531 276.667969 Z M 674.644531 228.390625 " clip-rule="nonzero"/></clipPath><clipPath id="eda53fc770"><path d="M 674.644531 324.667969 L 722.921875 324.667969 L 722.921875 372.949219 L 674.644531 372.949219 Z M 674.644531 324.667969 " clip-rule="nonzero"/></clipPath><clipPath id="833ac32596"><path d="M 0 83.554688 L 11.191406 83.554688 L 11.191406 131.835938 L 0 131.835938 Z M 0 83.554688 " clip-rule="nonzero"/></clipPath><clipPath id="0c70dd8455"><path d="M 11.191406 83.554688 L 59.472656 83.554688 L 59.472656 131.835938 L 11.191406 131.835938 Z M 11.191406 83.554688 " clip-rule="nonzero"/></clipPath><clipPath id="300ec73dc9"><path d="M 59.472656 131.835938 L 107.75 131.835938 L 107.75 180.113281 L 59.472656 180.113281 Z M 59.472656 131.835938 " clip-rule="nonzero"/></clipPath><clipPath id="b5846951d8"><path d="M 11.191406 180.113281 L 59.472656 180.113281 L 59.472656 228.390625 L 11.191406 228.390625 Z M 11.191406 180.113281 " clip-rule="nonzero"/></clipPath><clipPath id="323ac330d2"><path d="M 0 228.390625 L 35.332031 228.390625 L 35.332031 276.667969 L 0 276.667969 Z M 0 228.390625 " clip-rule="nonzero"/></clipPath><clipPath id="ab2db2722e"><path d="M 0 324.667969 L 35.332031 324.667969 L 35.332031 372.949219 L 0 372.949219 Z M 0 324.667969 " clip-rule="nonzero"/></clipPath><clipPath id="cce367dbca"><path d="M 946.023438 131.835938 L 994.300781 131.835938 L 994.300781 180.113281 L 946.023438 180.113281 Z M 946.023438 131.835938 " clip-rule="nonzero"/></clipPath><clipPath id="f22f833408"><path d="M 994.300781 83.554688 L 1042.578125 83.554688 L 1042.578125 131.835938 L 994.300781 131.835938 Z M 994.300781 83.554688 " clip-rule="nonzero"/></clipPath><clipPath id="739748ef8e"><path d="M 1042.578125 83.554688 L 1090.859375 83.554688 L 1090.859375 131.835938 L 1042.578125 131.835938 Z M 1042.578125 83.554688 " clip-rule="nonzero"/></clipPath><clipPath id="1d8c3ef727"><path d="M 1090.859375 131.835938 L 1139.136719 131.835938 L 1139.136719 180.113281 L 1090.859375 180.113281 Z M 1090.859375 131.835938 " clip-rule="nonzero"/></clipPath><clipPath id="4fdd5c4d45"><path d="M 1042.578125 180.113281 L 1090.859375 180.113281 L 1090.859375 228.390625 L 1042.578125 228.390625 Z M 1042.578125 180.113281 " clip-rule="nonzero"/></clipPath><clipPath id="8257d33761"><path d="M 1018.441406 228.390625 L 1066.71875 228.390625 L 1066.71875 276.667969 L 1018.441406 276.667969 Z M 1018.441406 228.390625 " clip-rule="nonzero"/></clipPath><clipPath id="279c81bbe1"><path d="M 1018.441406 324.667969 L 1066.71875 324.667969 L 1066.71875 372.949219 L 1018.441406 372.949219 Z M 1018.441406 324.667969 " clip-rule="nonzero"/></clipPath><clipPath id="c0469b2ce2"><path d="M 1262.441406 131.835938 L 1310.722656 131.835938 L 1310.722656 180.113281 L 1262.441406 180.113281 Z M 1262.441406 131.835938 " clip-rule="nonzero"/></clipPath><clipPath id="3f85b10366"><path d="M 1310.722656 83.554688 L 1359 83.554688 L 1359 131.835938 L 1310.722656 131.835938 Z M 1310.722656 83.554688 " clip-rule="nonzero"/></clipPath><clipPath id="acea64b3d5"><path d="M 1359 83.554688 L 1407.277344 83.554688 L 1407.277344 131.835938 L 1359 131.835938 Z M 1359 83.554688 " clip-rule="nonzero"/></clipPath><clipPath id="798d1fdd8a"><path d="M 1407.277344 131.835938 L 1440 131.835938 L 1440 180.113281 L 1407.277344 180.113281 Z M 1407.277344 131.835938 " clip-rule="nonzero"/></clipPath><clipPath id="d0d180e62b"><path d="M 1359 180.113281 L 1407.277344 180.113281 L 1407.277344 228.390625 L 1359 228.390625 Z M 1359 180.113281 " clip-rule="nonzero"/></clipPath><clipPath id="7bdfa104c8"><path d="M 1334.859375 228.390625 L 1383.140625 228.390625 L 1383.140625 276.667969 L 1334.859375 276.667969 Z M 1334.859375 228.390625 " clip-rule="nonzero"/></clipPath><clipPath id="1b4494aa41"><path d="M 1334.859375 324.667969 L 1383.140625 324.667969 L 1383.140625 372.949219 L 1334.859375 372.949219 Z M 1334.859375 324.667969 " clip-rule="nonzero"/></clipPath></defs><rect x="-144" width="1728" fill="#ffffff" y="-80.999999" height="971.999992" fill-opacity="1"/><rect x="-144" width="1728" fill="#ffffff" y="-80.999999" height="971.999992" fill-opacity="1"/><rect x="-144" width="1728" fill="#0d2649" y="-80.999999" height="971.999992" fill-opacity="1"/><g clip-path="url(#8ae6f76c94)"><path fill="#ff66c4" d="M 451.546875 485.332031 L 499.824219 485.332031 L 499.824219 533.609375 L 451.546875 533.609375 Z M 451.546875 485.332031 " fill-opacity="1" fill-rule="nonzero"/></g><g clip-path="url(#67a2af265f)"><path fill="#ff66c4" d="M 499.824219 437.050781 L 548.101562 437.050781 L 548.101562 485.332031 L 499.824219 485.332031 Z M 499.824219 437.050781 " fill-opacity="1" fill-rule="nonzero"/></g><g clip-path="url(#16ada6cb34)"><path fill="#ff66c4" d="M 548.101562 437.050781 L 596.378906 437.050781 L 596.378906 485.332031 L 548.101562 485.332031 Z M 548.101562 437.050781 " fill-opacity="1" fill-rule="nonzero"/></g><g clip-path="url(#600fee9f46)"><path fill="#ff66c4" d="M 596.378906 485.332031 L 644.660156 485.332031 L 644.660156 533.609375 L 596.378906 533.609375 Z M 596.378906 485.332031 " fill-opacity="1" fill-rule="nonzero"/></g><g clip-path="url(#ee416131d8)"><path fill="#ff66c4" d="M 548.101562 533.609375 L 596.378906 533.609375 L 596.378906 581.886719 L 548.101562 581.886719 Z M 548.101562 533.609375 " fill-opacity="1" fill-rule="nonzero"/></g><g clip-path="url(#741abaf1f4)"><path fill="#ff66c4" d="M 523.964844 581.886719 L 572.242188 581.886719 L 572.242188 630.164062 L 523.964844 630.164062 Z M 523.964844 581.886719 " fill-opacity="1" fill-rule="nonzero"/></g><g clip-path="url(#df22530de8)"><path fill="#ff66c4" d="M 523.964844 678.164062 L 572.242188 678.164062 L 572.242188 726.445312 L 523.964844 726.445312 Z M 523.964844 678.164062 " fill-opacity="1" fill-rule="nonzero"/></g><g clip-path="url(#a3014f3d29)"><path fill="#004aad" d="M 795.339844 487.886719 L 843.621094 487.886719 L 843.621094 536.164062 L 795.339844 536.164062 Z M 795.339844 487.886719 " fill-opacity="1" fill-rule="nonzero"/></g><g clip-path="url(#86e3de94c6)"><path fill="#004aad" d="M 843.621094 439.609375 L 891.898438 439.609375 L 891.898438 487.886719 L 843.621094 487.886719 Z M 843.621094 439.609375 " fill-opacity="1" fill-rule="nonzero"/></g><g clip-path="url(#b09a849186)"><path fill="#004aad" d="M 891.898438 439.609375 L 940.175781 439.609375 L 940.175781 487.886719 L 891.898438 487.886719 Z M 891.898438 439.609375 " fill-opacity="1" fill-rule="nonzero"/></g><g clip-path="url(#a74051fa08)"><path fill="#004aad" d="M 940.175781 487.886719 L 988.453125 487.886719 L 988.453125 536.164062 L 940.175781 536.164062 Z M 940.175781 487.886719 " fill-opacity="1" fill-rule="nonzero"/></g><g clip-path="url(#f0b8fcece9)"><path fill="#004aad" d="M 891.898438 536.164062 L 940.175781 536.164062 L 940.175781 584.441406 L 891.898438 584.441406 Z M 891.898438 536.164062 " fill-opacity="1" fill-rule="nonzero"/></g><g clip-path="url(#5157ef1a22)"><path fill="#004aad" d="M 867.757812 584.441406 L 916.035156 584.441406 L 916.035156 632.722656 L 867.757812 632.722656 Z M 867.757812 584.441406 " fill-opacity="1" fill-rule="nonzero"/></g><g clip-path="url(#6a7ba85e8a)"><path fill="#004aad" d="M 867.757812 680.722656 L 916.035156 680.722656 L 916.035156 729 L 867.757812 729 Z M 867.757812 680.722656 " fill-opacity="1" fill-rule="nonzero"/></g><g clip-path="url(#45f0940386)"><path fill="#004aad" d="M 107.75 487.886719 L 156.027344 487.886719 L 156.027344 536.164062 L 107.75 536.164062 Z M 107.75 487.886719 " fill-opacity="1" fill-rule="nonzero"/></g><g clip-path="url(#7d24aa17f0)"><path fill="#004aad" d="M 156.027344 439.609375 L 204.304688 439.609375 L 204.304688 487.886719 L 156.027344 487.886719 Z M 156.027344 439.609375 " fill-opacity="1" fill-rule="nonzero"/></g><g clip-path="url(#d6cc2177e8)"><path fill="#004aad" d="M 204.308594 439.609375 L 252.585938 439.609375 L 252.585938 487.886719 L 204.308594 487.886719 Z M 204.308594 439.609375 " fill-opacity="1" fill-rule="nonzero"/></g><g clip-path="url(#3dfe1a9483)"><path fill="#004aad" d="M 252.585938 487.886719 L 300.863281 487.886719 L 300.863281 536.164062 L 252.585938 536.164062 Z M 252.585938 487.886719 " fill-opacity="1" fill-rule="nonzero"/></g><g clip-path="url(#3c5528f908)"><path fill="#004aad" d="M 204.308594 536.164062 L 252.585938 536.164062 L 252.585938 584.441406 L 204.308594 584.441406 Z M 204.308594 536.164062 " fill-opacity="1" fill-rule="nonzero"/></g><g clip-path="url(#6d8ea43a2e)"><path fill="#004aad" d="M 180.167969 584.441406 L 228.445312 584.441406 L 228.445312 632.722656 L 180.167969 632.722656 Z M 180.167969 584.441406 " fill-opacity="1" fill-rule="nonzero"/></g><g clip-path="url(#e0c254f070)"><path fill="#004aad" d="M 180.167969 680.722656 L 228.445312 680.722656 L 228.445312 729 L 180.167969 729 Z M 180.167969 680.722656 " fill-opacity="1" fill-rule="nonzero"/></g><g clip-path="url(#2f0b186dbc)"><path fill="#ffbd59" d="M 1139.136719 487.886719 L 1187.414062 487.886719 L 1187.414062 536.164062 L 1139.136719 536.164062 Z M 1139.136719 487.886719 " fill-opacity="1" fill-rule="nonzero"/></g><g clip-path="url(#b124082c9c)"><path fill="#ffbd59" d="M 1187.414062 439.609375 L 1235.691406 439.609375 L 1235.691406 487.886719 L 1187.414062 487.886719 Z M 1187.414062 439.609375 " fill-opacity="1" fill-rule="nonzero"/></g><g clip-path="url(#9b0423af24)"><path fill="#ffbd59" d="M 1235.691406 439.609375 L 1283.972656 439.609375 L 1283.972656 487.886719 L 1235.691406 487.886719 Z M 1235.691406 439.609375 " fill-opacity="1" fill-rule="nonzero"/></g><g clip-path="url(#d134cc99bd)"><path fill="#ffbd59" d="M 1283.972656 487.886719 L 1332.25 487.886719 L 1332.25 536.164062 L 1283.972656 536.164062 Z M 1283.972656 487.886719 " fill-opacity="1" fill-rule="nonzero"/></g><g clip-path="url(#90e6835c4b)"><path fill="#ffbd59" d="M 1235.691406 536.164062 L 1283.972656 536.164062 L 1283.972656 584.441406 L 1235.691406 584.441406 Z M 1235.691406 536.164062 " fill-opacity="1" fill-rule="nonzero"/></g><g clip-path="url(#f3690f5192)"><path fill="#ffbd59" d="M 1211.554688 584.441406 L 1259.832031 584.441406 L 1259.832031 632.722656 L 1211.554688 632.722656 Z M 1211.554688 584.441406 " fill-opacity="1" fill-rule="nonzero"/></g><g clip-path="url(#040f7f7b9e)"><path fill="#ffbd59" d="M 1211.554688 680.722656 L 1259.832031 680.722656 L 1259.832031 729 L 1211.554688 729 Z M 1211.554688 680.722656 " fill-opacity="1" fill-rule="nonzero"/></g><g clip-path="url(#20cc1ab9fa)"><path fill="#004aad" d="M 258.429688 129.277344 L 306.710938 129.277344 L 306.710938 177.558594 L 258.429688 177.558594 Z M 258.429688 129.277344 " fill-opacity="1" fill-rule="nonzero"/></g><g clip-path="url(#a89982e595)"><path fill="#004aad" d="M 306.710938 81 L 354.988281 81 L 354.988281 129.277344 L 306.710938 129.277344 Z M 306.710938 81 " fill-opacity="1" fill-rule="nonzero"/></g><g clip-path="url(#b3ac684bd1)"><path fill="#004aad" d="M 354.988281 81 L 403.265625 81 L 403.265625 129.277344 L 354.988281 129.277344 Z M 354.988281 81 " fill-opacity="1" fill-rule="nonzero"/></g><g clip-path="url(#ddd4ba2b35)"><path fill="#004aad" d="M 403.265625 129.277344 L 451.546875 129.277344 L 451.546875 177.558594 L 403.265625 177.558594 Z M 403.265625 129.277344 " fill-opacity="1" fill-rule="nonzero"/></g><g clip-path="url(#b6d5f202bc)"><path fill="#004aad" d="M 354.988281 177.558594 L 403.265625 177.558594 L 403.265625 225.835938 L 354.988281 225.835938 Z M 354.988281 177.558594 " fill-opacity="1" fill-rule="nonzero"/></g><g clip-path="url(#580de5fa2f)"><path fill="#004aad" d="M 330.847656 225.835938 L 379.128906 225.835938 L 379.128906 274.113281 L 330.847656 274.113281 Z M 330.847656 225.835938 " fill-opacity="1" fill-rule="nonzero"/></g><g clip-path="url(#a9c736e19a)"><path fill="#004aad" d="M 330.847656 322.113281 L 379.128906 322.113281 L 379.128906 370.390625 L 330.847656 370.390625 Z M 330.847656 322.113281 " fill-opacity="1" fill-rule="nonzero"/></g><g clip-path="url(#baa9d7d16b)"><path fill="#00bf63" d="M 602.226562 131.835938 L 650.503906 131.835938 L 650.503906 180.113281 L 602.226562 180.113281 Z M 602.226562 131.835938 " fill-opacity="1" fill-rule="nonzero"/></g><g clip-path="url(#fd6375704c)"><path fill="#00bf63" d="M 650.503906 83.554688 L 698.785156 83.554688 L 698.785156 131.835938 L 650.503906 131.835938 Z M 650.503906 83.554688 " fill-opacity="1" fill-rule="nonzero"/></g><g clip-path="url(#9903a24bcb)"><path fill="#00bf63" d="M 698.785156 83.554688 L 747.0625 83.554688 L 747.0625 131.835938 L 698.785156 131.835938 Z M 698.785156 83.554688 " fill-opacity="1" fill-rule="nonzero"/></g><g clip-path="url(#57211936d1)"><path fill="#00bf63" d="M 747.0625 131.835938 L 795.339844 131.835938 L 795.339844 180.113281 L 747.0625 180.113281 Z M 747.0625 131.835938 " fill-opacity="1" fill-rule="nonzero"/></g><g clip-path="url(#0a5763268d)"><path fill="#00bf63" d="M 698.785156 180.113281 L 747.0625 180.113281 L 747.0625 228.390625 L 698.785156 228.390625 Z M 698.785156 180.113281 " fill-opacity="1" fill-rule="nonzero"/></g><g clip-path="url(#8ca969f094)"><path fill="#00bf63" d="M 674.644531 228.390625 L 722.921875 228.390625 L 722.921875 276.667969 L 674.644531 276.667969 Z M 674.644531 228.390625 " fill-opacity="1" fill-rule="nonzero"/></g><g clip-path="url(#eda53fc770)"><path fill="#00bf63" d="M 674.644531 324.667969 L 722.921875 324.667969 L 722.921875 372.949219 L 674.644531 372.949219 Z M 674.644531 324.667969 " fill-opacity="1" fill-rule="nonzero"/></g><g clip-path="url(#833ac32596)"><path fill="#cb6ce6" d="M -37.085938 83.554688 L 11.191406 83.554688 L 11.191406 131.835938 L -37.085938 131.835938 Z M -37.085938 83.554688 " fill-opacity="1" fill-rule="nonzero"/></g><g clip-path="url(#0c70dd8455)"><path fill="#cb6ce6" d="M 11.191406 83.554688 L 59.472656 83.554688 L 59.472656 131.835938 L 11.191406 131.835938 Z M 11.191406 83.554688 " fill-opacity="1" fill-rule="nonzero"/></g><g clip-path="url(#300ec73dc9)"><path fill="#cb6ce6" d="M 59.472656 131.835938 L 107.75 131.835938 L 107.75 180.113281 L 59.472656 180.113281 Z M 59.472656 131.835938 " fill-opacity="1" fill-rule="nonzero"/></g><g clip-path="url(#b5846951d8)"><path fill="#cb6ce6" d="M 11.191406 180.113281 L 59.472656 180.113281 L 59.472656 228.390625 L 11.191406 228.390625 Z M 11.191406 180.113281 " fill-opacity="1" fill-rule="nonzero"/></g><g clip-path="url(#323ac330d2)"><path fill="#cb6ce6" d="M -12.945312 228.390625 L 35.332031 228.390625 L 35.332031 276.667969 L -12.945312 276.667969 Z M -12.945312 228.390625 " fill-opacity="1" fill-rule="nonzero"/></g><g clip-path="url(#ab2db2722e)"><path fill="#cb6ce6" d="M -12.945312 324.667969 L 35.332031 324.667969 L 35.332031 372.949219 L -12.945312 372.949219 Z M -12.945312 324.667969 " fill-opacity="1" fill-rule="nonzero"/></g><g clip-path="url(#cce367dbca)"><path fill="#ff5757" d="M 946.023438 131.835938 L 994.300781 131.835938 L 994.300781 180.113281 L 946.023438 180.113281 Z M 946.023438 131.835938 " fill-opacity="1" fill-rule="nonzero"/></g><g clip-path="url(#f22f833408)"><path fill="#ff5757" d="M 994.300781 83.554688 L 1042.578125 83.554688 L 1042.578125 131.835938 L 994.300781 131.835938 Z M 994.300781 83.554688 " fill-opacity="1" fill-rule="nonzero"/></g><g clip-path="url(#739748ef8e)"><path fill="#ff5757" d="M 1042.578125 83.554688 L 1090.859375 83.554688 L 1090.859375 131.835938 L 1042.578125 131.835938 Z M 1042.578125 83.554688 " fill-opacity="1" fill-rule="nonzero"/></g><g clip-path="url(#1d8c3ef727)"><path fill="#ff5757" d="M 1090.859375 131.835938 L 1139.136719 131.835938 L 1139.136719 180.113281 L 1090.859375 180.113281 Z M 1090.859375 131.835938 " fill-opacity="1" fill-rule="nonzero"/></g><g clip-path="url(#4fdd5c4d45)"><path fill="#ff5757" d="M 1042.578125 180.113281 L 1090.859375 180.113281 L 1090.859375 228.390625 L 1042.578125 228.390625 Z M 1042.578125 180.113281 " fill-opacity="1" fill-rule="nonzero"/></g><g clip-path="url(#8257d33761)"><path fill="#ff5757" d="M 1018.441406 228.390625 L 1066.71875 228.390625 L 1066.71875 276.667969 L 1018.441406 276.667969 Z M 1018.441406 228.390625 " fill-opacity="1" fill-rule="nonzero"/></g><g clip-path="url(#279c81bbe1)"><path fill="#ff5757" d="M 1018.441406 324.667969 L 1066.71875 324.667969 L 1066.71875 372.949219 L 1018.441406 372.949219 Z M 1018.441406 324.667969 " fill-opacity="1" fill-rule="nonzero"/></g><g clip-path="url(#c0469b2ce2)"><path fill="#004aad" d="M 1262.441406 131.835938 L 1310.722656 131.835938 L 1310.722656 180.113281 L 1262.441406 180.113281 Z M 1262.441406 131.835938 " fill-opacity="1" fill-rule="nonzero"/></g><g clip-path="url(#3f85b10366)"><path fill="#004aad" d="M 1310.722656 83.554688 L 1359 83.554688 L 1359 131.835938 L 1310.722656 131.835938 Z M 1310.722656 83.554688 " fill-opacity="1" fill-rule="nonzero"/></g><g clip-path="url(#acea64b3d5)"><path fill="#004aad" d="M 1359 83.554688 L 1407.277344 83.554688 L 1407.277344 131.835938 L 1359 131.835938 Z M 1359 83.554688 " fill-opacity="1" fill-rule="nonzero"/></g><g clip-path="url(#798d1fdd8a)"><path fill="#004aad" d="M 1407.277344 131.835938 L 1455.558594 131.835938 L 1455.558594 180.113281 L 1407.277344 180.113281 Z M 1407.277344 131.835938 " fill-opacity="1" fill-rule="nonzero"/></g><g clip-path="url(#d0d180e62b)"><path fill="#004aad" d="M 1359 180.113281 L 1407.277344 180.113281 L 1407.277344 228.390625 L 1359 228.390625 Z M 1359 180.113281 " fill-opacity="1" fill-rule="nonzero"/></g><g clip-path="url(#7bdfa104c8)"><path fill="#004aad" d="M 1334.859375 228.390625 L 1383.140625 228.390625 L 1383.140625 276.667969 L 1334.859375 276.667969 Z M 1334.859375 228.390625 " fill-opacity="1" fill-rule="nonzero"/></g><g clip-path="url(#1b4494aa41)"><path fill="#004aad" d="M 1334.859375 324.667969 L 1383.140625 324.667969 L 1383.140625 372.949219 L 1334.859375 372.949219 Z M 1334.859375 324.667969 " fill-opacity="1" fill-rule="nonzero"/></g></svg>