<svg xmlns="http://www.w3.org/2000/svg" xmlns:xlink="http://www.w3.org/1999/xlink" width="1920" zoomAndPan="magnify" viewBox="0 0 1440 809.999993" height="1080" preserveAspectRatio="xMidYMid meet" version="1.0"><defs><clipPath id="ffd0024c71"><path d="M 179 278 L 274 278 L 274 384 L 179 384 Z M 179 278 " clip-rule="nonzero"/></clipPath><clipPath id="d1976ed876"><path d="M 273.210938 307.199219 L 222.917969 383.363281 L 179.878906 354.945312 L 230.175781 278.78125 Z M 273.210938 307.199219 " clip-rule="nonzero"/></clipPath><clipPath id="f4b377f3d2"><path d="M 866 405 L 970 405 L 970 483 L 866 483 Z M 866 405 " clip-rule="nonzero"/></clipPath><clipPath id="648a0fd5b2"><path d="M 882.5625 405 L 969.183594 433.765625 L 952.933594 482.710938 L 866.3125 453.945312 Z M 882.5625 405 " clip-rule="nonzero"/></clipPath><clipPath id="424d1cdccf"><path d="M 618 663 L 702 663 L 702 768 L 618 768 Z M 618 663 " clip-rule="nonzero"/></clipPath><clipPath id="7138edf9f2"><path d="M 618.125 747.113281 L 653.976562 663.179688 L 701.402344 683.4375 L 665.550781 767.371094 Z M 618.125 747.113281 " clip-rule="nonzero"/></clipPath><clipPath id="69d568e229"><path d="M 426 38 L 531 38 L 531 124 L 426 124 Z M 426 38 " clip-rule="nonzero"/></clipPath><clipPath id="de3c48ba0a"><path d="M 426.429688 76.433594 L 509.503906 38.625 L 530.867188 85.5625 L 447.792969 123.371094 Z M 426.429688 76.433594 " clip-rule="nonzero"/></clipPath><clipPath id="9041df528b"><path d="M 102 609 L 205 609 L 205 682 L 102 682 Z M 102 609 " clip-rule="nonzero"/></clipPath><clipPath id="986b13e689"><path d="M 102.863281 631.949219 L 191.257812 609.214844 L 204.101562 659.160156 L 115.707031 681.894531 Z M 102.863281 631.949219 " clip-rule="nonzero"/></clipPath><clipPath id="caad24ad23"><path d="M 1377 222 L 1440 222 L 1440 317 L 1377 317 Z M 1377 222 " clip-rule="nonzero"/></clipPath><clipPath id="5acaa5db48"><path d="M 1407.46875 222.015625 L 1482.152344 274.480469 L 1452.511719 316.679688 L 1377.824219 264.214844 Z M 1407.46875 222.015625 " clip-rule="nonzero"/></clipPath><clipPath id="d790dd9df6"><path d="M 1129 573 L 1231 573 L 1231 646 L 1129 646 Z M 1129 573 " clip-rule="nonzero"/></clipPath><clipPath id="1f4a5ec119"><path d="M 1129.535156 595.125 L 1218.144531 573.238281 L 1230.511719 623.308594 L 1141.902344 645.191406 Z M 1129.535156 595.125 " clip-rule="nonzero"/></clipPath><clipPath id="8378a0bbaa"><path d="M 160 51 L 248 51 L 248 157 L 160 157 Z M 160 51 " clip-rule="nonzero"/></clipPath><clipPath id="4ee8b0c220"><path d="M 201.722656 156.570312 L 160.476562 75.148438 L 206.480469 51.84375 L 247.726562 133.265625 Z M 201.722656 156.570312 " clip-rule="nonzero"/></clipPath><clipPath id="8b85faf7f1"><path d="M 426 409 L 531 409 L 531 506 L 426 506 Z M 426 409 " clip-rule="nonzero"/></clipPath><clipPath id="50c5b45e16"><path d="M 426.863281 463.800781 L 500.058594 409.269531 L 530.867188 450.628906 L 457.675781 505.15625 Z M 426.863281 463.800781 " clip-rule="nonzero"/></clipPath><clipPath id="ba8966f7d4"><path d="M 0 405 L 43 405 L 43 510 L 0 510 Z M 0 405 " clip-rule="nonzero"/></clipPath><clipPath id="5b349f2da9"><path d="M -42.363281 488.078125 L -4.578125 404.996094 L 42.367188 426.34375 L 4.582031 509.425781 Z M -42.363281 488.078125 " clip-rule="nonzero"/></clipPath><clipPath id="891361c6d4"><path d="M 654 193 L 749 193 L 749 251 L 654 251 Z M 654 193 " clip-rule="nonzero"/></clipPath><clipPath id="e7e0353a31"><path d="M 657.195312 193.847656 L 748.339844 198.683594 L 745.609375 250.179688 L 654.464844 245.347656 Z M 657.195312 193.847656 " clip-rule="nonzero"/></clipPath><clipPath id="269b4c4231"><path d="M 969 767 L 1063 767 L 1063 810 L 969 810 Z M 969 767 " clip-rule="nonzero"/></clipPath><clipPath id="2aa7ee42b4"><path d="M 971.175781 767.378906 L 1062.378906 770.898438 L 1060.390625 822.433594 L 969.1875 818.910156 Z M 971.175781 767.378906 " clip-rule="nonzero"/></clipPath><clipPath id="6ff0bec644"><path d="M 1015 81 L 1107 81 L 1107 186 L 1015 186 Z M 1015 81 " clip-rule="nonzero"/></clipPath><clipPath id="3e087f8c06"><path d="M 1015.785156 159.746094 L 1061.925781 80.996094 L 1106.421875 107.066406 L 1060.28125 185.816406 Z M 1015.785156 159.746094 " clip-rule="nonzero"/></clipPath><clipPath id="12d6483265"><path d="M 323 651 L 427 651 L 427 729 L 323 729 Z M 323 651 " clip-rule="nonzero"/></clipPath><clipPath id="3bcba33f41"><path d="M 340.238281 651.292969 L 426.859375 680.058594 L 410.609375 729 L 323.988281 700.234375 Z M 340.238281 651.292969 " clip-rule="nonzero"/></clipPath><clipPath id="d2ea4eaf54"><path d="M 0 137 L 61 137 L 61 234 L 0 234 Z M 0 137 " clip-rule="nonzero"/></clipPath><clipPath id="cf349899d0"><path d="M 51.273438 137.710938 L 60.929688 228.472656 L 9.648438 233.929688 L -0.0078125 143.167969 Z M 51.273438 137.710938 " clip-rule="nonzero"/></clipPath><clipPath id="06f034ead6"><path d="M 398 233 L 498 233 L 498 337 L 398 337 Z M 398 233 " clip-rule="nonzero"/></clipPath><clipPath id="491156ed9b"><path d="M 398.78125 303.664062 L 457.664062 233.925781 L 497.066406 267.195312 L 438.183594 336.933594 Z M 398.78125 303.664062 " clip-rule="nonzero"/></clipPath><clipPath id="c5a31976b2"><path d="M 1387 457 L 1440 457 L 1440 543 L 1387 543 Z M 1387 457 " clip-rule="nonzero"/></clipPath><clipPath id="3726ea7bc3"><path d="M 1387.777344 495.121094 L 1470.804688 457.214844 L 1492.226562 504.128906 L 1409.195312 542.035156 Z M 1387.777344 495.121094 " clip-rule="nonzero"/></clipPath><clipPath id="41cf18afce"><path d="M 731 467 L 796 467 L 796 566 L 731 566 Z M 731 467 " clip-rule="nonzero"/></clipPath><clipPath id="99142d020a"><path d="M 745.015625 565.867188 L 731.269531 475.636719 L 782.253906 467.871094 L 796 558.101562 Z M 745.015625 565.867188 " clip-rule="nonzero"/></clipPath><clipPath id="6c1ba1765a"><path d="M 845 0 L 943 0 L 943 81 L 845 81 Z M 845 0 " clip-rule="nonzero"/></clipPath><clipPath id="1ff9487dac"><path d="M 845.773438 49.457031 L 901.585938 -22.757812 L 942.390625 8.78125 L 886.574219 80.996094 Z M 845.773438 49.457031 " clip-rule="nonzero"/></clipPath><clipPath id="e67c4eaf84"><path d="M 1129 266 L 1231 266 L 1231 368 L 1129 368 Z M 1129 266 " clip-rule="nonzero"/></clipPath><clipPath id="8329664de2"><path d="M 1129.507812 330.710938 L 1194.046875 266.171875 L 1230.511719 302.636719 L 1165.972656 367.175781 Z M 1129.507812 330.710938 " clip-rule="nonzero"/></clipPath></defs><rect x="-144" width="1728" fill="#ffffff" y="-80.999999" height="971.999992" fill-opacity="1"/><rect x="-144" width="1728" fill="#ffffff" y="-80.999999" height="971.999992" fill-opacity="1"/><path fill="#90ee90" d="M 0 0 L 1439.648438 0 L 1439.648438 810 L 0 810 Z M 0 0 " fill-opacity="1" fill-rule="nonzero"/><g clip-path="url(#ffd0024c71)"><g clip-path="url(#d1976ed876)"><path fill="#ff914d" d="M 273.210938 307.199219 L 222.925781 383.351562 L 179.890625 354.933594 L 230.175781 278.78125 Z M 273.210938 307.199219 " fill-opacity="1" fill-rule="nonzero"/></g></g><g clip-path="url(#f4b377f3d2)"><g clip-path="url(#648a0fd5b2)"><path fill="#ff914d" d="M 882.5625 405 L 969.171875 433.761719 L 952.917969 482.703125 L 866.3125 453.945312 Z M 882.5625 405 " fill-opacity="1" fill-rule="nonzero"/></g></g><g clip-path="url(#424d1cdccf)"><g clip-path="url(#7138edf9f2)"><path fill="#ff914d" d="M 618.125 747.113281 L 653.972656 663.191406 L 701.398438 683.449219 L 665.550781 767.371094 Z M 618.125 747.113281 " fill-opacity="1" fill-rule="nonzero"/></g></g><g clip-path="url(#69d568e229)"><g clip-path="url(#de3c48ba0a)"><path fill="#ff914d" d="M 426.429688 76.433594 L 509.492188 38.632812 L 530.855469 85.570312 L 447.792969 123.371094 Z M 426.429688 76.433594 " fill-opacity="1" fill-rule="nonzero"/></g></g><g clip-path="url(#9041df528b)"><g clip-path="url(#986b13e689)"><path fill="#ff914d" d="M 102.863281 631.949219 L 191.242188 609.21875 L 204.089844 659.164062 L 115.707031 681.894531 Z M 102.863281 631.949219 " fill-opacity="1" fill-rule="nonzero"/></g></g><g clip-path="url(#caad24ad23)"><g clip-path="url(#5acaa5db48)"><path fill="#ff914d" d="M 1407.46875 222.015625 L 1482.140625 274.472656 L 1452.5 316.671875 L 1377.824219 264.214844 Z M 1407.46875 222.015625 " fill-opacity="1" fill-rule="nonzero"/></g></g><g clip-path="url(#d790dd9df6)"><g clip-path="url(#1f4a5ec119)"><path fill="#ff914d" d="M 1129.535156 595.125 L 1218.132812 573.242188 L 1230.496094 623.308594 L 1141.902344 645.191406 Z M 1129.535156 595.125 " fill-opacity="1" fill-rule="nonzero"/></g></g><g clip-path="url(#8378a0bbaa)"><g clip-path="url(#4ee8b0c220)"><path fill="#cb6ce6" d="M 201.722656 156.570312 L 160.480469 75.160156 L 206.488281 51.855469 L 247.726562 133.265625 Z M 201.722656 156.570312 " fill-opacity="1" fill-rule="nonzero"/></g></g><g clip-path="url(#8b85faf7f1)"><g clip-path="url(#50c5b45e16)"><path fill="#cb6ce6" d="M 426.863281 463.800781 L 500.046875 409.28125 L 530.855469 450.636719 L 457.675781 505.15625 Z M 426.863281 463.800781 " fill-opacity="1" fill-rule="nonzero"/></g></g><g clip-path="url(#ba8966f7d4)"><g clip-path="url(#5b349f2da9)"><path fill="#cb6ce6" d="M -42.363281 488.078125 L -4.585938 405.007812 L 42.359375 426.355469 L 4.582031 509.425781 Z M -42.363281 488.078125 " fill-opacity="1" fill-rule="nonzero"/></g></g><g clip-path="url(#891361c6d4)"><g clip-path="url(#e7e0353a31)"><path fill="#cb6ce6" d="M 657.195312 193.847656 L 748.324219 198.679688 L 745.59375 250.179688 L 654.464844 245.347656 Z M 657.195312 193.847656 " fill-opacity="1" fill-rule="nonzero"/></g></g><g clip-path="url(#269b4c4231)"><g clip-path="url(#2aa7ee42b4)"><path fill="#cb6ce6" d="M 971.175781 767.378906 L 1062.367188 770.898438 L 1060.375 822.433594 L 969.1875 818.910156 Z M 971.175781 767.378906 " fill-opacity="1" fill-rule="nonzero"/></g></g><g clip-path="url(#6ff0bec644)"><g clip-path="url(#3e087f8c06)"><path fill="#cb6ce6" d="M 1015.785156 159.746094 L 1061.917969 81.007812 L 1106.414062 107.078125 L 1060.28125 185.816406 Z M 1015.785156 159.746094 " fill-opacity="1" fill-rule="nonzero"/></g></g><g clip-path="url(#12d6483265)"><g clip-path="url(#3bcba33f41)"><path fill="#ffde59" d="M 340.238281 651.292969 L 426.847656 680.050781 L 410.59375 728.996094 L 323.988281 700.234375 Z M 340.238281 651.292969 " fill-opacity="1" fill-rule="nonzero"/></g></g><g clip-path="url(#d2ea4eaf54)"><g clip-path="url(#cf349899d0)"><path fill="#ffde59" d="M 51.273438 137.710938 L 60.929688 228.457031 L 9.644531 233.914062 L -0.0078125 143.167969 Z M 51.273438 137.710938 " fill-opacity="1" fill-rule="nonzero"/></g></g><g clip-path="url(#06f034ead6)"><g clip-path="url(#491156ed9b)"><path fill="#ffde59" d="M 398.78125 303.664062 L 457.652344 233.9375 L 497.058594 267.207031 L 438.183594 336.933594 Z M 398.78125 303.664062 " fill-opacity="1" fill-rule="nonzero"/></g></g><g clip-path="url(#c5a31976b2)"><g clip-path="url(#3726ea7bc3)"><path fill="#ffde59" d="M 1387.777344 495.121094 L 1470.792969 457.222656 L 1492.210938 504.132812 L 1409.195312 542.035156 Z M 1387.777344 495.121094 " fill-opacity="1" fill-rule="nonzero"/></g></g><g clip-path="url(#41cf18afce)"><g clip-path="url(#99142d020a)"><path fill="#ffde59" d="M 745.015625 565.867188 L 731.273438 475.652344 L 782.257812 467.882812 L 796 558.101562 Z M 745.015625 565.867188 " fill-opacity="1" fill-rule="nonzero"/></g></g><g clip-path="url(#6c1ba1765a)"><g clip-path="url(#1ff9487dac)"><path fill="#ffde59" d="M 845.773438 49.457031 L 901.578125 -22.746094 L 942.382812 8.792969 L 886.574219 80.996094 Z M 845.773438 49.457031 " fill-opacity="1" fill-rule="nonzero"/></g></g><g clip-path="url(#e67c4eaf84)"><g clip-path="url(#8329664de2)"><path fill="#ffde59" d="M 1129.507812 330.710938 L 1194.035156 266.183594 L 1230.503906 302.648438 L 1165.972656 367.175781 Z M 1129.507812 330.710938 " fill-opacity="1" fill-rule="nonzero"/></g></g></svg>
