<svg xmlns="http://www.w3.org/2000/svg" xmlns:xlink="http://www.w3.org/1999/xlink" width="1920" zoomAndPan="magnify" viewBox="0 0 1440 809.999993" height="1080" preserveAspectRatio="xMidYMid meet" version="1.0"><defs><clipPath id="a79cd2f51e"><path d="M 150.613281 81 L 198.890625 81 L 198.890625 129.277344 L 150.613281 129.277344 Z M 150.613281 81 " clip-rule="nonzero"/></clipPath><clipPath id="6c2318031c"><path d="M 198.890625 81 L 247.167969 81 L 247.167969 129.277344 L 198.890625 129.277344 Z M 198.890625 81 " clip-rule="nonzero"/></clipPath><clipPath id="918335ecb4"><path d="M 102.332031 129.277344 L 150.613281 129.277344 L 150.613281 177.558594 L 102.332031 177.558594 Z M 102.332031 129.277344 " clip-rule="nonzero"/></clipPath><clipPath id="375e4f46d8"><path d="M 247.167969 81 L 295.449219 81 L 295.449219 129.277344 L 247.167969 129.277344 Z M 247.167969 81 " clip-rule="nonzero"/></clipPath><clipPath id="56bce162a4"><path d="M 150.613281 129.277344 L 198.890625 129.277344 L 198.890625 177.558594 L 150.613281 177.558594 Z M 150.613281 129.277344 " clip-rule="nonzero"/></clipPath><clipPath id="89f43222c5"><path d="M 198.890625 129.277344 L 247.167969 129.277344 L 247.167969 177.558594 L 198.890625 177.558594 Z M 198.890625 129.277344 " clip-rule="nonzero"/></clipPath><clipPath id="ba366a6730"><path d="M 247.167969 129.277344 L 295.449219 129.277344 L 295.449219 177.558594 L 247.167969 177.558594 Z M 247.167969 129.277344 " clip-rule="nonzero"/></clipPath><clipPath id="024288c96d"><path d="M 343.449219 56.859375 L 391.726562 56.859375 L 391.726562 105.140625 L 343.449219 105.140625 Z M 343.449219 56.859375 " clip-rule="nonzero"/></clipPath><clipPath id="ace5633505"><path d="M 295.449219 129.277344 L 343.726562 129.277344 L 343.726562 177.558594 L 295.449219 177.558594 Z M 295.449219 129.277344 " clip-rule="nonzero"/></clipPath><clipPath id="7e56c3256f"><path d="M 102.332031 177.558594 L 150.613281 177.558594 L 150.613281 225.835938 L 102.332031 225.835938 Z M 102.332031 177.558594 " clip-rule="nonzero"/></clipPath><clipPath id="493644f825"><path d="M 150.613281 177.558594 L 198.890625 177.558594 L 198.890625 225.835938 L 150.613281 225.835938 Z M 150.613281 177.558594 " clip-rule="nonzero"/></clipPath><clipPath id="2b4495ab2f"><path d="M 198.890625 177.558594 L 247.167969 177.558594 L 247.167969 225.835938 L 198.890625 225.835938 Z M 198.890625 177.558594 " clip-rule="nonzero"/></clipPath><clipPath id="44ad1edc10"><path d="M 247.167969 177.558594 L 295.449219 177.558594 L 295.449219 225.835938 L 247.167969 225.835938 Z M 247.167969 177.558594 " clip-rule="nonzero"/></clipPath><clipPath id="43fcd1f972"><path d="M 295.167969 177.558594 L 343.449219 177.558594 L 343.449219 225.835938 L 295.167969 225.835938 Z M 295.167969 177.558594 " clip-rule="nonzero"/></clipPath><clipPath id="2a9c02f814"><path d="M 391.726562 153.417969 L 440.003906 153.417969 L 440.003906 201.695312 L 391.726562 201.695312 Z M 391.726562 153.417969 " clip-rule="nonzero"/></clipPath><clipPath id="690768676b"><path d="M 391.726562 24.140625 L 440.003906 24.140625 L 440.003906 72.417969 L 391.726562 72.417969 Z M 391.726562 24.140625 " clip-rule="nonzero"/></clipPath><clipPath id="6c52ac565f"><path d="M 440.003906 129.277344 L 488.28125 129.277344 L 488.28125 177.558594 L 440.003906 177.558594 Z M 440.003906 129.277344 " clip-rule="nonzero"/></clipPath><clipPath id="378c6de482"><path d="M 246.890625 19.675781 L 295.167969 19.675781 L 295.167969 67.953125 L 246.890625 67.953125 Z M 246.890625 19.675781 " clip-rule="nonzero"/></clipPath><clipPath id="fb9a01ac7d"><path d="M 160.292969 19.675781 L 208.570312 19.675781 L 208.570312 67.953125 L 160.292969 67.953125 Z M 160.292969 19.675781 " clip-rule="nonzero"/></clipPath><clipPath id="ec5eb52bcd"><path d="M 276.007812 0 L 324.289062 0 L 324.289062 19.675781 L 276.007812 19.675781 Z M 276.007812 0 " clip-rule="nonzero"/></clipPath><clipPath id="208ab62cbb"><path d="M 136.152344 0 L 184.429688 0 L 184.429688 24.140625 L 136.152344 24.140625 Z M 136.152344 0 " clip-rule="nonzero"/></clipPath><clipPath id="6168ba50e4"><path d="M 66.679688 52.996094 L 114.957031 52.996094 L 114.957031 101.273438 L 66.679688 101.273438 Z M 66.679688 52.996094 " clip-rule="nonzero"/></clipPath><clipPath id="0a9325f222"><path d="M 18.402344 24.140625 L 66.679688 24.140625 L 66.679688 72.417969 L 18.402344 72.417969 Z M 18.402344 24.140625 " clip-rule="nonzero"/></clipPath><clipPath id="58a556b314"><path d="M 34.945312 148.191406 L 83.226562 148.191406 L 83.226562 196.472656 L 34.945312 196.472656 Z M 34.945312 148.191406 " clip-rule="nonzero"/></clipPath><clipPath id="5dee370231"><path d="M 0 124.054688 L 34.945312 124.054688 L 34.945312 172.332031 L 0 172.332031 Z M 0 124.054688 " clip-rule="nonzero"/></clipPath><clipPath id="1ebc87ef60"><path d="M 66.679688 196.472656 L 114.957031 196.472656 L 114.957031 244.75 L 66.679688 244.75 Z M 66.679688 196.472656 " clip-rule="nonzero"/></clipPath><clipPath id="180ab84352"><path d="M 114.957031 196.472656 L 163.234375 196.472656 L 163.234375 244.75 L 114.957031 244.75 Z M 114.957031 196.472656 " clip-rule="nonzero"/></clipPath><clipPath id="f83ef72aa7"><path d="M 163.234375 177.558594 L 211.515625 177.558594 L 211.515625 225.835938 L 163.234375 225.835938 Z M 163.234375 177.558594 " clip-rule="nonzero"/></clipPath><clipPath id="c7ac0dee3d"><path d="M 208.570312 177.558594 L 256.847656 177.558594 L 256.847656 225.835938 L 208.570312 225.835938 Z M 208.570312 177.558594 " clip-rule="nonzero"/></clipPath><clipPath id="65673dba88"><path d="M 256.847656 201.695312 L 305.125 201.695312 L 305.125 249.976562 L 256.847656 249.976562 Z M 256.847656 201.695312 " clip-rule="nonzero"/></clipPath><clipPath id="753336543d"><path d="M 163.234375 225.917969 L 211.515625 225.917969 L 211.515625 274.199219 L 163.234375 274.199219 Z M 163.234375 225.917969 " clip-rule="nonzero"/></clipPath><clipPath id="c6094104d8"><path d="M 211.515625 225.917969 L 259.792969 225.917969 L 259.792969 274.199219 L 211.515625 274.199219 Z M 211.515625 225.917969 " clip-rule="nonzero"/></clipPath><clipPath id="8294192288"><path d="M 114.957031 244.75 L 163.234375 244.75 L 163.234375 293.027344 L 114.957031 293.027344 Z M 114.957031 244.75 " clip-rule="nonzero"/></clipPath><clipPath id="fbd098147c"><path d="M 280.988281 311.476562 L 329.265625 311.476562 L 329.265625 359.753906 L 280.988281 359.753906 Z M 280.988281 311.476562 " clip-rule="nonzero"/></clipPath><clipPath id="bf942ad9e0"><path d="M 329.265625 311.476562 L 377.542969 311.476562 L 377.542969 359.753906 L 329.265625 359.753906 Z M 329.265625 311.476562 " clip-rule="nonzero"/></clipPath><clipPath id="09749ae3b5"><path d="M 377.542969 293.027344 L 425.824219 293.027344 L 425.824219 341.308594 L 377.542969 341.308594 Z M 377.542969 293.027344 " clip-rule="nonzero"/></clipPath><clipPath id="cd19f96ebc"><path d="M 377.542969 341.308594 L 425.824219 341.308594 L 425.824219 389.585938 L 377.542969 389.585938 Z M 377.542969 341.308594 " clip-rule="nonzero"/></clipPath><clipPath id="13d6d852ec"><path d="M 329.265625 359.753906 L 377.542969 359.753906 L 377.542969 408.03125 L 329.265625 408.03125 Z M 329.265625 359.753906 " clip-rule="nonzero"/></clipPath><clipPath id="c8e600146c"><path d="M 1207.507812 274.199219 L 1255.785156 274.199219 L 1255.785156 322.476562 L 1207.507812 322.476562 Z M 1207.507812 274.199219 " clip-rule="nonzero"/></clipPath><clipPath id="4f5282de22"><path d="M 1207.507812 225.917969 L 1255.785156 225.917969 L 1255.785156 274.199219 L 1207.507812 274.199219 Z M 1207.507812 225.917969 " clip-rule="nonzero"/></clipPath><clipPath id="3b68db976d"><path d="M 1159.230469 225.835938 L 1207.507812 225.835938 L 1207.507812 274.113281 L 1159.230469 274.113281 Z M 1159.230469 225.835938 " clip-rule="nonzero"/></clipPath><clipPath id="2a3194442e"><path d="M 1110.953125 250.058594 L 1159.230469 250.058594 L 1159.230469 298.335938 L 1110.953125 298.335938 Z M 1110.953125 250.058594 " clip-rule="nonzero"/></clipPath><clipPath id="c9885cedb9"><path d="M 1159.230469 274.199219 L 1207.507812 274.199219 L 1207.507812 322.476562 L 1159.230469 322.476562 Z M 1159.230469 274.199219 " clip-rule="nonzero"/></clipPath><clipPath id="04275b2b15"><path d="M 1255.785156 225.917969 L 1304.066406 225.917969 L 1304.066406 274.199219 L 1255.785156 274.199219 Z M 1255.785156 225.917969 " clip-rule="nonzero"/></clipPath><clipPath id="888a99a896"><path d="M 1255.785156 274.199219 L 1304.066406 274.199219 L 1304.066406 322.476562 L 1255.785156 322.476562 Z M 1255.785156 274.199219 " clip-rule="nonzero"/></clipPath><clipPath id="934710f254"><path d="M 942.09375 535.003906 L 990.375 535.003906 L 990.375 583.28125 L 942.09375 583.28125 Z M 942.09375 535.003906 " clip-rule="nonzero"/></clipPath><clipPath id="9c0a61ec54"><path d="M 990.375 535.003906 L 1038.652344 535.003906 L 1038.652344 583.28125 L 990.375 583.28125 Z M 990.375 535.003906 " clip-rule="nonzero"/></clipPath><clipPath id="73f2776158"><path d="M 990.375 583.003906 L 1038.652344 583.003906 L 1038.652344 631.28125 L 990.375 631.28125 Z M 990.375 583.003906 " clip-rule="nonzero"/></clipPath><clipPath id="9b6df0c0ef"><path d="M 942.09375 583.28125 L 990.375 583.28125 L 990.375 631.558594 L 942.09375 631.558594 Z M 942.09375 583.28125 " clip-rule="nonzero"/></clipPath><clipPath id="960cab45d9"><path d="M 1038.652344 583.28125 L 1086.929688 583.28125 L 1086.929688 631.558594 L 1038.652344 631.558594 Z M 1038.652344 583.28125 " clip-rule="nonzero"/></clipPath><clipPath id="0e9fafdd4f"><path d="M 893.816406 583.28125 L 942.09375 583.28125 L 942.09375 631.558594 L 893.816406 631.558594 Z M 893.816406 583.28125 " clip-rule="nonzero"/></clipPath><clipPath id="0ad02d443c"><path d="M 893.816406 534.722656 L 942.09375 534.722656 L 942.09375 583.003906 L 893.816406 583.003906 Z M 893.816406 534.722656 " clip-rule="nonzero"/></clipPath><clipPath id="34caa6cc99"><path d="M 990.375 631.28125 L 1038.652344 631.28125 L 1038.652344 679.558594 L 990.375 679.558594 Z M 990.375 631.28125 " clip-rule="nonzero"/></clipPath><clipPath id="0b246840a3"><path d="M 942.09375 631.28125 L 990.375 631.28125 L 990.375 679.558594 L 942.09375 679.558594 Z M 942.09375 631.28125 " clip-rule="nonzero"/></clipPath><clipPath id="6cf04b36a4"><path d="M 942.09375 510.585938 L 990.375 510.585938 L 990.375 558.863281 L 942.09375 558.863281 Z M 942.09375 510.585938 " clip-rule="nonzero"/></clipPath><clipPath id="762d6e73d9"><path d="M 869.675781 558.863281 L 917.957031 558.863281 L 917.957031 607.140625 L 869.675781 607.140625 Z M 869.675781 558.863281 " clip-rule="nonzero"/></clipPath><clipPath id="40852c3a5f"><path d="M 305.125 201.78125 L 353.40625 201.78125 L 353.40625 250.058594 L 305.125 250.058594 Z M 305.125 201.78125 " clip-rule="nonzero"/></clipPath><clipPath id="cd29cad5c8"><path d="M 259.792969 249.976562 L 308.070312 249.976562 L 308.070312 298.253906 L 259.792969 298.253906 Z M 259.792969 249.976562 " clip-rule="nonzero"/></clipPath><clipPath id="086e43a37d"><path d="M 308.070312 250.058594 L 356.351562 250.058594 L 356.351562 298.335938 L 308.070312 298.335938 Z M 308.070312 250.058594 " clip-rule="nonzero"/></clipPath></defs><rect x="-144" width="1728" fill="#ffffff" y="-80.999999" height="971.999992" fill-opacity="1"/><rect x="-144" width="1728" fill="#ffffff" y="-80.999999" height="971.999992" fill-opacity="1"/><path fill="#87ceeb" d="M 0 0 L 1439.648438 0 L 1439.648438 810 L 0 810 Z M 0 0 " fill-opacity="1" fill-rule="nonzero"/><g clip-path="url(#a79cd2f51e)"><path fill="#ffde59" d="M 150.613281 81 L 198.890625 81 L 198.890625 129.277344 L 150.613281 129.277344 Z M 150.613281 81 " fill-opacity="1" fill-rule="nonzero"/></g><g clip-path="url(#6c2318031c)"><path fill="#ffde59" d="M 198.890625 81 L 247.167969 81 L 247.167969 129.277344 L 198.890625 129.277344 Z M 198.890625 81 " fill-opacity="1" fill-rule="nonzero"/></g><g clip-path="url(#918335ecb4)"><path fill="#ffde59" d="M 102.332031 129.277344 L 150.613281 129.277344 L 150.613281 177.558594 L 102.332031 177.558594 Z M 102.332031 129.277344 " fill-opacity="1" fill-rule="nonzero"/></g><g clip-path="url(#375e4f46d8)"><path fill="#ffde59" d="M 247.167969 81 L 295.449219 81 L 295.449219 129.277344 L 247.167969 129.277344 Z M 247.167969 81 " fill-opacity="1" fill-rule="nonzero"/></g><g clip-path="url(#56bce162a4)"><path fill="#ffde59" d="M 150.613281 129.277344 L 198.890625 129.277344 L 198.890625 177.558594 L 150.613281 177.558594 Z M 150.613281 129.277344 " fill-opacity="1" fill-rule="nonzero"/></g><g clip-path="url(#89f43222c5)"><path fill="#ffde59" d="M 198.890625 129.277344 L 247.167969 129.277344 L 247.167969 177.558594 L 198.890625 177.558594 Z M 198.890625 129.277344 " fill-opacity="1" fill-rule="nonzero"/></g><g clip-path="url(#ba366a6730)"><path fill="#ffde59" d="M 247.167969 129.277344 L 295.449219 129.277344 L 295.449219 177.558594 L 247.167969 177.558594 Z M 247.167969 129.277344 " fill-opacity="1" fill-rule="nonzero"/></g><g clip-path="url(#024288c96d)"><path fill="#ffbd59" d="M 343.449219 56.859375 L 391.726562 56.859375 L 391.726562 105.140625 L 343.449219 105.140625 Z M 343.449219 56.859375 " fill-opacity="1" fill-rule="nonzero"/></g><g clip-path="url(#ace5633505)"><path fill="#ffde59" d="M 295.449219 129.277344 L 343.726562 129.277344 L 343.726562 177.558594 L 295.449219 177.558594 Z M 295.449219 129.277344 " fill-opacity="1" fill-rule="nonzero"/></g><g clip-path="url(#7e56c3256f)"><path fill="#ffde59" d="M 102.332031 177.558594 L 150.613281 177.558594 L 150.613281 225.835938 L 102.332031 225.835938 Z M 102.332031 177.558594 " fill-opacity="1" fill-rule="nonzero"/></g><g clip-path="url(#493644f825)"><path fill="#ffde59" d="M 150.613281 177.558594 L 198.890625 177.558594 L 198.890625 225.835938 L 150.613281 225.835938 Z M 150.613281 177.558594 " fill-opacity="1" fill-rule="nonzero"/></g><g clip-path="url(#2b4495ab2f)"><path fill="#ffde59" d="M 198.890625 177.558594 L 247.167969 177.558594 L 247.167969 225.835938 L 198.890625 225.835938 Z M 198.890625 177.558594 " fill-opacity="1" fill-rule="nonzero"/></g><g clip-path="url(#44ad1edc10)"><path fill="#ffde59" d="M 247.167969 177.558594 L 295.449219 177.558594 L 295.449219 225.835938 L 247.167969 225.835938 Z M 247.167969 177.558594 " fill-opacity="1" fill-rule="nonzero"/></g><g clip-path="url(#43fcd1f972)"><path fill="#ffde59" d="M 295.167969 177.558594 L 343.449219 177.558594 L 343.449219 225.835938 L 295.167969 225.835938 Z M 295.167969 177.558594 " fill-opacity="1" fill-rule="nonzero"/></g><g clip-path="url(#2a9c02f814)"><path fill="#ffbd59" d="M 391.726562 153.417969 L 440.003906 153.417969 L 440.003906 201.695312 L 391.726562 201.695312 Z M 391.726562 153.417969 " fill-opacity="1" fill-rule="nonzero"/></g><g clip-path="url(#690768676b)"><path fill="#ffbd59" d="M 391.726562 24.140625 L 440.003906 24.140625 L 440.003906 72.417969 L 391.726562 72.417969 Z M 391.726562 24.140625 " fill-opacity="1" fill-rule="nonzero"/></g><g clip-path="url(#6c52ac565f)"><path fill="#ffbd59" d="M 440.003906 129.277344 L 488.28125 129.277344 L 488.28125 177.558594 L 440.003906 177.558594 Z M 440.003906 129.277344 " fill-opacity="1" fill-rule="nonzero"/></g><g clip-path="url(#378c6de482)"><path fill="#ffbd59" d="M 246.890625 19.675781 L 295.167969 19.675781 L 295.167969 67.953125 L 246.890625 67.953125 Z M 246.890625 19.675781 " fill-opacity="1" fill-rule="nonzero"/></g><g clip-path="url(#fb9a01ac7d)"><path fill="#ffbd59" d="M 160.292969 19.675781 L 208.570312 19.675781 L 208.570312 67.953125 L 160.292969 67.953125 Z M 160.292969 19.675781 " fill-opacity="1" fill-rule="nonzero"/></g><g clip-path="url(#ec5eb52bcd)"><path fill="#ffbd59" d="M 276.007812 -28.605469 L 324.289062 -28.605469 L 324.289062 19.675781 L 276.007812 19.675781 Z M 276.007812 -28.605469 " fill-opacity="1" fill-rule="nonzero"/></g><g clip-path="url(#208ab62cbb)"><path fill="#ffbd59" d="M 136.152344 -24.140625 L 184.429688 -24.140625 L 184.429688 24.140625 L 136.152344 24.140625 Z M 136.152344 -24.140625 " fill-opacity="1" fill-rule="nonzero"/></g><g clip-path="url(#6168ba50e4)"><path fill="#ffbd59" d="M 66.679688 52.996094 L 114.957031 52.996094 L 114.957031 101.273438 L 66.679688 101.273438 Z M 66.679688 52.996094 " fill-opacity="1" fill-rule="nonzero"/></g><g clip-path="url(#0a9325f222)"><path fill="#ffbd59" d="M 18.402344 24.140625 L 66.679688 24.140625 L 66.679688 72.417969 L 18.402344 72.417969 Z M 18.402344 24.140625 " fill-opacity="1" fill-rule="nonzero"/></g><g clip-path="url(#58a556b314)"><path fill="#ffbd59" d="M 34.945312 148.191406 L 83.226562 148.191406 L 83.226562 196.472656 L 34.945312 196.472656 Z M 34.945312 148.191406 " fill-opacity="1" fill-rule="nonzero"/></g><g clip-path="url(#5dee370231)"><path fill="#ffbd59" d="M -13.332031 124.054688 L 34.945312 124.054688 L 34.945312 172.332031 L -13.332031 172.332031 Z M -13.332031 124.054688 " fill-opacity="1" fill-rule="nonzero"/></g><g clip-path="url(#1ebc87ef60)"><path fill="#ffffff" d="M 66.679688 196.472656 L 114.957031 196.472656 L 114.957031 244.75 L 66.679688 244.75 Z M 66.679688 196.472656 " fill-opacity="1" fill-rule="nonzero"/></g><g clip-path="url(#180ab84352)"><path fill="#ffffff" d="M 114.957031 196.472656 L 163.234375 196.472656 L 163.234375 244.75 L 114.957031 244.75 Z M 114.957031 196.472656 " fill-opacity="1" fill-rule="nonzero"/></g><g clip-path="url(#f83ef72aa7)"><path fill="#ffffff" d="M 163.234375 177.558594 L 211.515625 177.558594 L 211.515625 225.835938 L 163.234375 225.835938 Z M 163.234375 177.558594 " fill-opacity="1" fill-rule="nonzero"/></g><g clip-path="url(#c7ac0dee3d)"><path fill="#ffffff" d="M 208.570312 177.558594 L 256.847656 177.558594 L 256.847656 225.835938 L 208.570312 225.835938 Z M 208.570312 177.558594 " fill-opacity="1" fill-rule="nonzero"/></g><g clip-path="url(#65673dba88)"><path fill="#ffffff" d="M 256.847656 201.695312 L 305.125 201.695312 L 305.125 249.976562 L 256.847656 249.976562 Z M 256.847656 201.695312 " fill-opacity="1" fill-rule="nonzero"/></g><g clip-path="url(#753336543d)"><path fill="#ffffff" d="M 163.234375 225.917969 L 211.515625 225.917969 L 211.515625 274.199219 L 163.234375 274.199219 Z M 163.234375 225.917969 " fill-opacity="1" fill-rule="nonzero"/></g><g clip-path="url(#c6094104d8)"><path fill="#ffffff" d="M 211.515625 225.917969 L 259.792969 225.917969 L 259.792969 274.199219 L 211.515625 274.199219 Z M 211.515625 225.917969 " fill-opacity="1" fill-rule="nonzero"/></g><g clip-path="url(#8294192288)"><path fill="#ffffff" d="M 114.957031 244.75 L 163.234375 244.75 L 163.234375 293.027344 L 114.957031 293.027344 Z M 114.957031 244.75 " fill-opacity="1" fill-rule="nonzero"/></g><g clip-path="url(#fbd098147c)"><path fill="#ffffff" d="M 280.988281 311.476562 L 329.265625 311.476562 L 329.265625 359.753906 L 280.988281 359.753906 Z M 280.988281 311.476562 " fill-opacity="1" fill-rule="nonzero"/></g><g clip-path="url(#bf942ad9e0)"><path fill="#ffffff" d="M 329.265625 311.476562 L 377.542969 311.476562 L 377.542969 359.753906 L 329.265625 359.753906 Z M 329.265625 311.476562 " fill-opacity="1" fill-rule="nonzero"/></g><g clip-path="url(#09749ae3b5)"><path fill="#ffffff" d="M 377.542969 293.027344 L 425.824219 293.027344 L 425.824219 341.308594 L 377.542969 341.308594 Z M 377.542969 293.027344 " fill-opacity="1" fill-rule="nonzero"/></g><g clip-path="url(#cd19f96ebc)"><path fill="#ffffff" d="M 377.542969 341.308594 L 425.824219 341.308594 L 425.824219 389.585938 L 377.542969 389.585938 Z M 377.542969 341.308594 " fill-opacity="1" fill-rule="nonzero"/></g><g clip-path="url(#13d6d852ec)"><path fill="#ffffff" d="M 329.265625 359.753906 L 377.542969 359.753906 L 377.542969 408.03125 L 329.265625 408.03125 Z M 329.265625 359.753906 " fill-opacity="1" fill-rule="nonzero"/></g><g clip-path="url(#c8e600146c)"><path fill="#ffffff" d="M 1207.507812 274.199219 L 1255.785156 274.199219 L 1255.785156 322.476562 L 1207.507812 322.476562 Z M 1207.507812 274.199219 " fill-opacity="1" fill-rule="nonzero"/></g><g clip-path="url(#4f5282de22)"><path fill="#ffffff" d="M 1207.507812 225.917969 L 1255.785156 225.917969 L 1255.785156 274.199219 L 1207.507812 274.199219 Z M 1207.507812 225.917969 " fill-opacity="1" fill-rule="nonzero"/></g><g clip-path="url(#3b68db976d)"><path fill="#ffffff" d="M 1159.230469 225.835938 L 1207.507812 225.835938 L 1207.507812 274.113281 L 1159.230469 274.113281 Z M 1159.230469 225.835938 " fill-opacity="1" fill-rule="nonzero"/></g><g clip-path="url(#2a3194442e)"><path fill="#ffffff" d="M 1110.953125 250.058594 L 1159.230469 250.058594 L 1159.230469 298.335938 L 1110.953125 298.335938 Z M 1110.953125 250.058594 " fill-opacity="1" fill-rule="nonzero"/></g><g clip-path="url(#c9885cedb9)"><path fill="#ffffff" d="M 1159.230469 274.199219 L 1207.507812 274.199219 L 1207.507812 322.476562 L 1159.230469 322.476562 Z M 1159.230469 274.199219 " fill-opacity="1" fill-rule="nonzero"/></g><g clip-path="url(#04275b2b15)"><path fill="#ffffff" d="M 1255.785156 225.917969 L 1304.066406 225.917969 L 1304.066406 274.199219 L 1255.785156 274.199219 Z M 1255.785156 225.917969 " fill-opacity="1" fill-rule="nonzero"/></g><g clip-path="url(#888a99a896)"><path fill="#ffffff" d="M 1255.785156 274.199219 L 1304.066406 274.199219 L 1304.066406 322.476562 L 1255.785156 322.476562 Z M 1255.785156 274.199219 " fill-opacity="1" fill-rule="nonzero"/></g><g clip-path="url(#934710f254)"><path fill="#ffffff" d="M 942.09375 535.003906 L 990.375 535.003906 L 990.375 583.28125 L 942.09375 583.28125 Z M 942.09375 535.003906 " fill-opacity="1" fill-rule="nonzero"/></g><g clip-path="url(#9c0a61ec54)"><path fill="#ffffff" d="M 990.375 535.003906 L 1038.652344 535.003906 L 1038.652344 583.28125 L 990.375 583.28125 Z M 990.375 535.003906 " fill-opacity="1" fill-rule="nonzero"/></g><g clip-path="url(#73f2776158)"><path fill="#ffffff" d="M 990.375 583.003906 L 1038.652344 583.003906 L 1038.652344 631.28125 L 990.375 631.28125 Z M 990.375 583.003906 " fill-opacity="1" fill-rule="nonzero"/></g><g clip-path="url(#9b6df0c0ef)"><path fill="#ffffff" d="M 942.09375 583.28125 L 990.375 583.28125 L 990.375 631.558594 L 942.09375 631.558594 Z M 942.09375 583.28125 " fill-opacity="1" fill-rule="nonzero"/></g><g clip-path="url(#960cab45d9)"><path fill="#ffffff" d="M 1038.652344 583.28125 L 1086.929688 583.28125 L 1086.929688 631.558594 L 1038.652344 631.558594 Z M 1038.652344 583.28125 " fill-opacity="1" fill-rule="nonzero"/></g><g clip-path="url(#0e9fafdd4f)"><path fill="#ffffff" d="M 893.816406 583.28125 L 942.09375 583.28125 L 942.09375 631.558594 L 893.816406 631.558594 Z M 893.816406 583.28125 " fill-opacity="1" fill-rule="nonzero"/></g><g clip-path="url(#0ad02d443c)"><path fill="#ffffff" d="M 893.816406 534.722656 L 942.09375 534.722656 L 942.09375 583.003906 L 893.816406 583.003906 Z M 893.816406 534.722656 " fill-opacity="1" fill-rule="nonzero"/></g><g clip-path="url(#34caa6cc99)"><path fill="#ffffff" d="M 990.375 631.28125 L 1038.652344 631.28125 L 1038.652344 679.558594 L 990.375 679.558594 Z M 990.375 631.28125 " fill-opacity="1" fill-rule="nonzero"/></g><g clip-path="url(#0b246840a3)"><path fill="#ffffff" d="M 942.09375 631.28125 L 990.375 631.28125 L 990.375 679.558594 L 942.09375 679.558594 Z M 942.09375 631.28125 " fill-opacity="1" fill-rule="nonzero"/></g><g clip-path="url(#6cf04b36a4)"><path fill="#ffffff" d="M 942.09375 510.585938 L 990.375 510.585938 L 990.375 558.863281 L 942.09375 558.863281 Z M 942.09375 510.585938 " fill-opacity="1" fill-rule="nonzero"/></g><g clip-path="url(#762d6e73d9)"><path fill="#ffffff" d="M 869.675781 558.863281 L 917.957031 558.863281 L 917.957031 607.140625 L 869.675781 607.140625 Z M 869.675781 558.863281 " fill-opacity="1" fill-rule="nonzero"/></g><g clip-path="url(#40852c3a5f)"><path fill="#ffffff" d="M 305.125 201.78125 L 353.40625 201.78125 L 353.40625 250.058594 L 305.125 250.058594 Z M 305.125 201.78125 " fill-opacity="1" fill-rule="nonzero"/></g><g clip-path="url(#cd29cad5c8)"><path fill="#ffffff" d="M 259.792969 249.976562 L 308.070312 249.976562 L 308.070312 298.253906 L 259.792969 298.253906 Z M 259.792969 249.976562 " fill-opacity="1" fill-rule="nonzero"/></g><g clip-path="url(#086e43a37d)"><path fill="#ffffff" d="M 308.070312 250.058594 L 356.351562 250.058594 L 356.351562 298.335938 L 308.070312 298.335938 Z M 308.070312 250.058594 " fill-opacity="1" fill-rule="nonzero"/></g></svg>
